<?xml version="1.0" standalone="no"?>
<!DOCTYPE svg PUBLIC "-//W3C//DTD SVG 20010904//EN"
 "http://www.w3.org/TR/2001/REC-SVG-20010904/DTD/svg10.dtd">
<svg version="1.0" xmlns="http://www.w3.org/2000/svg"
 width="2082.000000pt" height="2082.000000pt" viewBox="0 0 2082.000000 2082.000000"
 preserveAspectRatio="xMidYMid meet">
<metadata>
Created by potrace 1.11, written by Peter Selinger 2001-2013
</metadata>
<g transform="translate(0.000000,2082.000000) scale(0.100000,-0.100000)"
fill="#000000" stroke="none">
<path d="M1924 16204 c1 -49 5 -94 9 -101 4 -6 3 -14 -3 -18 -5 -3 -10 -12
-10 -18 0 -8 3 -8 9 1 5 9 37 -77 91 -240 45 -139 86 -257 91 -263 5 -5 -2 24
-16 65 -14 41 -27 84 -29 95 -4 19 -92 334 -102 364 -5 16 100 -81 151 -138
16 -19 41 -46 55 -61 14 -14 43 -46 66 -71 22 -24 52 -52 65 -62 13 -10 18
-15 10 -11 -9 5 -12 3 -7 -5 4 -6 11 -9 16 -6 7 4 81 -50 100 -74 16 -19 82
-73 69 -56 -101 131 -189 234 -298 350 -66 70 -161 187 -216 265 -21 30 -42
59 -46 64 -4 5 -6 -32 -5 -80z"/>
<path d="M1924 16036 c1 -8 5 -18 8 -22 4 -3 5 1 4 10 -1 8 -5 18 -8 22 -4 3
-5 -1 -4 -10z"/>
<path d="M1929 15966 c-6 -7 -2 -558 5 -726 6 -127 9 -163 22 -265 3 -22 7
-58 10 -80 3 -22 9 -65 15 -95 6 -30 12 -67 14 -81 6 -39 53 -245 76 -329 11
-41 22 -83 24 -92 6 -27 114 -350 124 -373 5 -11 24 -56 41 -100 18 -44 53
-120 77 -170 49 -97 203 -356 235 -396 l20 -24 -18 30 c-243 403 -363 680
-458 1060 -49 194 -98 487 -121 720 -3 33 -8 76 -10 95 -2 19 -7 73 -10 120
-3 47 -8 112 -10 145 -3 33 -7 114 -10 180 -4 66 -8 134 -10 150 -2 17 -4 76
-5 133 -2 56 -3 102 -5 102 -1 0 -4 -2 -6 -4z"/>
<path d="M2270 15884 c0 -4 14 -20 31 -37 18 -16 70 -75 116 -131 l85 -101
193 -71 c107 -40 242 -95 300 -123 l106 -50 -7 -48 c-3 -26 -8 -57 -11 -68 -6
-29 -5 -285 1 -336 3 -24 8 -82 11 -128 3 -47 7 -94 10 -105 2 -12 7 -54 10
-95 3 -40 8 -78 11 -82 3 -5 1 -9 -4 -9 -6 0 -13 15 -16 33 -3 17 -8 41 -10
52 -2 11 -17 61 -34 110 -72 213 -156 379 -283 556 -104 145 -141 183 -78 79
251 -411 345 -631 459 -1075 28 -110 60 -229 70 -265 11 -36 26 -90 34 -120
24 -92 93 -323 116 -387 11 -33 22 -69 25 -80 8 -46 148 -335 229 -473 37 -64
32 -42 -8 37 -211 417 -358 916 -411 1388 -3 28 -7 61 -10 75 -12 56 -16 80
-35 185 -10 61 -21 126 -24 145 -2 19 -7 55 -11 80 -18 133 -20 440 -3 440 4
0 7 -42 8 -92 0 -51 2 -106 4 -123 2 -16 7 -66 12 -110 4 -44 8 -83 10 -87 1
-5 2 -24 3 -43 0 -19 4 -35 9 -35 4 0 7 75 8 168 0 195 9 370 18 379 3 3 6 -7
7 -23 0 -16 2 -38 4 -49 2 -11 12 -64 21 -117 9 -54 21 -98 26 -98 5 0 7 4 4
8 -3 5 -10 58 -16 118 -13 130 -22 209 -24 210 0 0 -100 43 -221 94 -359 152
-532 244 -677 363 -32 26 -58 44 -58 41z m867 -586 c-3 -8 -6 -5 -6 6 -1 11 2
17 5 13 3 -3 4 -12 1 -19z"/>
<path d="M2465 15515 c161 -241 293 -523 420 -900 43 -127 91 -247 307 -755
92 -217 121 -281 124 -277 2 1 -24 86 -57 187 -51 158 -112 358 -124 410 -14
60 -146 471 -187 580 -119 320 -353 697 -540 869 -45 41 -41 34 57 -114z"/>
<path d="M3295 15349 c-7 -10 -7 -252 -1 -284 2 -11 7 -56 12 -100 4 -44 8
-82 9 -85 5 -22 16 -82 21 -115 7 -53 75 -358 81 -368 2 -4 6 -18 9 -31 6 -37
89 -311 119 -396 35 -99 84 -230 95 -255 4 -11 34 -83 65 -160 112 -276 333
-743 449 -950 63 -112 143 -246 208 -350 93 -149 41 -86 -86 105 -115 173
-199 310 -271 445 -77 144 -185 363 -185 376 0 7 -3 9 -6 6 -9 -9 38 -119 132
-312 114 -234 244 -439 469 -740 160 -214 515 -647 524 -639 3 2 -5 14 -16 27
-95 103 -444 600 -606 862 -195 317 -434 773 -537 1025 -10 25 -34 82 -54 128
-19 46 -32 91 -29 99 4 11 2 14 -5 9 -6 -4 -10 1 -10 11 1 15 -73 237 -103
308 -16 39 -78 255 -84 292 -5 34 41 -82 95 -238 34 -99 142 -370 146 -366 2
2 -18 60 -45 128 -44 113 -131 370 -167 494 -8 28 -19 64 -24 80 -34 110 -122
497 -144 630 -3 17 -14 84 -25 150 -11 66 -23 142 -26 168 l-7 48 46 -23 c54
-26 46 -2 106 -308 23 -118 43 -222 45 -230 15 -62 67 -280 84 -345 84 -337
250 -815 389 -1119 245 -539 635 -1163 1151 -1840 165 -217 575 -731 590 -740
6 -4 11 -13 11 -19 0 -7 -13 2 -28 20 -36 41 -323 383 -342 407 -8 10 -20 23
-26 30 -31 33 -314 395 -443 565 -170 226 -288 392 -457 646 -121 181 -257
397 -281 445 -4 8 -27 48 -50 88 -24 41 -68 123 -98 183 -31 60 -58 109 -60
109 -8 0 112 -235 193 -379 278 -498 684 -1076 1121 -1596 110 -131 328 -383
377 -435 23 -25 52 -57 64 -73 12 -15 25 -25 30 -22 4 3 28 -19 51 -47 24 -29
48 -56 54 -60 5 -4 6 -8 1 -8 -22 0 -474 393 -775 675 -187 175 -550 545 -726
740 -44 48 -85 93 -90 99 -6 6 -39 45 -75 86 -36 41 -68 77 -71 80 -8 8 -211
250 -246 296 -18 23 -30 44 -26 48 3 3 0 6 -8 6 -15 0 -71 68 -108 132 -12 20
-28 38 -34 41 -27 10 -439 578 -602 830 -119 182 -185 288 -252 400 -68 114
-95 146 -41 50 207 -372 505 -836 771 -1203 156 -213 370 -493 453 -590 83
-97 145 -174 244 -305 163 -216 281 -353 421 -490 68 -66 110 -104 94 -85 -17
19 -33 37 -36 40 -22 20 -160 175 -238 265 -89 106 -59 78 78 -70 212 -228
673 -681 857 -842 12 -10 52 -45 90 -79 472 -417 982 -810 1424 -1099 139 -91
476 -295 486 -295 3 0 18 -8 32 -19 15 -10 115 -63 222 -118 444 -226 857
-384 1275 -487 128 -32 299 -67 385 -81 19 -3 60 -10 90 -15 30 -5 80 -12 110
-15 30 -4 66 -8 80 -10 14 -2 57 -7 95 -10 39 -4 84 -9 100 -11 176 -22 903
-22 1025 1 8 1 55 6 104 10 50 4 97 8 105 10 9 1 43 6 76 9 33 4 71 9 85 11
89 13 118 17 145 21 29 5 29 4 9 -10 -20 -14 -44 -21 -109 -31 -124 -18 -178
-25 -229 -31 -33 -3 -69 -8 -80 -10 -12 -2 -64 -7 -116 -10 -52 -3 -101 -7
-108 -10 -66 -21 -936 -20 -973 1 -9 6 -337 -163 -470 -242 -181 -109 -341
-225 -513 -373 -43 -36 -214 -209 -259 -260 -183 -208 -339 -454 -540 -850
-118 -233 -129 -249 -80 -115 129 352 306 670 505 909 208 248 486 482 788
663 103 62 340 183 500 257 l35 16 -35 1 c-19 0 -42 2 -50 4 -8 1 -46 6 -83 9
-37 4 -76 9 -86 11 -20 4 -111 16 -156 21 -16 1 -30 3 -30 4 0 1 -11 4 -25 6
-14 2 -83 16 -155 30 -71 14 -144 28 -161 31 -34 5 -108 -28 -274 -125 -493
-288 -824 -633 -1049 -1096 -79 -161 -141 -321 -237 -614 -48 -145 -88 -261
-89 -260 -12 12 77 374 135 549 129 389 309 687 575 954 223 224 414 359 733
521 l163 83 -37 10 c-35 10 -45 6 -153 -48 -123 -62 -274 -151 -354 -207 -26
-19 -51 -34 -56 -34 -5 0 -11 -3 -13 -7 -1 -5 -32 -30 -68 -57 -150 -114 -279
-238 -397 -381 -97 -117 -90 -108 -148 -195 -149 -225 -256 -467 -406 -920
-78 -233 -88 -247 -49 -68 124 572 330 983 658 1315 239 242 509 423 879 589
l58 26 -70 19 c-38 10 -76 16 -83 14 -7 -3 -10 0 -7 5 3 6 0 10 -8 10 -12 0
-237 71 -282 89 -11 5 -81 31 -155 59 l-135 51 -80 -20 c-97 -24 -316 -97
-330 -110 -5 -5 -15 -9 -23 -9 -23 0 -308 -142 -402 -200 -238 -148 -485 -353
-630 -526 -175 -207 -302 -417 -394 -652 -32 -82 -70 -204 -81 -263 -2 -12 -6
-23 -8 -25 -6 -6 -110 66 -165 114 -118 101 -190 180 -327 362 -88 118 -202
258 -225 278 -17 14 -20 15 69 -8 96 -25 222 -14 323 27 120 48 219 126 450
356 230 228 365 340 528 438 307 185 638 275 1080 294 30 2 60 3 65 4 6 1 -42
25 -105 54 l-115 53 -130 -2 c-116 -1 -184 -6 -295 -19 -56 -7 -114 -15 -140
-20 -13 -3 -41 -7 -61 -10 -167 -25 -466 -120 -829 -263 -444 -174 -560 -206
-755 -206 -168 -1 -315 46 -466 147 -101 68 -118 89 -34 42 92 -51 235 -101
326 -114 65 -10 276 -7 339 4 58 10 239 56 299 75 75 25 206 73 441 163 349
134 575 198 796 224 77 10 353 10 424 1 l55 -7 -123 64 c-260 136 -521 290
-761 449 -140 93 -151 98 -325 155 -152 50 -395 124 -611 187 -186 53 -660
182 -663 180 -4 -5 305 -117 463 -169 275 -89 602 -183 777 -223 43 -10 76
-20 74 -22 -5 -4 -91 11 -291 52 -273 57 -594 144 -870 238 -139 47 -386 139
-459 172 -17 8 -71 32 -121 54 -128 57 -535 258 -630 311 -240 135 -449 304
-750 606 -167 168 -179 181 -283 315 -85 109 -109 151 -45 78 21 -24 64 -70
96 -103 l59 -60 -41 58 c-81 111 -189 284 -281 447 -51 91 -117 207 -146 259
-30 51 -56 103 -58 115 -4 18 -62 148 -175 391 -86 186 -380 969 -368 982 2 2
50 -76 106 -172 390 -667 862 -1231 1441 -1721 172 -145 344 -279 610 -473
185 -136 956 -641 1195 -784 11 -7 47 -29 80 -51 131 -84 19 -1 -160 119 -104
70 -200 135 -211 144 -12 9 -30 22 -40 29 -234 158 -846 614 -1039 773 -11 9
-76 63 -145 120 -137 113 -133 110 -270 230 -223 194 -485 448 -677 655 -400
431 -713 940 -876 1424 -54 161 -106 351 -122 450 -3 19 -8 43 -11 52 -13 44
-30 179 -22 184 4 3 8 13 7 22 0 14 -2 13 -9 -3 -8 -18 -9 -17 -9 8 -1 16 3
26 7 23 5 -3 6 8 4 24 -2 17 -7 28 -11 26 -3 -2 -6 10 -6 27 -1 18 -4 50 -7
72 -4 22 -10 64 -14 93 -3 28 -11 52 -16 52 -5 0 -7 -3 -5 -7 3 -5 8 -46 11
-93 4 -47 9 -98 11 -115 2 -16 7 -64 10 -105 3 -41 10 -104 15 -140 5 -36 12
-87 15 -115 38 -296 183 -696 375 -1037 29 -51 64 -113 78 -138 14 -25 29 -52
35 -60 8 -11 8 -12 0 -5 -59 52 -257 355 -349 534 -21 41 -39 70 -42 63 -2 -6
4 -25 13 -42 9 -17 13 -36 9 -42 -5 -7 -3 -8 6 -3 10 6 12 4 7 -8 -10 -25 69
-292 179 -604 246 -701 565 -1347 1022 -2068 206 -325 491 -742 714 -1046 10
-13 36 -49 58 -79 22 -30 43 -60 47 -65 4 -6 68 -91 142 -190 294 -394 479
-517 933 -620 180 -41 189 -41 313 -14 123 26 162 40 394 139 214 91 386 149
512 175 181 37 368 47 589 31 202 -15 213 -23 35 -24 -418 -1 -644 -50 -1090
-234 -368 -151 -514 -183 -715 -152 -140 21 -358 94 -344 115 3 5 -3 6 -12 2
-11 -4 -15 -3 -11 4 5 7 0 9 -13 6 -12 -3 -22 1 -26 10 -3 9 -47 37 -97 62
-51 26 -96 50 -102 55 -5 4 -18 10 -28 13 -42 15 108 -216 213 -328 236 -252
536 -332 934 -249 103 21 269 69 383 110 54 20 121 44 148 53 28 10 106 39
174 65 249 94 474 158 596 170 60 6 60 6 -38 -24 -279 -86 -510 -217 -778
-442 -71 -60 -138 -117 -148 -126 -99 -95 -282 -249 -357 -299 -135 -92 -233
-126 -360 -127 l-91 -1 40 -60 c84 -124 267 -363 349 -455 92 -103 242 -245
434 -413 l22 -18 22 68 c28 83 109 259 152 328 57 90 351 465 365 465 2 0 2
-3 0 -7 -3 -5 -32 -51 -66 -103 -193 -303 -313 -548 -361 -736 l-20 -79 37
-33 c146 -127 342 -268 354 -254 4 5 28 96 34 132 0 3 7 27 14 53 8 26 12 50
9 52 -3 3 -15 -30 -28 -72 -12 -43 -27 -82 -33 -88 -7 -7 -8 -7 -4 0 3 6 17
69 32 140 119 589 307 987 618 1305 51 52 129 123 172 158 44 34 86 67 92 73
44 35 216 139 313 188 113 58 339 155 346 148 2 -1 -27 -16 -64 -31 -145 -62
-353 -179 -489 -276 -116 -83 -177 -134 -278 -235 -45 -44 -58 -60 -31 -35 28
25 53 47 56 50 56 56 216 173 335 245 97 59 326 178 331 172 2 -2 -20 -16 -48
-32 -79 -42 -294 -184 -400 -263 -259 -195 -429 -387 -566 -642 -51 -95 -160
-360 -177 -430 -2 -8 -18 -60 -35 -115 -17 -55 -56 -194 -86 -310 -30 -115
-57 -218 -60 -227 -4 -14 15 -23 108 -52 139 -43 177 -48 217 -29 49 24 90
107 106 218 4 22 8 47 10 55 2 8 7 31 10 50 17 101 69 275 121 404 37 94 40
77 3 -25 -27 -75 -65 -214 -75 -279 -2 -14 -6 -38 -9 -55 -2 -16 -7 -57 -10
-90 -3 -33 -7 -78 -10 -100 -2 -22 -7 -74 -10 -117 l-7 -76 94 -48 c75 -39
112 -67 191 -143 53 -53 105 -99 115 -102 21 -8 89 13 110 34 8 8 32 84 54
168 127 497 307 876 571 1200 113 139 185 213 369 376 164 145 498 361 738
477 94 45 78 34 -80 -55 -283 -160 -543 -353 -745 -554 -126 -126 -145 -146
-236 -261 -131 -163 -295 -439 -384 -644 -21 -47 -45 -103 -55 -125 -25 -58
-105 -268 -161 -428 l-49 -139 47 40 c27 23 87 79 135 126 86 83 88 86 137
208 185 464 410 797 741 1096 238 215 504 391 840 553 210 102 212 103 349
155 97 37 67 18 -58 -36 -61 -26 -179 -84 -263 -127 -377 -196 -637 -381 -894
-638 -233 -232 -362 -408 -576 -785 -37 -65 -148 -287 -148 -295 0 -22 118
125 136 169 75 184 185 378 310 546 316 424 836 784 1528 1059 99 39 184 71
190 70 6 0 -23 -14 -64 -30 -41 -16 -100 -41 -130 -56 -30 -14 -73 -32 -95
-41 -75 -29 -400 -199 -516 -269 -450 -274 -752 -563 -1026 -986 -79 -121
-185 -299 -181 -302 3 -3 285 308 366 403 23 27 50 56 145 162 58 64 384 395
480 488 36 35 76 65 88 67 20 4 19 1 -12 -33 -103 -109 -262 -320 -474 -627
-211 -306 -296 -423 -381 -525 -227 -273 -445 -431 -726 -525 -55 -18 -102
-35 -104 -38 -10 -9 152 24 234 49 237 71 446 215 655 451 46 52 202 262 275
370 315 463 428 617 601 813 86 98 94 105 138 114 l33 8 -43 -66 c-60 -93
-100 -157 -222 -356 -155 -252 -400 -617 -499 -744 -268 -343 -526 -564 -770
-660 -72 -29 -89 -34 -149 -43 -21 -3 -39 -8 -41 -12 -7 -10 130 0 184 14 3 1
21 5 40 9 56 13 160 57 235 99 105 60 207 140 332 261 197 189 335 365 703
891 187 267 347 486 453 620 37 47 98 87 113 73 2 -3 -8 -20 -22 -39 -41 -55
-221 -339 -349 -549 -237 -391 -446 -692 -589 -850 -247 -270 -525 -463 -821
-570 -49 -18 -92 -35 -95 -37 -14 -14 117 13 206 42 198 65 422 200 618 374
50 44 308 302 356 356 51 57 250 294 285 339 17 21 48 62 71 90 22 28 110 139
194 246 248 314 386 476 530 621 150 150 182 177 255 208 50 22 49 21 -70 -96
-66 -65 -145 -146 -175 -181 -111 -128 -260 -339 -401 -568 -180 -294 -332
-524 -410 -623 -211 -265 -454 -485 -729 -658 -131 -83 -140 -91 -65 -58 283
124 563 322 815 576 165 167 204 213 419 489 84 107 157 202 164 210 7 9 32
42 56 75 25 33 47 62 51 65 3 3 21 25 39 50 l33 45 -47 -50 c-41 -43 -194
-226 -301 -361 -121 -151 -172 -214 -202 -249 -163 -189 -327 -356 -457 -463
-67 -55 -56 -42 66 78 178 177 281 297 558 650 118 150 220 277 226 284 6 6
20 23 31 38 137 177 405 429 593 556 166 113 175 114 76 16 -49 -50 -119 -113
-155 -140 -61 -46 -194 -159 -250 -213 -31 -29 -15 -21 75 39 117 78 122 79
67 8 -114 -147 -250 -364 -375 -598 -267 -501 -362 -646 -537 -820 -207 -208
-505 -355 -815 -404 -72 -11 -185 -26 -240 -30 -71 -7 -452 -7 -510 -2 -22 3
-74 7 -115 11 -41 3 -100 8 -130 11 -30 3 -53 3 -50 0 12 -11 298 -52 445 -64
172 -13 528 -6 610 11 11 3 40 8 65 11 143 19 391 106 521 183 230 134 440
352 625 650 59 95 274 463 274 469 0 10 186 309 255 409 170 247 306 401 396
449 51 27 56 20 14 -19 -20 -18 -180 -219 -232 -290 -150 -207 -288 -447 -540
-945 -241 -474 -305 -584 -470 -806 -75 -101 -240 -280 -318 -344 -246 -204
-506 -335 -850 -426 -146 -39 -96 -38 79 1 610 137 1014 449 1373 1060 39 66
119 212 178 325 59 113 130 248 157 300 285 539 545 907 877 1240 82 82 84 80
6 -7 -60 -67 -193 -240 -255 -333 -118 -176 -215 -355 -305 -565 -26 -60 -53
-123 -60 -140 -19 -44 -67 -171 -125 -335 -110 -310 -154 -428 -187 -510 -117
-288 -239 -480 -435 -685 -91 -96 -132 -124 -378 -259 -87 -48 -71 -45 52 9
56 24 103 43 104 42 4 -4 -110 -89 -211 -159 -124 -86 -268 -172 -393 -235
-28 -14 -51 -28 -49 -29 14 -14 357 146 477 222 114 73 246 174 334 255 43 40
106 89 140 109 152 89 348 241 447 346 145 156 272 360 359 579 18 44 70 193
117 330 192 565 355 905 597 1245 56 79 75 104 101 134 6 6 35 41 65 76 110
130 193 206 235 217 39 10 37 7 -85 -116 -149 -150 -232 -252 -345 -421 -162
-244 -270 -469 -365 -762 -36 -108 -93 -323 -104 -393 -3 -16 -10 -55 -16 -85
-18 -88 -19 -93 -24 -140 -3 -25 -7 -54 -10 -65 -2 -11 -7 -40 -11 -65 -4 -25
-9 -52 -10 -61 -2 -9 -6 -33 -9 -53 -3 -19 -11 -57 -17 -83 -33 -147 -29 -139
-137 -263 -354 -405 -703 -708 -1152 -1002 -74 -48 -131 -88 -128 -88 4 0 76
40 161 88 387 222 728 496 1075 864 34 36 62 63 62 59 0 -12 -79 -142 -127
-210 -57 -79 -223 -248 -318 -323 -93 -73 -258 -184 -372 -248 -51 -29 -93
-55 -93 -57 0 -7 168 86 280 156 234 145 426 312 549 480 35 47 88 137 119
200 45 93 82 148 180 271 162 201 151 191 146 144 -27 -247 -70 -493 -108
-625 -9 -30 -15 -56 -14 -59 1 -3 -22 -50 -50 -106 -51 -98 -55 -103 -160
-186 -112 -89 -153 -119 -316 -230 -55 -37 -97 -68 -94 -68 10 0 269 160 351
216 43 29 74 47 70 39 -40 -70 -314 -356 -523 -545 -108 -97 -202 -188 -180
-173 21 13 254 198 271 215 8 7 53 47 99 88 47 41 126 116 177 167 50 50 111
102 134 114 153 78 335 232 438 372 41 56 131 224 131 245 0 9 73 109 90 122
10 8 113 149 169 229 28 41 51 72 51 68 0 -4 -14 -41 -31 -84 -61 -154 -167
-349 -277 -513 -24 -36 -33 -54 -19 -40 40 40 193 265 254 372 68 120 120 239
167 383 38 114 88 213 166 330 81 122 172 270 388 636 349 590 497 815 766
1164 55 72 102 132 106 135 3 3 59 68 125 144 283 331 548 591 817 804 112 88
215 171 230 184 45 39 62 52 106 81 67 44 49 23 -35 -40 -43 -31 -107 -82
-143 -111 -36 -30 -74 -61 -85 -71 -32 -25 -148 -124 -165 -141 -9 -8 -57 -51
-106 -94 -225 -200 -575 -571 -780 -826 -319 -396 -614 -871 -882 -1420 -201
-413 -407 -828 -451 -908 -306 -559 -732 -1009 -1321 -1397 -85 -56 -201 -128
-257 -160 -56 -33 -101 -61 -99 -63 8 -7 249 108 363 173 553 315 987 760
1365 1400 101 172 181 328 457 885 88 179 176 352 194 385 18 33 51 94 74 135
101 186 262 439 405 638 83 116 302 395 338 432 8 9 33 37 55 64 132 160 494
534 725 751 116 108 298 273 389 351 19 16 41 36 50 44 9 9 43 38 76 66 64 54
110 84 60 40 -81 -73 -153 -137 -172 -153 -149 -130 -542 -514 -693 -678 -140
-152 -167 -182 -220 -245 -30 -36 -57 -67 -60 -70 -21 -21 -133 -157 -215
-260 -538 -679 -914 -1351 -1142 -2038 -81 -247 -162 -575 -179 -727 -5 -46
-11 -55 -73 -115 -37 -36 -123 -114 -191 -175 -69 -60 -127 -113 -130 -116 -3
-3 -71 -60 -152 -128 -82 -68 -148 -125 -148 -127 0 -13 383 289 562 443 98
85 127 106 115 86 -3 -5 -8 -46 -12 -93 -15 -198 -9 -179 -78 -248 -34 -35
-109 -105 -167 -155 -123 -106 -147 -129 -102 -96 19 13 44 31 56 39 36 23
103 78 193 158 l83 73 0 -45 c0 -25 -3 -46 -7 -46 -5 0 -35 -26 -68 -56 -85
-79 -285 -234 -457 -354 -82 -56 -148 -104 -148 -106 0 -3 10 2 23 9 12 8 63
38 112 67 187 111 353 228 479 339 32 29 60 50 62 48 2 -1 4 -29 5 -60 3 -73
19 -86 20 -15 1 100 5 108 93 198 280 288 494 623 666 1042 57 138 62 147 176
286 64 78 118 141 120 139 1 -1 -6 -36 -17 -77 -21 -75 -73 -314 -83 -380 -3
-19 -11 -74 -17 -122 l-12 -88 -110 -102 c-134 -125 -137 -128 -137 -136 0 -5
46 34 70 58 23 24 172 151 175 148 1 -2 -1 -28 -5 -58 -8 -58 -6 -471 3 -505
3 -11 8 -49 12 -85 12 -119 20 -81 20 103 1 163 8 316 19 402 2 17 7 61 11 98
3 37 8 78 10 90 4 22 38 56 191 192 107 94 506 493 582 580 l61 70 41 -34 c56
-45 139 -72 230 -77 74 -3 221 19 250 37 11 7 8 8 -9 3 -38 -10 -180 -12 -230
-2 -87 16 -221 96 -221 133 0 6 34 57 76 111 94 122 216 298 324 469 45 72 84
132 87 135 3 3 16 -8 30 -25 14 -16 58 -65 97 -108 75 -83 132 -159 141 -187
10 -32 -133 -335 -261 -551 -94 -159 -258 -407 -326 -494 -5 -5 -53 -68 -109
-140 -55 -71 -139 -177 -187 -234 -48 -58 -98 -118 -112 -135 -14 -16 -32 -37
-40 -46 -65 -72 -61 -72 10 0 47 48 112 117 145 155 33 37 67 75 76 84 39 40
224 269 315 391 177 238 298 435 431 700 l93 184 1 -54 1 -55 14 45 c8 25 15
68 15 95 0 33 13 82 37 143 36 91 37 92 53 71 9 -12 26 -50 39 -85 74 -211
-26 -480 -333 -886 -32 -43 -56 -78 -53 -78 2 0 35 37 73 82 191 232 312 429
368 604 61 189 48 313 -46 451 l-29 41 31 99 c24 79 84 303 94 348 15 78 41
175 46 175 4 0 12 -14 19 -30 23 -57 119 -144 200 -183 93 -44 217 -74 320
-76 l35 -1 -41 -38 c-128 -118 -221 -200 -314 -278 -138 -114 -152 -129 -55
-59 104 75 246 188 365 291 l95 82 70 1 c39 1 84 3 100 5 17 2 62 7 100 11 55
5 222 34 290 49 6 2 31 6 58 11 26 4 50 12 54 18 3 5 2 7 -4 4 -8 -5 -122 -22
-283 -42 -57 -7 -313 -14 -321 -9 -4 2 38 49 92 105 283 289 451 568 508 843
35 167 18 396 -43 590 l-22 71 70 47 c39 26 71 46 72 45 1 -1 -4 -39 -10 -85
-37 -249 38 -409 268 -565 160 -108 426 -195 686 -222 30 -4 64 -9 75 -11 55
-13 -18 16 -90 36 -522 144 -821 350 -864 595 -10 56 -8 177 4 235 3 14 8 39
11 55 4 19 20 41 47 62 23 18 60 48 82 67 22 20 43 36 46 36 3 0 16 -24 30
-52 13 -29 49 -85 80 -124 122 -154 301 -229 524 -219 55 2 114 7 130 10 133
25 304 85 437 151 153 77 394 235 553 363 28 23 53 41 58 41 14 0 100 -126
132 -195 41 -87 59 -132 84 -215 16 -54 19 -58 16 -25 -15 158 -64 318 -129
420 -20 31 -37 59 -39 63 -1 4 43 48 98 97 55 50 132 122 170 160 60 60 58 60
-10 0 -96 -83 -137 -118 -161 -137 -16 -12 -35 -28 -42 -35 -8 -8 -29 -25 -47
-39 l-34 -26 -28 26 c-42 40 -133 84 -207 101 -62 14 -238 21 -311 11 -16 -2
-57 -7 -90 -10 -33 -4 -98 -13 -145 -21 -47 -8 -101 -16 -120 -19 -64 -9 -125
-17 -160 -21 -51 -6 -281 -6 -310 0 -14 3 -41 8 -60 11 -19 4 -45 12 -57 18
-21 11 -20 13 39 76 338 363 510 503 703 572 66 24 165 44 192 40 6 -2 15 3
19 9 10 17 -160 2 -247 -22 -220 -61 -383 -192 -756 -607 l-29 -33 -39 38
c-21 20 -47 56 -57 81 -26 59 -32 192 -12 297 29 156 133 430 248 655 l54 105
158 89 c392 219 775 400 1189 563 276 108 369 159 416 225 20 27 20 30 4 55
-17 25 -19 26 -104 20 -106 -7 -241 -52 -496 -167 -27 -12 -66 -29 -85 -37
-59 -26 -399 -196 -505 -253 -124 -66 -319 -178 -491 -281 -72 -43 -138 -81
-147 -85 -25 -9 -189 170 -256 280 -108 180 -81 326 93 500 99 100 106 105
291 246 167 126 285 222 359 290 233 212 376 420 447 650 12 41 28 80 33 86
11 12 121 47 246 79 83 22 88 23 195 39 140 22 180 26 324 32 74 2 137 7 140
10 7 6 -349 -4 -404 -12 -55 -8 -204 -32 -240 -39 -16 -3 -70 -18 -120 -32
-49 -14 -101 -26 -115 -27 -14 0 -29 -6 -35 -12 -5 -7 -28 -17 -50 -24 -149
-47 -416 -193 -595 -326 -132 -98 -364 -329 -458 -455 -241 -325 -366 -647
-357 -924 2 -55 6 -111 9 -124 39 -169 138 -282 289 -331 l39 -12 -32 -20 -32
-19 -99 41 c-168 71 -226 120 -254 213 -13 44 -13 182 1 237 3 14 7 88 9 165
4 136 3 144 -35 290 -32 123 -38 164 -36 225 2 41 6 82 8 90 3 8 10 34 16 56
31 109 203 396 371 619 95 126 280 354 321 395 3 3 23 25 44 50 68 78 208 232
296 324 172 181 194 209 71 91 -559 -538 -933 -998 -1117 -1370 -112 -228
-124 -329 -58 -515 34 -95 37 -115 38 -210 0 -58 -3 -130 -7 -160 -15 -126
-19 -306 -8 -346 23 -87 127 -166 286 -218 121 -40 72 -43 -150 -10 -109 16
-278 77 -435 158 l-85 43 0 59 c0 73 6 109 34 204 21 70 110 326 131 378 11
25 79 255 86 287 2 11 6 31 9 45 29 137 35 181 35 265 1 195 -96 280 -310 271
l-89 -4 112 107 c62 59 143 137 181 172 39 35 82 75 97 89 15 14 58 52 95 85
106 94 146 133 74 74 -190 -157 -349 -297 -540 -477 -58 -55 -72 -63 -135 -77
-148 -34 -487 -157 -685 -248 -74 -35 -57 -34 32 2 86 34 252 90 358 121 41
12 86 26 100 31 14 5 36 12 50 14 14 3 51 11 83 19 l58 14 -23 -26 c-13 -13
-52 -55 -88 -92 -227 -232 -353 -384 -482 -575 -77 -114 -187 -322 -188 -355
-1 -23 -12 0 -101 206 l-80 187 36 80 c43 94 75 212 75 276 -1 57 -28 138 -60
178 -51 63 -189 130 -305 148 -32 4 -27 1 30 -21 147 -56 240 -138 264 -233 8
-29 8 -146 1 -146 -1 0 -3 -10 -6 -23 -6 -35 -53 -165 -63 -175 -5 -5 -24 20
-44 55 -128 229 -346 455 -611 631 -112 76 -426 261 -431 255 -2 -2 79 -60
179 -130 223 -157 364 -269 479 -383 94 -93 193 -212 234 -283 l26 -44 -18
-56 c-23 -74 -86 -205 -177 -368 l-74 -131 -100 66 c-56 37 -172 106 -257 155
l-157 88 53 76 c87 127 294 319 405 376 17 9 32 19 32 21 0 8 -79 -34 -155
-82 -122 -79 -253 -200 -337 -315 l-41 -56 -87 43 c-110 55 -219 106 -345 160
-55 23 -120 52 -145 63 -25 11 -62 28 -83 36 l-37 15 5 63 c4 53 17 157 41
328 4 30 14 82 28 155 3 11 9 40 15 65 13 56 13 73 0 40 -39 -97 -119 -408
-134 -520 -9 -74 -16 -100 -25 -100 -5 0 -66 25 -136 55 -70 31 -128 54 -130
53 -1 -2 59 -35 134 -74 75 -39 136 -76 135 -82 -8 -35 -16 -207 -17 -327 0
-175 13 -334 38 -456 7 -32 11 -59 8 -59 -9 0 -167 133 -171 144 -18 54 -101
257 -132 322 -134 279 -313 495 -515 618 -60 36 -62 39 -59 74 10 110 16 170
20 192 3 14 7 45 10 70 3 25 7 61 10 80 6 51 -42 -138 -65 -253 -11 -54 -20
-100 -20 -102 0 -2 -25 7 -56 21 -65 29 -203 70 -265 79 -24 4 -46 8 -49 10
-4 2 -40 6 -81 10 l-74 5 75 -20 c119 -32 289 -90 368 -126 63 -29 72 -36 72
-60 0 -21 -3 -25 -17 -19 -73 29 -145 55 -156 55 -6 0 28 -19 76 -43 l88 -42
-5 -60 c-3 -33 -9 -103 -12 -155 -3 -52 -7 -96 -8 -98 -2 -1 -63 29 -137 67
-74 38 -178 88 -232 111 -108 46 -325 125 -315 115 3 -4 57 -30 120 -59 146
-67 271 -133 436 -230 l132 -78 1 -81 c1 -45 3 -101 5 -124 4 -47 -1 -52 -25
-25 -24 26 -147 123 -216 169 -86 58 -196 119 -279 154 -39 17 -84 37 -101 45
-161 72 -528 158 -760 179 -63 5 -41 -2 140 -46 542 -131 947 -334 1201 -600
60 -64 60 -65 73 -149 55 -372 216 -761 438 -1058 248 -332 538 -527 911 -614
70 -16 152 -35 183 -42 55 -13 517 -16 564 -3 11 2 47 8 80 12 33 3 103 15
155 25 95 19 128 23 250 35 74 7 298 38 412 58 42 7 75 10 72 5 -8 -12 -218
-72 -364 -103 -8 -2 -35 -8 -60 -14 -50 -11 -85 -17 -145 -26 -22 -3 -65 -10
-95 -15 -52 -9 -116 -16 -220 -25 -64 -6 -319 -7 -328 -2 -4 3 -38 8 -76 11
-38 3 -80 9 -95 13 -14 3 -24 3 -21 0 6 -7 154 -46 200 -53 19 -3 41 -7 48 -9
54 -19 402 -26 557 -12 96 8 272 34 288 43 7 3 -1 -6 -18 -20 -16 -14 -52 -30
-80 -36 -66 -15 -286 -48 -355 -55 -30 -2 -82 -8 -115 -11 -72 -8 -374 -8
-430 0 -22 3 -62 8 -90 11 -53 5 -57 6 -180 31 -181 36 -405 129 -557 231
-230 152 -381 313 -738 788 -79 105 -178 233 -220 286 -60 73 -86 116 -114
186 -46 115 -95 203 -165 297 -55 73 -171 203 -171 191 0 -3 22 -33 49 -68 71
-90 123 -174 170 -274 23 -48 47 -97 53 -108 5 -11 -30 19 -78 67 -122 118
-147 140 -239 210 -44 33 -102 84 -130 113 -111 117 -293 198 -490 219 l-50 6
62 -18 c120 -36 213 -74 206 -85 -3 -5 -1 -7 5 -3 6 3 13 2 17 -4 4 -6 12 -7
18 -3 7 4 5 -2 -3 -12 -14 -17 -14 -18 7 -6 18 9 22 9 18 -1 -3 -8 24 -30 70
-56 88 -50 148 -119 189 -219 15 -36 25 -67 24 -69 -2 -1 -37 18 -78 43 -41
25 -116 65 -166 89 -65 31 -99 54 -120 81 -46 60 -166 173 -253 238 -79 59
-93 75 -68 75 7 0 22 7 33 14 16 13 13 13 -25 0 -41 -14 -45 -14 -75 9 -37 27
-143 94 -206 129 -201 112 -201 111 -5 -30 171 -124 191 -140 185 -144 -3 -2
-36 -17 -75 -33 -75 -31 -225 -111 -290 -155 -58 -39 -60 -39 -74 -31 -9 6 4
18 43 40 31 18 56 35 56 38 0 3 -25 -9 -55 -26 -30 -17 -59 -31 -64 -31 -6 0
-50 21 -98 48 -48 26 -126 65 -173 86 -89 41 -330 129 -336 123 -2 -2 33 -18
79 -36 116 -47 307 -141 406 -199 l84 -50 -43 -31 c-24 -17 -46 -31 -49 -31
-3 0 -24 17 -46 38 -91 86 -239 188 -382 263 -57 30 -79 46 -70 52 8 6 6 7 -6
3 -10 -3 -46 6 -80 20 -92 39 -249 95 -254 91 -2 -2 18 -12 44 -22 235 -89
525 -265 694 -423 l60 -55 -73 -72 -73 -72 -44 61 c-249 344 -560 563 -1040
735 -100 36 -96 25 4 -14 99 -38 298 -137 378 -187 191 -121 346 -260 482
-433 61 -78 155 -219 155 -232 0 -10 -64 -102 -71 -103 -12 0 -50 82 -45 95 2
7 -1 12 -8 11 -7 0 -40 40 -74 89 -319 473 -824 796 -1547 988 -195 52 -316
79 -322 73 -4 -3 -2 -6 3 -7 35 -3 271 -69 410 -115 371 -122 708 -297 955
-494 77 -61 211 -191 284 -275 53 -61 165 -210 165 -219 0 -3 14 -25 30 -49
16 -25 30 -50 30 -56 0 -6 -23 -42 -50 -80 -143 -197 -255 -544 -289 -896 -9
-94 -7 -404 4 -490 30 -242 108 -502 200 -665 19 -33 32 -60 30 -60 -7 0 -80
112 -117 180 -70 128 -141 358 -162 520 -3 25 -8 63 -11 85 -16 116 -22 268
-30 700 -3 154 -7 305 -10 335 -16 175 -16 176 -41 303 -27 143 -90 290 -169
402 -40 57 -149 170 -179 187 -7 4 21 -43 62 -105 116 -174 193 -348 236 -537
39 -167 42 -240 33 -735 -2 -95 5 -205 18 -295 2 -14 6 -54 10 -90 4 -36 8
-76 10 -90 2 -14 6 -47 10 -75 12 -105 16 -132 31 -210 34 -181 74 -310 126
-410 106 -205 337 -395 605 -498 78 -30 88 -37 136 -97 60 -77 118 -140 209
-228 38 -36 66 -67 64 -69 -7 -7 -256 37 -356 62 -229 58 -454 156 -618 268
-105 72 -257 203 -387 333 -373 376 -503 871 -391 1494 3 14 7 41 10 60 7 43
14 80 26 145 5 28 12 75 14 105 14 146 27 289 31 325 3 22 8 63 10 90 3 28 7
66 10 85 2 19 6 60 9 90 3 30 8 66 11 80 3 14 6 75 7 135 1 70 4 99 8 80 l8
-30 1 35 c1 19 4 54 7 76 5 39 3 43 -29 63 -19 11 -37 21 -40 21 -3 0 1 -26 8
-57 9 -38 12 -105 10 -193 -3 -156 -11 -214 -60 -465 -33 -165 -34 -171 -46
-225 -14 -62 -47 -244 -55 -305 -3 -27 -8 -57 -9 -66 -19 -99 -27 -465 -13
-599 24 -242 124 -528 254 -726 24 -38 33 -55 18 -39 -51 58 -155 225 -199
317 -77 165 -119 315 -142 513 -12 106 -6 397 12 545 9 76 27 214 30 230 1 8
6 40 10 70 4 30 9 64 11 75 6 30 31 195 48 315 3 19 10 67 15 105 20 133 23
229 11 295 -41 230 -241 416 -580 543 -111 41 -276 85 -339 89 l-43 3 -19 -70
c-24 -89 -106 -457 -114 -510 -3 -22 -10 -65 -15 -95 -5 -30 -12 -77 -15 -105
-3 -27 -8 -81 -12 -120 -5 -38 -8 -167 -7 -285 0 -177 5 -237 23 -340 12 -69
24 -129 25 -135 2 -5 6 -23 10 -40 64 -257 170 -513 415 -1004 61 -121 109
-221 107 -221 -6 0 -139 207 -199 310 -68 118 -157 289 -203 395 -20 44 -44
98 -54 120 -65 148 -166 478 -194 635 -2 14 -9 52 -15 85 -6 33 -13 74 -16 90
-3 17 -7 59 -11 95 -3 36 -8 76 -11 90 -9 42 -11 479 -2 580 4 52 11 131 14
175 4 44 8 91 10 105 2 14 6 59 10 100 3 41 8 91 10 110 20 180 23 423 5 550
-6 47 -14 87 -16 89 -2 2 -4 -29 -5 -70 0 -41 -2 -90 -4 -109 -18 -192 -21
-210 -40 -315 -20 -109 -18 -96 -68 -310 -99 -414 -116 -548 -111 -855 2 -102
5 -194 7 -205 3 -11 8 -51 12 -88 3 -37 8 -76 10 -87 2 -10 7 -40 11 -67 3
-26 8 -57 10 -68 2 -11 7 -33 10 -50 3 -16 14 -70 25 -120 10 -49 19 -96 18
-105 -1 -14 -42 142 -54 204 -3 16 -8 32 -10 36 -6 9 -53 285 -60 348 -16 149
-20 229 -20 437 0 201 10 398 20 415 2 3 6 32 9 65 4 33 9 67 11 75 2 8 7 31
10 50 4 30 17 98 40 215 3 17 11 50 16 75 6 25 13 56 15 70 3 14 9 50 15 80
29 164 31 305 5 374 -42 109 -263 253 -561 364 -130 49 -395 135 -400 130 -2
-2 24 -39 57 -83 73 -97 157 -217 178 -253 9 -15 39 -67 68 -116 109 -183 207
-399 261 -574 48 -153 95 -369 107 -487 2 -22 6 -56 9 -75 2 -19 7 -66 10
-105 3 -38 8 -90 10 -115 3 -25 7 -83 10 -130 7 -111 18 -227 36 -365 6 -44
13 -98 15 -120 3 -22 7 -46 10 -54 3 -8 7 -30 10 -50 8 -55 61 -264 90 -360
63 -203 197 -501 309 -686 243 -402 514 -721 980 -1158 l60 -56 -90 34 c-135
53 -142 57 -286 166 -217 165 -359 290 -554 489 -118 120 -136 140 -249 280
-410 508 -659 1056 -801 1757 -14 67 -25 132 -25 144 0 12 -3 20 -6 16 -6 -6
12 -166 31 -267 3 -14 7 -41 10 -60 47 -290 207 -729 367 -1009 26 -46 48 -85
48 -87 0 -8 159 -254 170 -264 4 -3 22 -27 40 -55 30 -45 148 -198 192 -250
120 -142 200 -228 378 -405 161 -161 173 -174 90 -105 -200 167 -433 402 -566
570 -21 28 -41 52 -44 55 -7 7 -61 79 -80 106 -161 232 -238 361 -332 554 -36
74 -69 145 -73 158 -4 13 -9 22 -11 19 -2 -2 14 -55 36 -117 22 -62 39 -114
37 -116 -8 -9 -146 363 -231 626 -51 155 -168 576 -182 653 -2 16 -13 66 -24
110 -17 75 -60 293 -75 377 -3 19 -15 85 -25 145 -20 117 -28 168 -36 225 -2
19 -6 46 -9 60 -3 14 -7 43 -11 65 -8 62 -14 98 -19 125 -2 14 -6 41 -9 60 -4
30 -30 158 -56 280 -4 19 -23 84 -44 144 -104 309 -275 510 -571 671 -93 50
-255 119 -262 111 -25 -25 -23 -851 2 -1008 2 -13 6 -50 10 -83 6 -58 30 -214
40 -265 3 -14 8 -38 11 -55 3 -16 14 -70 25 -120 11 -49 22 -99 24 -110 3 -11
14 -58 26 -105 11 -47 22 -92 24 -100 2 -8 15 -59 30 -113 15 -54 25 -101 23
-103 -6 -5 -109 320 -147 461 -32 122 -77 318 -86 380 -3 23 -8 52 -10 65 -3
14 -8 45 -11 70 -3 25 -7 55 -9 67 -2 12 -6 55 -9 95 -4 40 -9 100 -12 133 -6
73 -5 532 1 706 l4 127 -102 79 c-56 44 -154 117 -217 161 -63 45 -120 86
-127 91 -7 6 -14 11 -16 11 -2 0 -44 26 -93 58 -231 152 -557 329 -834 454
-274 124 -400 176 -405 167z m395 -218 c80 -47 164 -95 187 -107 49 -26 198
-128 338 -232 463 -346 644 -599 769 -1072 19 -73 114 -521 140 -663 22 -121
81 -395 117 -547 82 -344 227 -737 403 -1088 66 -134 161 -307 180 -331 8 -11
8 -13 0 -8 -10 6 -60 85 -155 245 -56 96 -90 158 -173 327 -52 105 -115 238
-140 297 -53 124 -160 438 -177 516 -6 29 -13 51 -16 49 -7 -7 49 -233 86
-348 53 -163 111 -297 256 -584 299 -591 654 -1077 1140 -1559 140 -139 145
-147 85 -106 -183 122 -584 415 -621 453 -383 394 -741 833 -1132 1389 -768
1092 -1299 2249 -1501 3268 -19 96 -37 192 -40 213 l-6 39 57 -33 c32 -18 123
-71 203 -118z m1586 -924 c78 -41 209 -143 264 -203 163 -181 261 -381 345
-710 32 -125 38 -148 50 -219 3 -16 10 -46 15 -65 5 -19 12 -53 15 -75 3 -22
10 -62 16 -90 6 -27 13 -65 15 -84 3 -19 9 -53 14 -78 6 -24 13 -60 16 -81 5
-34 22 -113 70 -337 9 -44 21 -84 26 -90 6 -6 7 -4 4 5 -5 14 -88 504 -100
595 -3 22 -8 51 -11 65 -3 14 -8 43 -11 65 -3 22 -10 64 -15 93 -6 29 -12 65
-14 80 -2 15 -13 72 -25 127 -12 55 -23 109 -25 120 -4 30 -43 192 -60 255
-35 129 1 51 60 -130 55 -169 123 -432 150 -579 3 -15 7 -37 10 -51 3 -14 18
-97 34 -185 37 -199 36 -192 55 -295 8 -47 18 -101 21 -120 39 -239 134 -642
207 -880 241 -791 553 -1286 1184 -1880 38 -36 86 -80 107 -98 21 -17 35 -32
31 -32 -14 0 -264 136 -431 233 -249 146 -267 159 -438 311 -118 104 -350 337
-449 451 -97 112 -260 328 -348 461 -177 268 -321 546 -463 894 -91 224 -313
923 -302 954 2 6 9 -13 17 -42 18 -79 180 -558 235 -697 105 -268 253 -572
390 -801 85 -142 165 -264 171 -264 3 0 -11 28 -30 63 -274 494 -470 935 -632
1422 -148 448 -191 628 -228 953 -7 64 -16 307 -21 572 -4 221 -12 380 -20
407 -5 15 8 10 101 -40z m12540 -589 c-62 -198 -198 -401 -397 -594 -106 -101
-213 -190 -404 -335 -374 -282 -491 -402 -533 -545 -19 -64 -14 -161 11 -235
34 -101 84 -175 185 -277 87 -87 92 -95 75 -107 -24 -19 -22 -19 -77 15 -165
105 -249 287 -241 519 4 101 6 118 32 221 106 437 501 918 983 1196 108 62
325 168 377 183 1 1 -4 -18 -11 -41z m-1917 -563 c53 -17 93 -51 118 -98 20
-39 26 -154 12 -234 -6 -32 -12 -71 -15 -88 -21 -122 -92 -350 -179 -570 -60
-154 -103 -283 -111 -335 -4 -22 -9 -40 -11 -40 -2 0 -35 17 -71 39 -102 59
-206 109 -301 146 -77 29 -121 41 -226 60 -42 8 -232 8 -245 0 -30 -18 14 107
90 253 106 208 300 464 545 721 44 47 96 101 115 122 l35 36 98 2 c67 1 114
-3 146 -14z m-8623 -182 c-2 -10 -7 -49 -11 -86 -3 -37 -8 -76 -9 -85 -2 -9
-7 -44 -10 -77 -14 -121 -18 -151 -21 -175 -2 -14 -9 -72 -15 -130 -6 -58 -12
-118 -15 -135 -3 -27 -15 -171 -20 -250 -1 -16 -3 -99 -4 -184 0 -85 -3 -152
-6 -149 -7 6 -6 346 0 443 6 89 15 191 19 230 2 17 7 64 11 105 4 41 8 82 10
90 1 8 6 40 10 70 9 72 11 87 30 205 20 125 24 145 31 145 3 0 3 -8 0 -17z
m4839 -68 c144 -107 251 -239 355 -437 43 -82 140 -306 140 -323 0 -3 -25 13
-55 37 -53 41 -59 50 -114 179 -115 271 -216 416 -361 517 -75 53 -91 69 -83
88 7 18 26 8 118 -61z m-66 -49 c94 -70 186 -187 255 -323 38 -76 99 -224 94
-228 -2 -2 -46 28 -98 66 -52 38 -143 99 -202 136 l-108 67 0 158 c0 87 3 158
6 158 4 0 27 -15 53 -34z m-4353 -112 c495 -226 651 -345 700 -534 19 -77 15
-254 -10 -440 -9 -63 -18 -140 -21 -170 -2 -30 -7 -73 -10 -95 -18 -142 -28
-330 -28 -516 1 -154 4 -220 18 -344 2 -16 7 -57 10 -89 3 -33 8 -63 11 -67 2
-4 6 -24 10 -45 12 -74 55 -226 90 -317 147 -382 386 -665 778 -925 220 -146
561 -310 791 -379 l110 -33 -120 5 c-66 4 -133 8 -150 10 -16 2 -61 7 -100 10
-38 3 -83 7 -100 9 -16 2 -58 7 -93 11 -64 7 -181 41 -305 88 -76 29 -82 23
-12 -13 86 -44 35 -33 -62 15 -970 469 -1573 1097 -1845 1920 -45 134 -87 297
-102 395 -3 19 -8 45 -10 57 -9 44 -36 289 -41 373 -12 201 -2 556 20 715 3
17 7 55 10 85 3 30 7 71 10 90 2 19 7 56 11 83 3 26 9 47 14 47 4 0 4 -19 0
-42 -15 -86 -34 -442 -34 -653 0 -141 9 -344 20 -445 6 -61 24 -192 28 -217 3
-11 7 -38 10 -59 14 -86 20 -114 48 -224 133 -512 366 -918 748 -1301 162
-162 198 -192 107 -87 -139 161 -254 332 -357 533 -49 97 -73 149 -124 270
-45 105 -111 330 -144 485 -18 83 -26 124 -47 255 -3 17 -7 57 -11 90 -3 33
-7 66 -10 73 -25 80 -25 642 1 862 16 133 29 207 38 218 7 9 7 16 1 20 -5 4
-7 20 -3 37 l7 30 2 -30 c2 -28 3 -27 10 10 4 22 11 58 14 79 4 22 13 71 21
110 8 39 15 72 15 74 0 5 9 1 86 -34z m-424 -36 c-8 -8 -9 -4 -5 13 4 13 8 18
11 10 2 -7 -1 -18 -6 -23z m5976 -129 c174 -88 321 -164 325 -169 5 -4 0 -25
-11 -47 -68 -133 -82 -267 -38 -358 61 -123 197 -178 455 -184 37 -1 42 -3 36
-18 -78 -186 -110 -388 -84 -527 5 -27 7 -51 5 -54 -7 -7 -250 117 -366 188
-153 92 -387 259 -526 376 -50 42 -51 44 -72 141 -22 100 -27 131 -38 218 -3
28 -8 61 -11 75 -7 37 -13 488 -7 505 4 8 8 15 11 15 2 0 147 -72 321 -161z
m1286 -80 l18 -46 -112 -222 c-101 -201 -113 -221 -128 -209 -10 8 -33 28 -53
44 l-36 31 25 44 c13 24 58 110 98 190 62 124 85 181 121 298 4 15 34 -43 67
-130z m-2433 -75 c129 -91 321 -238 340 -261 13 -14 86 -214 95 -258 6 -30
142 -394 185 -494 233 -542 558 -852 1004 -956 93 -22 105 -25 138 -27 15 -1
27 -6 27 -11 0 -7 -247 -1 -310 8 -14 2 -47 6 -74 9 -27 4 -59 9 -70 11 -12 3
-33 7 -48 10 -67 12 -85 17 -118 33 -59 28 -220 154 -330 258 -81 77 -96 88
-66 49 22 -27 88 -98 148 -157 60 -60 106 -108 103 -108 -4 0 -45 18 -93 41
-394 186 -710 575 -889 1094 -24 71 -93 333 -93 356 0 22 86 -110 246 -376
193 -322 169 -284 234 -385 55 -85 174 -256 194 -276 6 -6 22 -26 36 -44 58
-79 76 -89 27 -15 -100 148 -147 229 -270 465 -243 468 -355 654 -468 775 -28
30 -33 49 -44 170 -12 123 -13 155 -5 155 4 0 50 -30 101 -66z m-1409 -100
c75 -62 218 -196 218 -206 0 -3 -30 6 -67 19 -87 31 -266 83 -284 82 -8 0 -3
-4 11 -9 80 -27 199 -73 293 -115 117 -52 132 -66 192 -184 27 -54 68 -204 80
-291 3 -25 8 -52 10 -60 5 -17 13 -72 20 -150 3 -30 8 -66 10 -80 2 -14 7 -59
10 -100 3 -41 8 -100 10 -130 3 -30 7 -89 10 -130 10 -150 28 -326 41 -402 2
-16 6 -43 9 -60 65 -406 230 -702 515 -927 97 -77 196 -143 289 -192 l64 -34
-50 -9 c-48 -8 -53 -7 -119 35 -428 267 -716 692 -858 1266 -13 54 -31 141
-40 193 -9 52 -18 106 -21 120 -3 14 -8 41 -11 60 -11 72 -53 238 -77 301 -75
198 -184 340 -356 464 -27 19 -66 57 -87 83 -57 70 -170 177 -241 229 l-62 46
37 27 c97 70 347 210 376 210 5 0 40 -25 78 -56z m3131 -59 c106 -63 264 -172
300 -205 5 -4 -8 -41 -29 -82 l-37 -75 -99 3 c-54 1 -124 8 -156 15 -148 30
-232 119 -232 244 0 44 25 147 46 188 l15 28 32 -19 c18 -10 90 -54 160 -97z
m790 30 c14 -38 44 -114 66 -168 23 -54 39 -102 37 -106 -3 -5 -40 -14 -83
-21 -43 -8 -82 -15 -88 -16 -5 -2 -23 -6 -40 -9 -16 -3 -37 -8 -45 -10 -39
-11 -80 -14 -80 -7 0 32 191 426 201 415 4 -4 18 -39 32 -78z m-7456 3 c-3 -7
-5 -2 -5 12 0 14 2 19 5 13 2 -7 2 -19 0 -25z m-14 -160 c-14 -241 -6 -817 12
-848 1 -3 6 -32 9 -65 19 -172 86 -426 161 -615 104 -263 269 -530 465 -754
143 -163 355 -370 529 -516 30 -25 73 -61 95 -80 23 -19 97 -77 164 -129 67
-52 121 -96 119 -97 -8 -9 -136 40 -166 64 -189 143 -528 464 -692 652 -277
318 -464 637 -582 992 -43 127 -89 312 -102 408 -3 25 -10 72 -15 105 -30 193
-32 692 -5 905 2 14 4 44 4 68 1 23 3 42 7 42 3 0 1 -60 -3 -132z m2991 3 c3
-5 -15 -26 -40 -46 -35 -29 -48 -35 -57 -26 -9 9 -2 20 28 46 41 35 60 42 69
26z m98 -73 c29 -23 85 -72 123 -110 l70 -68 -75 33 c-41 19 -115 49 -165 67
-49 18 -94 36 -98 40 -8 7 66 80 82 80 5 0 33 -19 63 -42z m2411 -68 c20 -18
37 -39 37 -46 0 -25 124 -323 195 -469 159 -324 355 -581 570 -743 98 -74 269
-156 400 -192 91 -24 100 -29 55 -24 -210 21 -448 109 -605 224 -88 64 -233
213 -297 305 -116 167 -177 295 -299 623 -44 119 -94 252 -110 295 -35 95 -36
107 -6 80 12 -11 39 -35 60 -53z m-2638 29 c4 -5 -15 -33 -42 -62 -27 -29 -59
-65 -72 -82 -22 -29 -23 -29 -37 -11 -15 21 -19 14 91 133 31 33 49 40 60 22z
m1534 -135 c163 -156 249 -262 271 -332 10 -31 17 -58 16 -59 -1 -1 -43 37
-93 85 -112 108 -134 127 -205 181 -50 37 -59 50 -73 98 -9 31 -27 78 -40 104
-21 44 -21 48 -5 39 10 -6 68 -58 129 -116z m-1352 82 c93 -40 215 -99 260
-127 58 -36 168 -223 227 -387 26 -72 67 -231 100 -387 85 -400 246 -852 411
-1161 109 -203 225 -362 382 -525 l84 -86 -63 -2 -63 -2 -95 93 c-270 264
-451 572 -632 1071 -22 62 -82 240 -134 396 -187 562 -320 844 -505 1071 -49
60 -63 80 -55 80 2 0 40 -15 83 -34z m4070 -47 c-7 -4 -35 -9 -64 -12 l-52 -5
10 26 c5 15 14 37 21 49 11 22 11 22 53 -15 27 -23 39 -39 32 -43z m-4112 -79
c156 -220 256 -471 395 -990 136 -509 206 -714 323 -948 70 -141 131 -238 218
-353 68 -90 63 -84 159 -183 l75 -77 -84 2 -84 2 -92 92 c-212 213 -391 488
-538 825 -74 170 -139 346 -267 720 -131 385 -201 564 -290 738 l-67 133 25
37 c13 20 45 61 70 91 l46 54 29 -34 c16 -19 52 -68 82 -109z m1072 57 c32
-29 128 -175 173 -264 l39 -75 -6 -246 c-14 -614 -7 -759 42 -952 85 -338 291
-573 655 -747 168 -81 345 -136 505 -159 48 -6 49 -7 20 -15 -25 -8 -144 -32
-332 -68 -39 -8 -51 -4 -165 53 -414 207 -641 489 -753 935 -24 97 -60 288
-70 371 -3 25 -7 56 -10 70 -2 14 -7 52 -10 85 -5 51 -26 246 -40 365 -6 54
-17 133 -20 150 -2 8 -8 51 -15 95 -7 44 -14 89 -16 100 -2 11 -7 34 -10 50
-16 92 -47 202 -73 260 l-30 67 47 -28 c26 -14 57 -36 69 -47z m-6836 36 c13
-16 12 -17 -3 -4 -10 7 -18 15 -18 17 0 8 8 3 21 -13z m10764 -33 c90 -28 204
-85 385 -193 80 -47 153 -89 163 -93 10 -4 30 -31 43 -61 29 -63 77 -119 146
-169 27 -20 48 -38 46 -39 -4 -4 -186 30 -269 49 -243 57 -445 162 -589 306
-65 65 -170 204 -170 225 0 14 176 -4 245 -25z m-382 -87 c-1 -67 4 -129 13
-163 21 -81 76 -186 135 -259 l52 -65 -49 29 c-120 69 -189 139 -304 306 -43
64 -95 135 -115 159 -20 23 -33 45 -30 49 9 8 210 46 260 49 l40 3 -2 -108z
m-3400 -2 c37 -26 40 -32 52 -101 6 -41 7 -42 -81 75 -71 94 -71 95 29 26z
m1510 -14 c31 -27 57 -53 57 -58 0 -6 16 -54 36 -107 188 -507 534 -838 1000
-956 55 -14 115 -27 134 -30 19 -3 44 -8 56 -10 109 -22 543 -24 624 -1 8 2
40 6 71 10 31 3 65 7 75 9 126 24 205 39 234 42 19 3 77 11 129 20 93 14 137
14 64 -1 -52 -11 -53 -11 -98 -23 -22 -6 -52 -13 -68 -16 -15 -3 -35 -7 -45
-10 -9 -3 -28 -7 -42 -10 -14 -2 -65 -13 -115 -25 -49 -11 -103 -22 -120 -25
-100 -17 -288 -47 -340 -53 -80 -10 -415 -10 -488 0 -155 22 -350 101 -496
201 -79 54 -221 188 -286 271 -22 28 -43 52 -46 55 -15 14 -163 246 -207 325
-116 212 -250 518 -199 455 7 -8 38 -37 70 -63z m1374 -9 c-50 -135 -57 -314
-17 -421 30 -80 102 -171 185 -234 73 -55 222 -135 297 -158 24 -8 35 -14 25
-14 -23 -1 -281 61 -377 90 -38 11 -71 20 -72 20 -2 0 -43 15 -93 33 -55 21
-97 43 -107 57 -59 79 -82 260 -54 413 22 116 64 246 79 246 33 1 133 13 136
16 13 12 12 -11 -2 -48z m248 -159 c103 -154 177 -242 245 -292 82 -59 255
-131 385 -159 28 -6 93 -32 145 -58 120 -60 198 -94 320 -139 l55 -20 -90 -1
c-130 -2 -315 1 -350 5 -16 2 -57 6 -90 9 -193 21 -333 57 -482 126 -165 77
-261 161 -316 278 -30 63 -32 74 -31 172 1 98 16 193 44 265 l12 30 24 -30
c14 -16 72 -100 129 -186z m521 -26 c185 -163 439 -276 739 -327 17 -3 44 -7
60 -10 58 -10 211 -25 273 -27 34 -1 62 -4 62 -6 0 -1 -25 -19 -55 -39 l-55
-37 -163 7 c-89 4 -175 8 -192 10 -16 2 -61 7 -100 10 -38 4 -83 9 -100 11
-16 3 -48 7 -70 10 -147 20 -197 39 -295 112 -177 133 -289 314 -290 466 l0
38 61 -80 c33 -45 89 -107 125 -138z m-5216 177 c9 -16 5 -31 -22 -80 -18 -33
-36 -60 -39 -60 -3 0 -10 10 -16 22 -8 19 -4 33 26 80 20 32 37 58 38 58 1 0
7 -9 13 -20z m-179 -81 l21 -41 -41 -85 c-79 -163 -140 -383 -157 -568 -13
-138 -7 -417 11 -485 2 -8 7 -40 10 -70 4 -30 15 -91 25 -135 11 -45 21 -92
24 -105 2 -14 12 -49 21 -78 9 -30 15 -56 13 -57 -12 -13 -55 82 -80 176 -113
434 -110 865 8 1227 32 98 104 262 115 262 5 0 18 -19 30 -41z m1168 -174 c27
-38 62 -97 79 -130 57 -115 113 -324 138 -515 3 -25 8 -53 10 -63 3 -10 7 -32
10 -50 12 -98 88 -380 138 -509 14 -38 24 -68 22 -68 -6 0 -51 99 -96 210 -72
180 -115 309 -250 755 -64 209 -114 338 -186 475 l-55 105 71 -70 c39 -38 93
-101 119 -140z m-827 -99 c33 -83 127 -351 208 -596 81 -245 177 -521 215
-615 131 -330 276 -592 438 -793 37 -45 67 -85 67 -88 0 -3 -8 -3 -17 0 -17 5
-34 8 -108 21 -34 6 -61 34 -148 150 -186 250 -330 568 -512 1130 -167 516
-269 804 -320 902 -14 27 -8 55 31 136 l18 38 34 -67 c18 -36 61 -134 94 -218z
m1719 115 c175 -176 175 -176 199 -312 60 -343 190 -697 338 -918 112 -168
290 -326 457 -405 211 -101 449 -144 793 -142 245 1 248 8 -25 -85 l-173 -60
-97 6 c-618 35 -1017 247 -1276 677 -104 173 -206 450 -251 688 -32 169 -69
310 -112 428 -28 78 -36 116 -40 196 l-5 98 33 -23 c18 -13 90 -79 159 -148z
m-4514 77 c-2 -13 -4 -3 -4 22 0 25 2 35 4 23 2 -13 2 -33 0 -45z m6093 -127
c192 -137 429 -270 638 -356 64 -26 99 -47 110 -64 78 -123 240 -225 458 -289
106 -32 121 -35 247 -54 42 -6 76 -13 74 -15 -14 -13 -417 -21 -502 -9 -22 3
-60 8 -85 11 -168 21 -364 81 -497 150 -225 118 -412 307 -550 555 -29 52
-103 215 -103 226 0 3 26 -15 58 -41 31 -25 100 -77 152 -114z m-3584 -44
c-23 -76 -40 -157 -53 -267 -8 -65 -7 -263 1 -350 31 -302 179 -752 338 -1024
16 -27 27 -50 25 -53 -6 -5 -111 115 -162 185 -95 132 -155 248 -190 369 -33
111 -72 305 -82 403 -9 94 -10 334 -1 420 15 139 57 310 101 414 l21 50 13
-33 c12 -28 11 -41 -11 -114z m6378 16 c60 -18 156 -41 213 -51 57 -9 103 -20
103 -24 0 -10 -36 -43 -66 -59 -23 -12 -35 -10 -111 16 -47 17 -116 47 -152
67 -68 37 -153 106 -116 92 11 -4 69 -22 129 -41z m721 -85 c-162 -343 -238
-601 -230 -790 4 -99 29 -169 82 -228 l42 -47 -84 -83 -83 -83 -12 59 c-55
260 -13 572 122 914 58 146 150 325 185 358 19 17 36 32 38 32 2 0 -25 -60
-60 -132z m-4785 -35 c165 -239 395 -553 478 -653 141 -168 282 -291 454 -397
114 -70 123 -82 21 -26 -182 99 -313 206 -462 378 -88 102 -126 151 -359 470
-73 99 -148 198 -168 220 -38 43 -47 61 -59 115 -7 33 -6 32 36 -25 25 -33 51
-70 59 -82z m-8762 -3 c97 -111 352 -361 472 -461 237 -197 467 -357 729 -506
116 -66 412 -216 416 -211 2 2 -47 30 -108 62 -197 104 -657 392 -702 439 -11
11 53 -25 95 -54 27 -18 334 -199 415 -244 205 -114 509 -256 695 -325 242
-90 547 -174 775 -214 17 -3 80 -15 140 -25 61 -11 130 -23 155 -26 25 -3 52
-8 60 -10 8 -2 38 -7 65 -10 54 -6 101 -12 180 -26 39 -6 33 -7 -30 -3 -44 3
-96 7 -115 9 -149 13 -197 18 -210 20 -40 7 -134 16 -130 12 5 -5 24 -8 125
-23 28 -3 58 -8 67 -10 9 -1 45 -6 80 -9 160 -17 184 -24 68 -19 -63 3 -128 6
-145 8 -16 2 -59 7 -95 11 -87 9 -109 12 -285 41 -366 59 -797 194 -1170 367
-554 256 -1078 637 -1422 1035 -32 37 -62 72 -68 78 -30 35 -134 171 -144 189
-7 13 9 -4 87 -95z m6540 30 c49 -126 173 -500 187 -569 3 -15 71 -240 128
-426 106 -342 238 -646 371 -850 31 -48 55 -89 52 -92 -9 -10 -194 79 -218
105 -59 64 -190 257 -278 411 -146 253 -263 573 -305 831 -4 25 -9 54 -12 65
-12 51 -10 346 2 425 17 110 34 185 40 178 2 -2 17 -37 33 -78z m6979 73 c-3
-5 -24 -39 -47 -78 -149 -243 -254 -529 -286 -780 -18 -131 -9 -353 17 -449
11 -40 10 -41 -28 -74 -21 -18 -50 -41 -64 -52 l-25 -19 8 57 c4 31 11 73 14
92 11 70 19 247 13 315 -10 127 -3 306 15 370 32 112 131 295 289 534 20 30
49 62 64 72 31 21 36 23 30 12z m-5223 -168 c18 -76 18 -74 40 -190 47 -236
62 -301 97 -422 182 -623 484 -959 969 -1077 114 -27 144 -32 247 -42 112 -11
86 -15 -72 -13 -252 4 -443 50 -692 169 -327 155 -506 379 -578 722 -42 200
-52 375 -46 828 2 134 8 139 35 25z m4997 -32 c-141 -212 -227 -381 -255 -503
-14 -59 -15 -249 -1 -360 13 -113 4 -293 -20 -410 -2 -8 -4 -20 -4 -27 -1 -15
-203 -145 -212 -135 -3 4 -27 53 -53 110 -50 111 -73 187 -80 271 -5 50 -1 60
59 175 35 67 77 146 94 175 17 28 31 54 31 56 0 2 30 54 67 117 154 262 421
646 450 648 1 0 -33 -53 -76 -117z m-9324 55 c-3 -8 -6 -5 -6 6 -1 11 2 17 5
13 3 -3 4 -12 1 -19z m2175 -95 c-11 -47 -18 -98 -29 -191 -3 -26 -6 -110 -7
-187 -4 -328 72 -612 231 -859 24 -38 57 -101 72 -140 37 -91 106 -236 142
-298 16 -26 26 -48 22 -48 -3 0 -31 21 -62 46 l-56 47 55 -55 c30 -30 64 -61
75 -69 21 -14 69 -89 58 -89 -16 0 -141 99 -205 164 -107 107 -162 193 -269
421 -101 217 -138 391 -133 633 2 133 12 273 19 280 3 3 -1 12 -8 20 -10 13
-9 15 4 10 9 -3 16 -1 16 5 0 30 14 104 39 208 15 63 29 124 32 137 2 13 7 21
9 18 3 -3 1 -27 -5 -53z m-5772 -321 c556 -513 1148 -878 1758 -1081 142 -47
381 -112 462 -126 19 -3 51 -10 70 -15 19 -5 60 -12 90 -16 30 -4 64 -10 75
-13 11 -4 40 -9 65 -10 25 -1 48 -6 52 -10 9 -8 -201 10 -273 24 -102 20 -143
26 -156 21 -9 -4 -11 -2 -7 6 5 7 -1 9 -20 6 -14 -3 -26 -1 -26 5 0 5 -11 7
-25 5 -13 -3 -22 -1 -19 3 3 5 -1 9 -9 9 -40 0 -464 132 -567 177 -19 8 -44
19 -55 23 -76 30 -300 134 -400 186 -184 95 -357 202 -589 364 -107 74 -310
246 -439 370 -37 36 -72 66 -77 68 -16 6 -174 203 -230 287 l-53 80 154 -151
c85 -83 183 -179 219 -212z m8470 166 c201 -299 350 -492 479 -618 239 -235
532 -386 861 -444 145 -26 179 -28 370 -31 169 -2 246 2 400 20 48 6 53 5 35
-7 -11 -8 -78 -36 -150 -63 l-130 -49 -245 0 c-218 -1 -343 5 -420 18 -14 3
-43 7 -65 10 -59 8 -91 15 -175 36 -494 126 -819 444 -1000 980 -30 89 -89
320 -81 320 3 0 58 -77 121 -172z m4292 135 c-44 -58 -220 -324 -297 -450 -37
-62 -69 -113 -71 -113 -11 0 155 319 234 450 40 66 61 90 103 117 29 18 55 33
57 33 2 0 -10 -17 -26 -37z m-9134 -39 c-3 -14 -5 -12 -10 9 -3 19 -2 25 4 19
6 -6 8 -18 6 -28z m9 -56 c-3 -7 -5 -2 -5 12 0 14 2 19 5 13 2 -7 2 -19 0 -25z
m8538 16 c88 -4 162 -8 163 -9 2 -2 -26 -23 -63 -48 l-66 -44 -122 42 c-67 23
-138 49 -157 58 l-35 15 60 -4 c33 -2 132 -7 220 -10z m355 -76 c-143 -246
-274 -536 -315 -698 -9 -36 -35 -101 -57 -145 -23 -44 -85 -168 -139 -275
l-96 -194 -17 32 c-26 50 -28 152 -6 254 23 106 62 216 97 278 26 45 244 372
309 465 146 205 229 314 241 315 1 0 -6 -15 -17 -32z m-8780 -288 c91 -246
233 -496 419 -741 272 -357 728 -750 1191 -1026 41 -25 64 -41 50 -37 -28 8
-204 110 -328 191 -680 441 -1123 968 -1347 1603 -33 95 -85 279 -84 299 0 9
13 -27 28 -79 16 -52 48 -147 71 -210z m6960 248 c138 -42 426 -110 555 -132
17 -3 41 -8 55 -11 49 -10 164 -28 245 -39 22 -3 58 -9 80 -12 l40 -7 -65 -14
c-45 -10 -98 -12 -170 -9 -298 16 -560 78 -725 171 -67 38 -134 91 -100 80 11
-4 49 -16 85 -27z m1620 -115 c-107 -137 -113 -144 -78 -83 62 104 101 150
136 159 1 1 -25 -34 -58 -76z m-476 9 c2 -4 -4 -8 -14 -8 -10 0 -16 4 -14 8 3
4 9 8 14 8 5 0 11 -4 14 -8z m171 -2 c-7 -12 -155 -12 -155 0 0 3 36 7 81 9
57 1 79 -1 74 -9z m-11849 -270 c315 -294 711 -543 1139 -716 71 -29 126 -53
120 -54 -13 0 -212 79 -316 125 -287 130 -633 352 -864 554 -53 47 -259 254
-310 311 -22 25 8 -2 66 -60 59 -58 133 -130 165 -160z m11995 167 c-10 -9
-11 -8 -5 6 3 10 9 15 12 12 3 -3 0 -11 -7 -18z m-321 -11 c0 -2 -11 -6 -25
-8 -13 -3 -22 -1 -19 3 5 9 44 13 44 5z m189 -63 c-14 -16 -66 -80 -114 -143
-49 -63 -92 -117 -95 -120 -24 -21 -363 -491 -492 -681 -77 -115 -101 -152
-200 -310 -230 -363 -402 -746 -444 -984 -11 -66 -12 -209 -2 -266 l10 -54
-48 -42 c-26 -24 -51 -43 -55 -43 -6 0 -18 42 -35 129 -7 39 -7 204 1 241 3
14 9 50 15 80 15 83 59 221 83 260 46 77 633 957 747 1120 399 569 552 775
605 812 51 35 55 35 24 1z m-11869 -174 c3 -3 45 -37 93 -76 325 -261 769
-494 1259 -662 141 -48 177 -54 140 -24 -15 13 -15 13 6 3 12 -6 20 -15 17
-20 -3 -5 21 -16 52 -25 72 -21 337 -84 378 -89 17 -3 44 -7 60 -10 141 -24
264 -35 415 -38 86 -1 104 -3 70 -9 -25 -4 71 -6 212 -5 141 1 254 -1 252 -3
-6 -6 -14 -7 -214 -17 -249 -12 -679 -6 -781 11 -13 2 -49 6 -79 10 -107 11
-192 23 -285 41 -448 87 -853 256 -1205 503 -96 67 -225 168 -241 188 -8 10 4
4 26 -13 179 -137 515 -325 771 -432 173 -73 447 -161 579 -188 11 -2 43 -8
71 -14 28 -6 64 -13 80 -16 16 -2 52 -9 79 -14 59 -10 150 -22 260 -34 67 -7
15 10 -59 19 -152 20 -432 88 -651 160 -631 206 -1173 534 -1448 875 l-60 75
99 -95 c54 -52 101 -98 104 -101z m241 154 c13 -16 12 -17 -3 -4 -10 7 -18 15
-18 17 0 8 8 3 21 -13z m11239 -52 c-19 -10 -66 -24 -104 -30 -72 -13 -104 -9
-39 4 21 5 43 10 48 11 130 39 145 41 95 15z m-105 -324 c-243 -246 -279 -284
-414 -437 -256 -288 -433 -507 -631 -777 -72 -98 -137 -185 -143 -193 -34 -41
-294 -442 -364 -560 -237 -398 -412 -758 -552 -1133 -27 -73 -54 -151 -61
-173 -7 -23 -36 -71 -64 -107 -28 -36 -76 -97 -106 -136 -29 -38 -55 -69 -57
-67 -4 4 139 352 250 606 273 630 525 1094 800 1480 67 94 286 378 328 425 14
17 59 68 99 115 73 85 96 111 264 295 195 213 853 885 866 885 3 0 -94 -100
-215 -223z m343 111 c-8 -13 -30 -50 -49 -83 -18 -33 -63 -103 -99 -155 -188
-270 -371 -566 -479 -773 -119 -227 -152 -312 -311 -802 -76 -234 -136 -375
-159 -375 -22 0 -34 169 -19 267 46 300 257 718 662 1308 151 221 454 635 464
635 2 0 -2 -10 -10 -22z m-636 -335 c-314 -314 -389 -392 -507 -528 -33 -38
-67 -76 -75 -85 -8 -8 -58 -67 -111 -130 -426 -513 -731 -977 -998 -1524 -133
-272 -228 -492 -442 -1023 -63 -157 -103 -243 -124 -265 -16 -18 -56 -64 -89
-101 -32 -37 -60 -66 -62 -64 -2 1 20 63 48 137 28 74 97 269 154 433 104 298
167 469 209 562 12 28 33 75 46 105 41 98 179 371 241 479 188 325 378 595
642 906 96 114 250 289 296 336 8 9 63 67 122 130 139 149 185 197 472 494
134 138 262 270 285 295 32 34 191 156 208 159 1 1 -141 -142 -315 -316z m672
238 c-19 -44 -67 -135 -108 -203 -70 -119 -199 -366 -266 -513 -33 -72 -149
-358 -156 -385 -2 -8 -18 -55 -35 -105 -17 -49 -46 -142 -64 -205 -38 -130
-45 -120 -15 21 53 247 158 518 350 899 98 195 111 221 189 360 38 67 131 210
137 210 1 0 -13 -36 -32 -79z m2466 4 c86 -12 171 -46 238 -96 22 -17 22 -17
-75 -87 -298 -214 -631 -373 -873 -417 -78 -15 -275 -14 -340 1 -99 22 -203
77 -269 142 -51 51 -141 183 -141 208 0 5 44 53 98 106 l97 97 42 -14 c140
-48 370 -43 657 15 56 11 117 22 136 25 19 3 46 7 59 10 13 2 56 7 95 11 39 3
72 7 73 9 6 4 152 -2 203 -10z m-13960 -160 c4 2 16 -3 26 -13 37 -34 244
-182 346 -249 204 -132 472 -241 823 -333 61 -16 137 -33 170 -39 33 -6 71
-13 84 -16 154 -30 510 -46 686 -31 22 2 78 7 125 11 47 4 96 8 110 10 160 19
162 17 28 -24 -148 -46 -331 -117 -440 -172 -43 -22 -78 -41 -78 -42 0 -3 95
28 140 46 27 11 204 65 280 86 192 53 477 80 653 64 93 -9 45 -18 -101 -18
-284 -1 -448 -35 -842 -175 -80 -28 -189 -67 -243 -85 -54 -19 -120 -46 -145
-60 -91 -51 -218 -65 -342 -37 -25 6 -69 13 -99 17 -30 4 -79 15 -110 25 -44
15 -48 18 -18 13 50 -7 47 1 -9 22 -64 24 -213 108 -319 178 -91 61 -255 184
-255 192 0 3 38 -22 84 -55 47 -33 87 -60 90 -60 3 0 29 -15 58 -34 247 -157
593 -254 768 -215 69 15 66 24 -8 26 -102 3 -164 11 -302 39 -112 23 -211 59
-345 124 -271 132 -506 329 -765 640 -58 69 -101 126 -205 270 l-40 55 94 -82
c52 -45 97 -80 101 -78z m11008 -132 c-111 -159 -280 -405 -376 -548 -155
-230 -238 -347 -190 -265 9 14 39 66 68 115 113 191 314 487 489 720 41 55 77
102 80 105 4 3 32 40 64 83 117 156 61 69 -135 -210z m-11017 151 c9 -11 2 -9
-18 6 -18 13 -33 25 -33 27 0 8 38 -17 51 -33z m10551 3 c-29 -34 -101 -56
-249 -74 -84 -11 -153 -17 -153 -14 0 5 177 44 345 77 17 3 37 10 45 15 21 12
24 11 12 -4z m-3362 -42 c0 -5 -5 -3 -10 5 -5 8 -10 20 -10 25 0 6 5 3 10 -5
5 -8 10 -19 10 -25z m18 -40 c-3 -3 -9 2 -12 12 -6 14 -5 15 5 6 7 -7 10 -15
7 -18z m2932 -9 c0 -2 -15 -6 -34 -8 -19 -2 -32 0 -30 4 5 8 64 12 64 4z m719
-173 c-175 -234 -453 -647 -490 -728 -5 -11 -17 -33 -27 -50 -39 -63 -102
-188 -151 -297 -28 -62 -71 -142 -95 -178 -24 -36 -184 -276 -356 -535 -172
-258 -354 -528 -403 -600 -118 -170 -237 -337 -249 -350 -21 -22 92 267 178
456 41 91 204 413 249 494 181 321 442 712 703 1050 97 125 333 418 352 435 3
3 30 34 60 70 30 36 60 70 65 76 6 6 68 77 139 158 71 80 130 146 132 146 2 0
-46 -66 -107 -147z m1009 -87 c23 -43 42 -82 42 -86 0 -8 -34 -25 -120 -57
-66 -25 -210 -43 -210 -27 0 5 43 95 97 201 l98 191 25 -71 c14 -40 45 -107
68 -151z m-498 23 c-7 -88 11 -180 45 -230 l25 -39 -57 -107 c-31 -60 -67
-125 -80 -145 -13 -21 -23 -40 -23 -43 0 -11 -135 -225 -193 -305 -82 -114
-160 -211 -165 -206 -11 12 107 389 183 581 58 147 256 565 268 565 1 0 0 -32
-3 -71z m-5568 -6 c14 -21 54 -67 89 -102 64 -65 64 -70 -1 -22 -64 48 -72 56
-96 103 -13 26 -24 50 -24 53 0 12 9 3 32 -32z m-4697 -39 c24 -11 25 -13 5
-8 -14 4 -38 13 -55 20 -24 11 -25 13 -5 8 14 -4 39 -13 55 -20z m9281 -38
c-141 -145 -337 -353 -446 -476 -698 -780 -1043 -1380 -1403 -2435 -80 -233
-154 -441 -198 -557 l-33 -88 -193 -196 c-188 -191 -193 -196 -187 -158 12 80
76 349 104 439 6 17 26 82 45 145 190 611 500 1215 923 1795 239 329 471 606
815 975 121 129 618 620 628 620 4 0 -20 -29 -55 -64z m-9201 14 c13 -5 14 -9
5 -9 -8 0 -24 4 -35 9 -13 5 -14 9 -5 9 8 0 24 -4 35 -9z m9916 -57 c-40 -80
-136 -303 -182 -427 -99 -261 -147 -466 -150 -643 l-1 -61 -97 -94 c-53 -51
-109 -104 -124 -117 l-27 -25 29 72 c16 39 57 156 91 259 132 406 170 503 270
703 49 98 55 109 147 273 55 96 81 132 44 60z m-9796 17 c3 -6 -1 -7 -9 -4
-18 7 -21 14 -7 14 6 0 13 -4 16 -10z m90 -28 c-3 -3 -11 0 -18 7 -9 10 -8 11
6 5 10 -3 15 -9 12 -12z m6056 -9 c13 -16 12 -17 -3 -4 -10 7 -18 15 -18 17 0
8 8 3 21 -13z m234 -238 c39 -32 104 -80 145 -107 41 -26 73 -48 70 -49 -3 0
-15 -2 -27 -5 -46 -8 -278 199 -401 361 -9 11 20 -16 64 -61 43 -45 111 -107
149 -139z m4299 107 c14 -40 28 -82 30 -95 33 -164 38 -201 37 -314 -1 -286
-168 -599 -507 -953 l-98 -102 -56 5 c-162 16 -329 85 -415 172 -86 87 -130
194 -112 270 3 11 6 25 6 32 1 6 41 58 89 115 196 230 315 405 486 715 l68
122 72 0 c81 0 187 31 294 85 37 19 70 31 73 28 4 -4 19 -40 33 -80z m-2039
45 c-16 -12 -46 -36 -65 -52 -57 -50 -78 -62 -38 -22 39 38 117 97 127 97 3 0
-7 -11 -24 -23z m-7748 -23 c-3 -3 -12 -4 -19 -1 -8 3 -5 6 6 6 11 1 17 -2 13
-5z m550 -30 c-3 -3 -12 -4 -19 -1 -8 3 -5 6 6 6 11 1 17 -2 13 -5z m3331 -92
c91 -53 106 -66 174 -153 40 -52 83 -105 95 -119 61 -70 72 -84 69 -88 -2 -1
-39 13 -82 34 -44 20 -89 40 -101 45 -35 13 -213 236 -278 349 -7 13 -6 13 7
2 8 -6 60 -38 116 -70z m3647 30 c-6 -5 -32 -26 -60 -48 -27 -21 -52 -41 -55
-44 -21 -21 -200 -159 -220 -169 -18 -10 -16 -5 10 17 19 16 44 38 56 48 12
11 49 44 84 74 34 30 90 72 124 92 59 37 80 47 61 30z m-647 -92 c-81 -32
-177 -68 -212 -81 -38 -12 -63 -26 -59 -32 3 -5 1 -7 -4 -4 -6 4 -53 -7 -105
-24 l-95 -31 -99 30 c-77 23 -94 31 -74 36 14 3 95 22 180 41 85 20 207 50
270 66 63 17 129 32 145 35 17 2 53 6 80 10 28 3 51 7 52 8 1 1 17 2 35 3 22
2 -18 -18 -114 -57z m-6017 22 c-13 -2 -27 0 -32 5 -6 6 3 7 23 4 28 -4 29 -6
9 -9z m6319 -106 c0 -2 -55 -48 -121 -102 -67 -55 -127 -104 -133 -109 -6 -6
-39 -34 -73 -62 -34 -28 -72 -61 -85 -72 -12 -12 -63 -46 -112 -77 -50 -30
-126 -77 -168 -104 -43 -27 -78 -47 -78 -44 0 20 99 127 147 160 32 21 63 44
69 49 24 21 542 365 550 365 2 0 4 -2 4 -4z m-6147 -16 c42 -2 77 -5 77 -9 0
-3 -35 -6 -78 -7 -91 -1 -264 -13 -270 -19 -2 -2 51 -3 119 -2 132 1 289 -10
301 -21 4 -4 -68 -7 -160 -7 -147 0 -264 -7 -329 -20 -11 -2 -38 -6 -59 -9
-191 -31 -400 -100 -758 -253 -191 -81 -378 -150 -435 -159 -14 -3 -33 -7 -41
-9 -70 -21 -244 -23 -339 -5 -68 12 -147 40 -243 84 -65 30 -78 44 -20 21 118
-46 195 -59 342 -58 197 1 359 39 685 161 445 166 592 213 795 251 25 5 36 9
25 10 -17 1 -106 -15 -190 -33 -146 -31 -354 -96 -585 -181 -69 -25 -132 -48
-140 -50 -8 -2 -46 -15 -85 -30 -410 -152 -725 -129 -1027 77 -32 21 -58 41
-58 43 0 2 28 -12 63 -32 95 -54 227 -103 317 -118 25 -4 54 -9 65 -12 29 -6
224 -5 268 1 20 4 54 8 75 11 20 3 55 10 77 16 22 6 49 13 60 15 37 7 180 52
330 104 333 116 573 188 674 204 14 3 46 8 71 12 78 12 93 14 180 20 47 4 86
7 87 9 3 1 36 1 206 -5z m3331 -38 c53 -14 70 -27 155 -110 98 -96 210 -185
314 -250 62 -38 61 -47 -7 -51 -38 -2 -53 5 -122 53 -128 88 -367 296 -424
370 -14 18 -13 19 5 12 11 -4 47 -15 79 -24z m1712 -18 c22 -9 57 -24 79 -34
22 -10 51 -21 64 -25 22 -7 23 -8 7 -17 -10 -6 -35 -8 -55 -5 -46 8 -211 69
-211 78 0 5 17 10 38 12 20 2 38 4 38 5 1 1 19 -5 40 -14z m-137 -49 c36 -13
100 -35 141 -48 l75 -24 -66 -11 c-36 -7 -73 -12 -83 -12 -17 0 -159 68 -205
99 l-25 16 29 6 c39 7 56 4 134 -26z m1246 -92 c-464 -463 -810 -931 -1193
-1613 -14 -25 -75 -133 -135 -240 -61 -107 -124 -219 -140 -247 -15 -29 -30
-53 -32 -53 -2 0 10 30 26 68 17 37 56 123 86 192 261 592 499 975 867 1395
86 98 74 85 227 241 231 235 393 384 417 384 3 0 -52 -57 -123 -127z m-2401
81 c16 -3 45 -20 65 -39 61 -58 94 -85 141 -117 25 -18 47 -35 50 -38 3 -4 34
-24 69 -46 59 -35 62 -39 38 -42 -49 -6 -277 123 -422 240 -36 28 -65 53 -65
55 0 3 63 -3 124 -13z m769 -4 c49 -40 92 -70 182 -125 l30 -19 -32 -9 c-28
-8 -41 -4 -109 33 -42 23 -102 58 -133 78 l-56 36 30 6 c53 10 76 10 88 0z
m-306 -34 c24 -20 185 -129 239 -162 17 -10 14 -13 -26 -24 -41 -11 -49 -10
-90 11 -61 31 -204 119 -265 163 l-50 36 82 0 c71 0 85 -3 110 -24z m-3827 -9
c-3 -3 -34 -8 -69 -11 -36 -4 -67 -9 -70 -11 -4 -2 -26 -6 -51 -10 -122 -18
-380 -112 -530 -192 -207 -110 -490 -321 -685 -510 -49 -47 -224 -196 -285
-242 -122 -93 -203 -137 -308 -167 -63 -18 -184 -21 -222 -6 -22 10 -20 11 25
12 173 5 324 83 600 313 66 55 125 105 130 111 48 54 354 296 489 385 254 170
573 295 814 317 37 4 68 7 69 8 5 4 97 7 93 3z m5305 -31 c-28 -18 -52 -32
-54 -30 -8 7 23 36 53 49 53 23 53 16 1 -19z m-2513 -10 c10 -1 64 -48 120
-103 57 -56 125 -120 152 -143 l50 -42 -75 7 c-41 4 -75 8 -77 10 -2 1 14 6
34 9 l36 7 -60 36 c-72 43 -190 131 -258 192 l-49 44 55 -8 c30 -4 63 -8 72
-9z m2324 -71 c-14 -19 -38 -51 -52 -70 -36 -48 -136 -117 -209 -145 -121 -45
-278 -100 -287 -100 -12 0 77 78 208 183 91 73 111 84 220 122 150 53 153 53
120 10z m277 -153 c-282 -283 -446 -481 -638 -772 -212 -321 -349 -598 -637
-1288 -17 -40 -32 -71 -34 -69 -4 4 36 189 60 272 72 257 148 451 255 660 216
418 477 744 951 1189 84 78 166 146 177 146 2 0 -58 -62 -134 -138z m-5043 67
c-330 -104 -587 -233 -838 -421 -130 -98 -357 -324 -479 -479 -155 -195 -398
-573 -502 -777 -36 -71 -34 -42 3 49 83 207 177 384 301 569 68 101 163 227
205 271 216 229 329 328 526 461 238 161 488 273 744 332 141 33 155 31 40 -5z
m4280 -72 c-172 -160 -237 -214 -279 -229 l-46 -18 52 47 c53 47 304 241 313
242 3 0 -15 -18 -40 -42z m-25 23 c-3 -5 -52 -41 -108 -79 -56 -38 -142 -102
-192 -142 -49 -40 -112 -81 -140 -91 l-50 -19 45 43 c112 106 237 204 287 223
21 9 27 13 13 11 -49 -9 8 21 63 34 29 7 59 16 67 21 20 11 22 11 15 -1z
m-4186 -4 c-2 -2 -44 -21 -94 -42 -300 -127 -561 -298 -760 -498 -304 -306
-462 -614 -680 -1331 -27 -88 -39 -110 -30 -52 36 216 116 500 197 697 36 88
105 231 119 245 5 5 9 14 9 20 -1 19 -71 -100 -129 -220 -96 -196 -193 -474
-247 -707 -10 -43 -22 -78 -28 -78 -5 0 -25 12 -45 27 -20 14 -37 27 -38 28
-7 4 156 391 227 540 147 311 333 579 563 813 161 165 353 300 582 413 164 80
380 169 354 145z m-209 -47 c-111 -46 -230 -106 -315 -157 -60 -36 -216 -141
-225 -151 -3 -3 -30 -26 -60 -51 -166 -134 -331 -323 -474 -540 -69 -105 -146
-237 -146 -249 0 -6 -4 -11 -10 -11 -5 0 -10 -4 -10 -10 0 -5 -22 -49 -48 -97
-27 -49 -73 -133 -102 -188 -65 -122 -170 -305 -176 -305 -5 0 7 28 56 135 18
39 41 90 52 115 136 304 242 502 361 679 72 108 74 111 173 225 176 204 433
397 694 520 108 51 290 124 310 125 8 0 -28 -18 -80 -40z m200 -11 c-250 -116
-373 -185 -520 -290 -177 -127 -316 -262 -444 -433 -202 -268 -320 -533 -502
-1123 -50 -162 -41 -93 31 230 27 124 126 402 190 536 122 254 210 378 400
567 202 201 459 366 765 491 110 45 157 58 80 22z m3057 -24 c-3 -3 -12 -4
-19 -1 -8 3 -5 6 6 6 11 1 17 -2 13 -5z m-2911 -85 c-362 -184 -620 -383 -832
-643 -211 -258 -355 -560 -527 -1106 -58 -181 -75 -232 -76 -215 0 6 4 28 9
50 5 22 11 51 14 65 53 275 143 557 249 780 57 119 200 356 237 390 3 3 27 32
55 65 132 160 341 336 553 465 95 58 425 220 447 219 6 0 -52 -31 -129 -70z
m159 2 c-107 -52 -312 -166 -325 -181 -3 -3 -30 -21 -60 -41 -142 -93 -340
-269 -456 -405 -62 -72 -170 -219 -199 -271 -8 -15 -25 -44 -37 -63 -42 -71
-128 -248 -174 -360 -36 -89 -206 -586 -237 -695 -7 -22 0 34 8 75 3 14 8 39
10 55 5 24 37 157 79 326 36 143 154 428 242 585 109 196 193 305 359 469 210
209 435 357 765 507 163 74 178 73 25 -1z m250 49 c-3 -5 -12 -10 -18 -10 -7
0 -6 4 3 10 19 12 23 12 15 0z m4000 -152 c-78 -79 -168 -174 -201 -213 -32
-38 -61 -72 -64 -75 -23 -23 -112 -147 -179 -250 -210 -320 -381 -749 -471
-1181 -22 -104 -23 -109 -44 -219 -33 -168 -47 -214 -84 -265 -89 -123 -263
-335 -275 -335 -2 0 -2 53 0 118 2 64 5 230 7 367 l3 250 366 548 c458 685
583 867 730 1067 26 36 55 76 65 89 78 111 96 128 185 183 50 31 95 57 98 57
3 1 -58 -63 -136 -141z m-4056 128 c-2 -2 -47 -25 -99 -52 -298 -151 -510
-302 -720 -513 -322 -323 -501 -669 -720 -1391 -18 -58 -35 -109 -39 -113 -5
-4 7 63 26 150 127 598 331 1010 663 1343 63 63 127 125 141 137 190 153 333
244 554 354 153 75 214 102 194 85z m3964 -44 c-36 -55 -49 -68 -123 -117 -94
-62 -279 -195 -345 -248 l-50 -39 40 38 c44 43 136 120 169 144 12 8 32 24 46
37 27 24 273 211 278 212 2 1 -4 -12 -15 -27z m-3543 -6 c0 -2 -37 -24 -82
-48 -176 -94 -407 -249 -553 -371 -95 -80 -274 -265 -346 -357 -206 -264 -341
-536 -496 -995 -36 -104 -66 -197 -68 -205 -2 -8 -13 -42 -24 -75 l-20 -60 5
52 c5 41 51 239 98 417 27 99 120 334 180 455 239 475 618 840 1169 1127 117
60 137 69 137 60z m3230 -40 c0 -2 -24 -19 -54 -39 -30 -20 -92 -66 -138 -103
-90 -73 -83 -60 30 50 45 43 88 76 110 83 41 13 52 15 52 9z m-2970 -30 c0 -2
-7 -7 -16 -10 -8 -3 -12 -2 -9 4 6 10 25 14 25 6z m-143 -76 c-448 -249 -774
-513 -1002 -810 -28 -36 -52 -67 -55 -70 -38 -38 -162 -243 -241 -400 -98
-194 -154 -329 -273 -655 -36 -99 -65 -175 -66 -169 0 24 81 326 116 431 250
748 702 1259 1464 1657 173 90 209 100 57 16z m213 46 c0 -2 -7 -7 -16 -10 -8
-3 -12 -2 -9 4 6 10 25 14 25 6z m2060 -27 c-36 -30 -104 -71 -84 -49 13 13
107 79 114 79 3 0 -11 -13 -30 -30z m587 4 c-14 -16 -61 -64 -104 -109 -367
-380 -594 -734 -707 -1104 -31 -103 -60 -239 -80 -380 -14 -97 -17 -133 -31
-290 -14 -157 -15 -163 -53 -214 -47 -66 -193 -256 -196 -256 -1 0 10 62 25
138 15 75 30 157 33 182 24 180 89 451 153 640 167 499 415 904 779 1272 119
120 134 130 203 147 3 1 -7 -11 -22 -26z m-2767 -41 c-378 -214 -711 -478
-921 -732 -30 -36 -56 -67 -60 -70 -3 -3 -33 -43 -66 -90 -203 -282 -344 -580
-550 -1160 -18 -52 -30 -81 -27 -65 18 92 20 98 54 224 231 863 704 1444 1540
1890 121 64 143 66 30 3z m1951 -2 c-35 -25 -71 -42 -105 -49 -482 -93 -782
-168 -1201 -301 -71 -23 -137 -43 -145 -45 -8 -2 -112 -35 -230 -74 -118 -38
-216 -69 -218 -67 -9 10 322 135 558 211 234 75 881 251 1000 271 14 3 102 24
195 48 94 25 176 45 184 45 8 1 -9 -17 -38 -39z m1257 -2 c-29 -39 -159 -221
-210 -293 -200 -288 -320 -462 -520 -760 -129 -192 -261 -388 -293 -435 l-57
-85 6 80 c6 85 8 96 32 220 48 251 164 504 325 708 74 94 180 206 215 228 19
11 32 25 28 30 -3 5 0 8 7 7 7 -2 13 2 14 9 0 6 4 15 9 20 5 5 6 2 1 -6 -12
-21 1 -12 120 76 93 70 332 231 344 233 2 0 -8 -15 -21 -32z m1692 -93 c-34
-157 -26 -340 21 -456 10 -25 5 -32 -93 -130 -236 -237 -345 -407 -385 -599
-11 -49 -5 -140 12 -191 l17 -51 -29 -31 c-16 -18 -69 -77 -118 -132 -97 -110
-609 -621 -635 -635 -15 -8 -15 4 6 113 37 193 72 347 114 492 l37 133 115
153 c117 157 202 275 345 479 93 133 563 840 563 847 0 6 34 52 37 49 1 -1 -2
-19 -7 -41z m678 -77 c-34 -140 -30 -123 -58 -248 -24 -109 -68 -288 -76 -310
-4 -12 -9 -9 -25 10 -41 53 -127 187 -152 236 l-26 51 25 49 c14 27 38 60 52
73 62 54 228 208 251 233 15 14 29 26 32 27 4 1 -7 -54 -23 -121z m-3637 15
c-35 -32 -85 -68 -110 -80 l-46 -22 55 51 c56 53 136 108 154 108 6 0 -18 -26
-53 -57z m289 -7 c0 -3 -19 -26 -42 -53 -198 -228 -382 -548 -539 -938 -62
-153 -98 -259 -255 -750 -85 -265 -212 -480 -389 -659 -79 -80 -236 -218 -273
-240 -7 -4 20 39 61 96 180 254 258 418 477 1012 134 362 236 592 341 764 21
35 39 66 39 68 0 2 25 41 57 87 137 200 230 314 406 499 110 116 117 122 117
114z m580 -70 c0 -2 -8 -10 -17 -17 -16 -13 -17 -12 -4 4 13 16 21 21 21 13z
m2338 -243 c-2 -5 -18 -37 -37 -73 -31 -59 -34 -63 -47 -45 -21 28 -18 35 28
82 38 38 66 56 56 36z m55 -103 c10 -16 57 -78 104 -137 47 -60 90 -113 95
-120 6 -8 0 -43 -18 -100 -15 -48 -30 -81 -32 -73 -8 24 -58 96 -154 219 -49
62 -88 117 -86 121 11 27 64 120 68 120 3 0 14 -13 23 -30z m-230 -77 c3 -10
14 -30 23 -45 17 -26 17 -26 -56 -145 -187 -300 -397 -600 -412 -585 -16 16
-21 112 -8 174 15 81 65 188 132 285 49 72 291 333 308 333 4 0 10 -8 13 -17z
m-2823 -287 c-12 -32 -47 -169 -54 -211 -3 -16 -7 -50 -11 -75 -3 -25 -8 -56
-10 -70 -18 -99 -22 -138 -30 -295 l-6 -110 -46 -67 c-47 -69 -68 -80 -53 -29
4 16 11 60 15 97 3 37 8 70 10 73 1 3 6 31 10 61 11 87 53 287 81 385 28 99
95 278 101 272 2 -2 -1 -16 -7 -31z m-109 -1142 c0 -238 -3 -314 -16 -414 -6
-40 -14 -53 -78 -112 -138 -128 -160 -148 -163 -145 -2 1 7 43 20 92 12 50 23
93 24 98 0 4 5 31 11 60 16 78 32 174 46 272 3 23 7 50 9 60 3 18 16 116 20
157 2 17 118 188 124 183 2 -2 3 -115 3 -251z m1323 -106 c-9 -24 -60 -133
-115 -243 -107 -217 -229 -413 -356 -570 -91 -112 -202 -232 -204 -219 -5 47
6 83 39 119 70 78 91 104 155 192 86 119 164 253 246 425 56 115 81 156 130
208 34 36 73 80 87 98 15 17 28 32 30 32 2 0 -3 -19 -12 -42z m-1115 -150
c-35 -51 -160 -218 -163 -218 -1 0 -1 13 2 29 2 15 18 44 35 64 118 132 141
157 144 157 3 0 -6 -15 -18 -32z m810 -184 c-37 -82 -100 -200 -148 -277 -44
-72 -175 -250 -197 -268 -14 -11 -15 -9 -10 22 3 19 8 52 11 74 3 22 10 71 17
110 l12 69 124 121 c69 66 145 141 170 168 25 26 47 47 48 47 2 0 -11 -30 -27
-66z m-1061 -109 c-10 -45 -22 -61 -142 -182 -72 -73 -134 -133 -138 -133 -3
0 7 30 23 68 16 37 29 74 29 82 0 8 33 41 73 72 39 31 92 77 116 102 25 25 46
44 47 43 1 -1 -2 -25 -8 -52z m-84 -217 c-37 -72 -127 -188 -201 -259 -82 -78
-180 -157 -223 -179 -23 -12 -23 -10 6 21 17 19 59 71 91 116 33 44 91 108
129 140 38 33 101 90 139 126 39 37 71 67 73 67 1 0 -5 -15 -14 -32z"/>
<path d="M5151 12544 c0 -11 3 -14 6 -6 3 7 2 16 -1 19 -3 4 -6 -2 -5 -13z"/>
<path d="M6068 9683 c7 -3 16 -2 19 1 4 3 -2 6 -13 5 -11 0 -14 -3 -6 -6z"/>
<path d="M6925 9190 l-40 -7 43 -2 c23 0 42 4 42 9 0 6 -1 9 -2 9 -2 -1 -21
-5 -43 -9z"/>
<path d="M3261 15024 c0 -11 3 -14 6 -6 3 7 2 16 -1 19 -3 4 -6 -2 -5 -13z"/>
<path d="M1991 14604 c0 -11 3 -14 6 -6 3 7 2 16 -1 19 -3 4 -6 -2 -5 -13z"/>
<path d="M2550 14315 c0 -5 5 -17 10 -25 5 -8 10 -10 10 -5 0 6 -5 17 -10 25
-5 8 -10 11 -10 5z"/>
<path d="M2589 14223 c39 -97 142 -317 172 -366 17 -28 32 -60 34 -71 5 -44
239 -487 372 -705 35 -57 63 -105 63 -107 0 -8 152 -221 254 -354 132 -174
364 -458 416 -510 3 -3 39 -43 80 -90 135 -153 192 -212 470 -490 325 -326
506 -495 876 -816 96 -84 161 -139 234 -198 42 -35 129 -108 154 -131 33 -31
217 -174 251 -196 73 -46 100 -63 95 -57 -3 3 -93 77 -200 163 -179 146 -461
383 -485 409 -5 6 -30 29 -55 50 -43 37 -211 191 -289 265 -226 212 -579 574
-781 801 -41 46 -82 91 -90 100 -25 27 -183 212 -230 270 -25 30 -47 57 -51
60 -3 3 -60 74 -127 157 -271 341 -551 733 -779 1091 -146 230 -159 253 -133
237 5 -3 -7 23 -27 57 -52 92 -223 439 -223 454 0 7 -5 16 -10 19 -6 4 -2 -15
9 -42z m230 -463 c11 -24 11 -24 -3 -6 -9 11 -16 24 -16 30 0 12 5 7 19 -24z"/>
<path d="M2710 14194 c0 -6 7 -19 16 -30 14 -18 14 -18 3 6 -14 31 -19 36 -19
24z"/>
<path d="M5960 13884 c0 -3 9 -18 19 -32 54 -76 117 -295 146 -507 3 -22 8
-51 11 -65 2 -14 7 -43 9 -64 3 -22 7 -51 10 -65 2 -14 6 -51 10 -81 3 -30 8
-66 10 -80 2 -14 7 -50 10 -80 9 -81 16 -133 20 -150 2 -8 7 -44 10 -80 9 -90
78 -494 115 -675 52 -249 51 -247 55 -243 2 2 0 36 -5 75 -16 126 -23 196 -35
343 -13 159 -15 188 -20 290 -3 58 -7 125 -10 150 -2 25 -6 86 -10 135 -3 50
-8 101 -10 115 -2 14 -6 56 -10 93 -3 37 -8 76 -10 86 -2 10 -6 42 -10 72 -3
30 -8 61 -10 69 -2 8 -7 31 -10 50 -3 19 -13 66 -21 103 -9 38 -14 70 -12 73
3 2 11 -22 18 -53 6 -32 16 -65 22 -73 7 -12 8 -11 4 5 -2 11 -8 47 -11 80
-10 91 -15 128 -20 155 -2 14 -7 45 -10 70 -3 25 -8 54 -10 65 -5 31 -19 129
-19 140 -1 6 -48 27 -106 47 -112 39 -120 41 -120 32z m250 -449 c0 -5 -5 -3
-10 5 -5 8 -10 20 -10 25 0 6 5 3 10 -5 5 -8 10 -19 10 -25z"/>
<path d="M18828 13803 c7 -3 16 -2 19 1 4 3 -2 6 -13 5 -11 0 -14 -3 -6 -6z"/>
<path d="M3176 13787 c3 -10 9 -15 12 -12 3 3 0 11 -7 18 -10 9 -11 8 -5 -6z"/>
<path d="M3191 13759 c-1 -9 25 -72 102 -244 43 -96 235 -474 257 -505 9 -14
29 -48 44 -77 14 -28 30 -55 36 -58 6 -4 -3 19 -21 52 -18 32 -49 87 -69 123
-39 70 -221 437 -265 535 -58 127 -84 180 -84 174z"/>
<path d="M3740 13634 c0 -6 7 -19 16 -30 14 -18 14 -18 3 6 -14 31 -19 36 -19
24z"/>
<path d="M3320 13565 c0 -5 5 -17 10 -25 5 -8 10 -10 10 -5 0 6 -5 17 -10 25
-5 8 -10 11 -10 5z"/>
<path d="M3780 13545 c0 -5 5 -17 10 -25 5 -8 10 -10 10 -5 0 6 -5 17 -10 25
-5 8 -10 11 -10 5z"/>
<path d="M3810 13475 c0 -5 5 -17 10 -25 5 -8 10 -10 10 -5 0 6 -5 17 -10 25
-5 8 -10 11 -10 5z"/>
<path d="M3850 13385 c0 -5 5 -17 10 -25 5 -8 10 -10 10 -5 0 6 -5 17 -10 25
-5 8 -10 11 -10 5z"/>
<path d="M3885 13310 c9 -16 18 -30 21 -30 2 0 -2 14 -11 30 -9 17 -18 30 -21
30 -2 0 2 -13 11 -30z"/>
<path d="M3910 13265 c0 -5 5 -17 10 -25 5 -8 10 -10 10 -5 0 6 -5 17 -10 25
-5 8 -10 11 -10 5z"/>
<path d="M2600 13211 c5 -11 15 -23 21 -27 6 -3 3 5 -6 20 -20 30 -30 35 -15
7z"/>
<path d="M2645 13146 c10 -14 19 -26 22 -26 7 0 -17 39 -28 46 -6 3 -3 -5 6
-20z"/>
<path d="M2700 13066 c0 -2 8 -10 18 -17 15 -13 16 -12 3 4 -13 16 -21 21 -21
13z"/>
<path d="M7638 12913 c7 -3 16 -2 19 1 4 3 -2 6 -13 5 -11 0 -14 -3 -6 -6z"/>
<path d="M3670 12860 c6 -11 13 -20 16 -20 2 0 0 9 -6 20 -6 11 -13 20 -16 20
-2 0 0 -9 6 -20z"/>
<path d="M3650 12831 c0 -5 5 -13 10 -16 6 -3 10 -2 10 4 0 5 -4 13 -10 16 -5
3 -10 2 -10 -4z"/>
<path d="M3690 12821 c0 -6 4 -13 10 -16 6 -3 7 1 4 9 -7 18 -14 21 -14 7z"/>
<path d="M10460 12776 c0 -2 7 -7 16 -10 8 -3 12 -2 9 4 -6 10 -25 14 -25 6z"/>
<path d="M3760 12700 c6 -11 13 -20 16 -20 2 0 0 9 -6 20 -6 11 -13 20 -16 20
-2 0 0 -9 6 -20z"/>
<path d="M8607 12659 c7 -7 15 -10 18 -7 3 3 -2 9 -12 12 -14 6 -15 5 -6 -5z"/>
<path d="M10275 12160 c-3 -5 -1 -10 4 -10 6 0 11 5 11 10 0 6 -2 10 -4 10 -3
0 -8 -4 -11 -10z"/>
<path d="M17790 10960 c0 -5 5 -10 10 -10 6 0 10 5 10 10 0 6 -4 10 -10 10 -5
0 -10 -4 -10 -10z"/>
<path d="M17828 10953 c7 -3 16 -2 19 1 4 3 -2 6 -13 5 -11 0 -14 -3 -6 -6z"/>
<path d="M5736 10687 c3 -10 9 -15 12 -12 3 3 0 11 -7 18 -10 9 -11 8 -5 -6z"/>
<path d="M8584 10400 c3 -74 8 -146 11 -160 3 -14 8 -41 11 -60 10 -62 43
-173 75 -255 31 -82 109 -228 117 -220 3 2 0 10 -5 17 -16 20 -81 188 -109
281 -45 149 -78 317 -90 454 -10 118 -17 83 -10 -57z"/>
<path d="M5627 10399 c7 -7 15 -10 18 -7 3 3 -2 9 -12 12 -14 6 -15 5 -6 -5z"/>
<path d="M6683 6955 c-3 -9 -3 -18 -1 -21 3 -3 8 4 11 16 6 23 -1 27 -10 5z"/>
<path d="M7610 5946 c0 -2 7 -6 15 -10 8 -3 15 -1 15 4 0 6 -7 10 -15 10 -8 0
-15 -2 -15 -4z"/>
<path d="M8273 5183 c9 -2 23 -2 30 0 6 3 -1 5 -18 5 -16 0 -22 -2 -12 -5z"/>
<path d="M9685 5020 c-3 -6 1 -7 9 -4 18 7 21 14 7 14 -6 0 -13 -4 -16 -10z"/>
</g>
</svg>
