<svg version="1.1" xmlns="http://www.w3.org/2000/svg" xmlns:xlink="http://www.w3.org/1999/xlink" x="0px" y="0px"
	 width="154.64px" height="73.26px" viewBox="0 0 154.64 73.26" style="enable-background:new 0 0 154.64 73.26;"
	 xml:space="preserve">
<style type="text/css">
	.st0{fill-rule:evenodd;clip-rule:evenodd;fill:#D8CAA1;}
	.st1{fill:#D8CAA1;}
</style>
<defs>
</defs>
<g>
	<g>
		<path class="st0" d="M99.96,8.19c0.98-0.36,2.09-0.54,3.31-0.44c-1.22-0.13-2.32,0.01-3.29,0.35c0-0.02,0.01-0.04,0.01-0.07
			c-0.01,0.02-0.01,0.05-0.02,0.07c-4.17,1.43-5.84,6.28-3.49,6.81c-0.07,0.04-0.14,0.09-0.21,0.13c-0.86-0.33-1.13-0.47-1.15-1.08
			c-0.01-0.24,0.15-0.93,0.05-1.5c-0.14-0.81-0.49-1,0.19-2.21c0.74-1.31,2.05-2.79,3.48-4.26c-1.44,1.33-2.94,2.96-3.73,4.39
			c-0.78,1.42-0.23,1.58-0.17,2.21c0.05,0.46-0.07,1.03-0.07,1.55c0,0.43,0.15,0.72,1.17,1.02c-0.02,0.01-0.03,0.02-0.05,0.03
			c-0.95-0.03-1.66-0.35-2.31-0.71c-0.06-0.87,0.75-2.07,0.93-3.6c0.11-0.93-0.36-1.2-1.25-1.06c0.58-0.57,1.25-1.2,2.04-1.88
			c-0.84,0.7-1.56,1.33-2.16,1.91c-0.68,0.13-1.57,0.47-2.64,0.95c1.04-0.4,1.85-0.66,2.45-0.76c-1.41,1.37-2.18,2.44-2.48,3.32
			c-0.2-0.43-0.36-0.87-0.56-1.29c0.01-0.03,0.03-0.05,0.04-0.08c0.71-1.38,0.12-1.88-0.99-2.06c1.29,0.38,1.28,0.99,0.86,1.96
			c-0.06-0.13-0.13-0.26-0.21-0.38c-0.78-1.24-1.81-1.89-3.23-2.66c1.16,0.79,2.31,1.55,2.93,2.63c-0.06,0.43-0.45,1.06-0.83,1.76
			c-0.23-0.17-0.51-0.35-0.84-0.54c-0.26-0.15-0.51-0.29-0.77-0.42c0.33-0.57,0.91-1.15,1.55-1.49c-0.66,0.28-1.29,0.84-1.67,1.43
			c-0.64-0.33-1.32-0.63-2.18-0.99c0.05-0.68,0.15-1.4,0.33-2.16c-0.25,0.7-0.42,1.4-0.51,2.08c-0.3-0.13-0.63-0.26-0.98-0.41
			c0.35,0.18,0.67,0.34,0.97,0.49c-0.12,0.95-0.08,1.87,0.1,2.71c-0.18-0.15-0.36-0.3-0.55-0.45c-0.03-0.08-0.06-0.15-0.09-0.24
			c-0.54-1.47-1.22-2.36-2.13-2.84c0.03-0.43,0.09-0.87,0.16-1.32c-0.12,0.42-0.21,0.84-0.28,1.26c-0.49-0.24-1.03-0.37-1.65-0.41
			c0.63,0.16,1.17,0.33,1.63,0.57c-0.01,0.06-0.02,0.11-0.02,0.17c-0.19-0.09-0.4-0.16-0.63-0.22c0.24,0.09,0.44,0.19,0.62,0.3
			c-0.04,0.34-0.06,0.67-0.07,1c-0.66-0.38-1.4-0.72-2.24-0.98c0.86,0.36,1.59,0.76,2.23,1.17c0,0.27,0.01,0.54,0.04,0.81
			c-1.27-1.22-2.96-1.67-4.61-1.83c1.98,0.41,3.54,0.99,4.65,2.22c0.22,1.67,0.91,3.17,2.01,4.27c0.75,0.75,1.71,1.17,2.78,1.33
			c0.1,0.03,0.21,0.06,0.32,0.09c-0.05-0.02-0.11-0.04-0.16-0.06c0.84,0.1,1.75,0.03,2.67-0.18c0.62-0.04,1.3-0.14,2.02-0.27
			c-0.05,0.03-0.09,0.06-0.14,0.09c-1.92,0.56-3.34,0.65-4.39,0.42c0.95,0.32,2.12,0.4,3.59,0.1c-0.09,0.06-0.18,0.12-0.28,0.18
			c-2.18,0.44-3.72,0.27-4.89-0.28c-0.02-0.01-0.04-0.02-0.05-0.03c-0.09-0.04-0.18-0.09-0.27-0.14c-0.58-0.33-1.07-0.76-1.49-1.24
			c-0.75-0.86-1.34-1.78-2.04-2.6c-0.22-0.65-0.54-1.21-1.2-1.85c0.46,0.54,0.75,1.03,0.94,1.56c-0.08-0.09-0.16-0.17-0.24-0.26
			c-0.31-0.32-0.66-0.62-1.05-0.89c-0.4-0.52-1.03-0.78-1.82-0.86c0.54,0.13,0.95,0.3,1.24,0.51c-0.13-0.07-0.27-0.14-0.42-0.2
			c0.19,0.09,0.36,0.19,0.53,0.29c-0.15-0.08-0.3-0.15-0.46-0.22c0.2,0.1,0.39,0.21,0.57,0.32c0.24,0.23,0.38,0.51,0.47,0.82
			c-0.34-0.23-0.7-0.42-1.07-0.58c-0.28-0.38-0.68-0.74-1.17-1.08c0.15-0.06,0.31-0.12,0.47-0.17c-0.17,0.05-0.33,0.1-0.49,0.16
			c-0.37-0.26-0.79-0.51-1.26-0.75c0.4,0.28,0.77,0.54,1.1,0.8c-0.53,0.2-0.98,0.45-1.36,0.72c-0.03-0.02-0.06-0.04-0.09-0.06
			c0.2-0.13,0.41-0.26,0.64-0.37c-0.24,0.1-0.46,0.22-0.67,0.35c-0.53-0.33-1.19-0.62-2.03-0.88c0.8,0.3,1.43,0.61,1.93,0.94
			c-0.1,0.07-0.2,0.14-0.29,0.21c-0.66-0.64-1.53-1.17-2.78-1.53c1.21,0.44,2.05,0.99,2.66,1.63c0,0-0.01,0.01-0.01,0.01
			c-0.15-0.04-0.3-0.08-0.46-0.12c0.16,0.04,0.3,0.08,0.45,0.13c-0.16,0.14-0.31,0.28-0.45,0.43c-0.77-1.17-1.93-2.12-4.02-2.69
			c2.01,0.61,3.12,1.65,3.85,2.9c-0.09,0.11-0.17,0.23-0.25,0.35c-0.05-0.1-0.11-0.2-0.17-0.29c0.02-0.03,0.03-0.06,0.05-0.08
			c-0.02,0.02-0.04,0.04-0.06,0.07c-1.01-1.67-2.74-3.05-6.43-3.72c3.63,0.8,5.31,2.2,6.27,3.88c-1.21,1.4-1.63,4.91-0.23,6.96
			c-1.12-1.25-1.11-3.03-1.12-4.71c-0.01-1.55-0.06-3-1.3-3.92c1.28,1.63,1.15,3.03,1.07,4.44c0.15,1.5,0.24,2.91,0.79,3.74
			c0.42,0.61,1.03,1.09,2.02,1.43c0.32,0.43,0.68,0.82,1.06,1.14c-0.24-0.02-0.46-0.05-0.67-0.09c-1.43-0.27-2.44-0.82-3.16-1.55
			c-1.17-0.93-1.91-2.28-1.81-4.14c0.03-0.56,0.15-1.16,0.27-1.81c0.06-0.79,0.16-1.59,0.25-2.4c0-0.27-0.01-0.56-0.04-0.85
			c0.03,0.17,0.06,0.34,0.08,0.51c0.01-0.08,0.02-0.17,0.03-0.25c-0.01-0.03-0.02-0.05-0.03-0.08c0.01,0.02,0.02,0.04,0.04,0.06
			c0.01-0.07,0.01-0.14,0.02-0.21c-0.07-0.05-0.15-0.1-0.23-0.15c0.28,1.08-0.24,2.5-0.45,4.01c-0.21,1.53-0.12,3.15,1.04,4.62
			c-2.12-2.31-1.17-4.73-0.88-7.49c0.17-1.6-1.79-2.28-2.99-2.48c-0.65,2.36-0.72,3.81-0.44,5.1c0.28,1.28,0.88,2.41,1.74,4.13
			c0.26,0.28,0.53,0.55,0.84,0.82c-0.44-0.47-0.81-0.98-1.13-1.54c-0.64-1.11-1.02-2.33-1.18-3.64c-0.32-2.05,0.08-3.83,0.19-4.76
			c-0.04,0.37-0.07,0.73-0.1,1.09c0.04-0.26,0.09-0.53,0.14-0.79c0-0.03,0-0.05,0-0.08c0-0.02,0-0.04,0-0.06c0,0.02,0,0.04,0,0.06
			c0-0.03,0-0.07,0.01-0.1c0,0.04,0,0.09,0,0.13c0.02-0.08,0.03-0.16,0.05-0.24c0.02,0.01,0.03,0.02,0.05,0.02
			c-0.01-0.03-0.02-0.05-0.03-0.08c0.02,0.03,0.03,0.06,0.05,0.09c3.36,1.47,2.31,1.6,2.17,5.07c-0.13,3.37,1.08,5.63,5.1,7.16
			c0.21,0.06,0.43,0.12,0.65,0.17c-0.7-0.02-1.4-0.08-2.07-0.17c-0.36-0.1-0.7-0.22-1.03-0.35c0.16,0.09,0.33,0.18,0.5,0.27
			c-0.05-0.01-0.1-0.02-0.15-0.03c-2.69-1.25-4.42-2.79-5.46-4.76c-1.11-2.11-1.33-4.58-0.74-7.79c-0.43,3.46-0.17,5.84,0.93,7.83
			c0.32,0.59,0.71,1.13,1.17,1.65c-1.73-2.51-2.22-4.63-2.26-6.45c-0.04-1.8,0.41-3.32,0.13-4.62c0.02,1.44-0.37,2.39-0.57,3.52
			c-0.21,1.14-0.24,2.49,0.37,4.77c-0.73-2.2-0.75-4-0.53-5.39c0.21-1.38,0.6-2.39,0.29-2.98c-0.68-0.75-1.87-1.08-2.96-1.43
			c0.27,0.34,0.51,0.67,0.72,0.99c-0.04-0.09-0.08-0.18-0.12-0.27c0.08,0.15,0.15,0.29,0.22,0.43c1.54,2.44,1.27,4.13,1.54,6.1
			c0.29,2.18,1.23,4.7,4.62,7.68c-0.25-0.09-0.5-0.19-0.75-0.29c-2.7-1.9-4.12-4-4.9-6.16c-0.32-0.89-0.53-1.77-0.68-2.7
			c0.04,0.37,0.08,0.75,0.16,1.14c0.42,2.25,1.63,4.69,4.61,7.3c-2.1-1.58-3.36-3.36-4.09-5.13c0.16,0.49,0.33,0.99,0.53,1.48
			c0.65,1.11,1.56,2.18,2.98,3.44c-0.75-0.38-1.49-0.8-2.21-1.25c-1.35-1.09-2.33-2.21-3.1-3.39c-1.29-1.97-1.95-4.04-2.58-6.57
			c0.63,2.13,1.21,4.19,2.83,6.57c-1.23-2.18-1.87-3.8-2.44-5.7c-0.65-2.18-0.34-3.25-0.52-5.06c2.42,1.09,2.22,3.64,2.98,6.66
			c-0.37-2.02-0.4-2.9-0.95-4.98c0.63,1.54,0.84,2.99,1.1,4.43c0.27,1.48,0.58,2.96,1.27,4.6c0.18,0.43,0.39,0.85,0.63,1.26
			c-1.5-3.38-1.86-6.03-2.17-8.01c-0.29-1.91-0.67-3.21-2.95-4.04c-0.15,2.79,0,3.88,0.82,6.89c-1.22-3.38-1.07-4.74-1.02-7
			c-2.12-1.74-4.23-2.66-5.57-3.21c-0.12,1.26,0.39,3.47,1.24,5.51c0.63,1.52,1.57,3.54,2.69,5c-1.14-1.38-1.85-2.74-2.37-3.87
			c0.25,0.62,0.5,1.17,0.73,1.57c0.75,1.31,1.74,2.56,2.9,3.88c-1.63-2.04-3.12-4.43-4.15-7.2c0.08,0.17,0.16,0.33,0.24,0.5
			c-0.38-0.94-0.63-1.78-0.78-2.48c0.73,2.27,1.64,4.31,2.99,6.38c1.1,1.7,2.47,3.42,4.2,5.32c-1.86-2.15-3.42-4.15-4.74-6.26
			c-1.51-2.43-2.51-5.09-2.94-8.33c0.1,0.05,0.2,0.1,0.31,0.15c0.57,3.22,1.37,5.64,2.71,7.94c1.23,2.12,2.79,4.2,4.95,6.8
			c-0.24-0.2-0.48-0.4-0.72-0.6c0,0,0,0,0,0c-1.99-1.69-3.86-3.57-5.55-5.64c-1.09-1.75-1.75-3.61-1.97-5.72
			c-0.27-1.22-0.37-2.33-0.2-3.07c-0.05,0.56,0,1.27,0.13,2.05c-0.02-0.64-0.01-1.31,0.05-2c0.05,0.4,0.14,0.84,0.23,1.3
			c-0.06-0.41-0.1-0.84-0.15-1.3C53.3,2.3,52.37,2.01,51.5,1.23c0.29,0.3,0.54,0.59,0.77,0.88c0.61,0.23,1.26,0.43,1.87,0.77
			c-0.14,0.77-0.06,1.53,0.12,3.13c-0.24-1.46-0.81-2.42-1.57-3.34c0.11,0.16,0.21,0.31,0.3,0.47c0.35,0.55,0.65,1.16,0.9,1.77
			c0.21,0.51,0.37,1.14,0.56,1.93c0.25,0.89,0.48,1.75,0.75,2.47c-0.04-0.09-0.08-0.19-0.12-0.29c0.02,0.07,0.05,0.13,0.08,0.2
			c0.36,0.75,0.77,1.54,1.27,2.35c-0.11-0.14-0.22-0.27-0.33-0.41c-0.13-0.22-0.26-0.43-0.38-0.65c0.04,0.08,0.08,0.16,0.12,0.25
			c0.07,0.12,0.16,0.25,0.24,0.38c-1.19-1.5-2.29-3.1-3.27-4.81c1.33,2.46,2.88,4.68,4.59,6.69c0.34,0.47,0.72,0.95,1.13,1.44
			c0.3,0.3,0.6,0.6,0.9,0.89c-0.64-0.66-1.21-1.32-1.74-1.99c1.79,2.06,3.75,3.9,5.82,5.54c2.88,2.28,6.02,4.14,9.48,4.85
			c2.15,0.44,4.49,0.46,6.92,0.07c-0.06,0.04-0.12,0.08-0.18,0.12c-1.06,0.17-2.11,0.27-3.13,0.29c-2.39,0.87-3.86,1.82-4.87,2.77
			c-0.93,0.88-1.49,1.83-2,2.7c1.02-1.09,1.72-2.02,3.31-3.51c0.05-0.01,0.1-0.02,0.15-0.03c-0.94,1.05-1.58,2.1-2.26,3.05
			c-0.82,1.15-1.7,2.08-3.21,2.43c1.65-0.17,2.57-1.1,3.43-2.31c0.71-1,1.39-2.15,2.45-3.27c0.09-0.02,0.17-0.04,0.26-0.06
			c-0.53,0.8-1.19,1.96-1.95,3.05c-0.99,1.41-2.18,2.67-3.5,2.82c1.47,0.07,2.7-1.2,3.8-2.69c0.87-1.18,1.67-2.46,2.49-3.41
			c0.08-0.02,0.16-0.05,0.24-0.07c-0.74,1.05-1.37,2.22-2.13,3.34c-0.93,1.38-2.07,2.57-3.85,3.08c1.73-0.15,3.29-1.78,4.66-3.49
			c1.16-1.45,2.2-2.87,3.1-3.55c0.12-0.05,0.24-0.09,0.37-0.15c-1.31,1.13-1.92,2.24-2.63,3.4c-0.75,1.22-1.62,2.44-3.53,3.56
			c1.75-0.7,3.04-2.12,3.73-3c0.57-0.73,1.01-1.31,1.39-1.79c-1.18,1.28-2,2.72-3.64,3.91c1.51-1.27,2.36-2.65,3.34-3.8
			c0.64-0.75,1.34-1.41,2.32-1.97c-0.21,0.2-0.4,0.39-0.58,0.59c-0.4,0.28-0.76,0.58-1.08,0.9c0.23-0.15,0.46-0.31,0.7-0.46
			c-0.97,1.2-1.45,2.35-2.07,3.4c-1.04,1.75-2.51,3.11-7.06,2.49c4.65,0.94,6.25-0.6,7.43-2.54c0.75-1.23,1.35-2.57,2.57-3.87
			c0.15-0.08,0.3-0.17,0.45-0.25c-1.4,1.5-2.09,3.09-2.86,4.6c-1.06,2.07-2.3,3.93-5.51,4.48c3.38-0.4,4.58-2.22,5.71-4.37
			c0.85-1.62,1.68-3.38,3.51-5.14c0.03-0.01,0.05-0.02,0.08-0.04c-0.9,0.93-1.49,1.9-1.93,2.86c-0.65,1.41-0.99,2.79-1.52,3.9
			c-0.34,0.71-0.82,1.31-1.37,1.83c-0.35,0.22-0.73,0.44-1.17,0.67c0.32-0.13,0.6-0.26,0.87-0.39c-0.67,0.57-1.43,1.03-2.19,1.42
			c0.99-0.34,1.96-0.89,2.78-1.72c2.1-1.18,2.59-2.49,3.08-4c0.87-2.66,1.84-4.1,2.98-5.19c0.11-0.04,0.22-0.07,0.32-0.11
			c-0.25,0.22-0.49,0.46-0.74,0.73c-1.06,1.17-2.01,2.88-2.37,5.32c-0.07,0.47-0.13,0.96-0.29,1.46c-1.14,1.39-2.46,2.62-4.35,3.78
			c1.69-0.86,3.02-2,4.16-3.28c-0.44,0.96-1.32,1.95-3.32,2.92c2.26-1.06,3.12-2.08,3.53-3.17c0.3-0.35,0.6-0.72,0.88-1.1
			c-0.06,0.66-0.15,1.37-0.37,2.16c-0.07,0.26-0.19,0.52-0.37,0.79c-0.54,0.45-1.09,0.85-1.65,1.2c0.51-0.28,0.99-0.59,1.45-0.92
			c-0.18,0.24-0.39,0.49-0.63,0.75c-0.01,0.01-0.02,0.02-0.04,0.02c0.01,0,0.02-0.01,0.03-0.01c-0.48,0.51-1.08,1.06-1.75,1.66
			c0.81-0.61,1.52-1.22,2.06-1.81c0.91-0.47,1.65-1.15,1.97-2.1c0.34-0.39,0.67-0.83,0.99-1.33c-0.24,0.72-0.59,1.41-1.2,2.26
			c0.89-1.1,1.28-1.9,1.53-2.82c0.09-0.16,0.18-0.33,0.27-0.49c0.64-0.93,1.19-1.93,1.81-2.96c0.62-1.04,1.33-2.14,2.29-3.31
			c0.65-0.79,1.43-1.62,2.37-2.5c0.53-0.39,0.99-0.77,1.47-1.17c-0.17,0.11-0.35,0.22-0.52,0.32c0.09-0.05,0.18-0.1,0.28-0.15
			c-0.17,0.12-0.34,0.23-0.5,0.34c0.09-0.08,0.17-0.15,0.26-0.23c0.35-0.21,0.7-0.42,1.05-0.64c-0.26,0.2-0.51,0.39-0.77,0.58
			c-2.65,2.12-4.25,4.16-5.38,6.06c-1.12,1.88-1.82,3.71-2.67,5.17c-1.29,2.21-3.14,3.68-5.16,4.79c2.01-0.8,3.84-2.24,5.34-4.7
			c1.04-1.71,1.69-3.52,2.89-5.45c1.15-1.86,2.86-3.93,6.02-6.6c0.09-0.06,0.17-0.11,0.26-0.17c-2.27,1.9-4.42,4.24-5.97,6.66
			c-1.36,2.14-2.33,4.48-2.64,6.69c-0.68,0.64-1.42,1.29-2.26,1.96c0.81-0.58,1.55-1.18,2.23-1.79c-0.04,0.31-0.06,0.61-0.08,0.91
			c-0.34,0.36-0.73,0.73-1.22,1.11c0.47-0.32,0.87-0.65,1.22-0.99c0,0.09,0,0.19,0,0.28c-0.62,0.59-1.32,1.09-2.15,1.64
			c0.78-0.41,1.5-0.89,2.15-1.5c0,0.21,0.01,0.42,0.03,0.63c0.01-0.24,0.03-0.47,0.05-0.7c0.95-0.9,1.77-2.06,2.39-3.62
			c0.05-0.12,0.09-0.23,0.14-0.35c0.27-0.31,0.53-0.63,0.78-0.95c-0.21,0.74-0.36,1.46-0.44,2.16c-0.3,0.28-0.62,0.58-0.97,0.91
			c0.34-0.3,0.66-0.57,0.97-0.84c-0.08,0.83-0.06,1.62,0.08,2.36c-0.03-0.85,0.02-1.7,0.14-2.55c1.04-0.92,1.86-1.7,2.59-2.56
			c0.31,0.38,0.96,0.48,1.68,0.22c-0.68,0.16-1.27,0-1.53-0.41c0.29-0.35,0.56-0.72,0.83-1.12c0.28-0.41,0.51-0.78,0.71-1.11
			c0.32,0.4,0.69,0.7,0.86,1.06c-0.73,1.86-2.13,3.7-3.57,5.32c1.57-1.63,2.79-3.16,3.64-5.11c0.03,0.12,0.03,0.25,0,0.39
			c0.1-0.24,0.12-0.44,0.09-0.62c0.06-0.14,0.12-0.28,0.17-0.42c0.02-0.06,0.04-0.13,0.07-0.19c0.02,0.03,0.03,0.05,0.05,0.08
			c0.4,0.68,0.32,1.48-1.12,3.33c1.2-1.35,1.92-2.71,1.29-3.54c-0.04-0.06-0.08-0.11-0.12-0.16c0.23-0.68,0.38-1.34,0.53-2
			c0.25,0.58,0.81,0.92,1.8,0.96c-0.45,0.43-0.96,0.88-1.56,1.37c0.63-0.46,1.21-0.91,1.7-1.37c0.61,0,1.36-0.1,2.28-0.33
			c-0.86,0.16-1.56,0.22-2.14,0.19c1.31-1.23,2.06-2.46,1.98-3.76c-0.03-0.54-0.14-0.93-0.27-1.26c0.16-0.1,0.32-0.21,0.48-0.32
			c-0.12,0.54-0.18,1.07,0.23,1.56c0.66,0.8,1.84,1.12,2.99,1.22c-1.12-0.31-2.17-0.64-2.77-1.36c-0.4-0.47-0.34-0.95-0.22-1.59
			c0.19-0.15,0.38-0.3,0.55-0.45c0.6,1.56,2.57,1.99,5.61-0.51c0.32,0.3,0.56,0.79,0.75,1.53c-0.08-0.82-0.29-1.34-0.58-1.67
			c0.36-0.31,0.74-0.66,1.13-1.05c-0.41,0.38-0.8,0.71-1.18,1.01c-0.63-0.66-1.65-0.45-2.77-0.28c-0.86,0.13-1.52,0.14-1.95-0.04
			c1.12-1.2,2.02-2.3,3.44-2.12c-1.67-0.29-2.47,0.81-3.6,2.03c-0.65-0.43-0.51-1.51,0.59-3.66c1.5-0.87,3-1.59,4.45-2.13
			c0.69-0.24,1.03-0.51,1.08-0.67c0.01,0,0.03,0,0.04,0.01c-0.01-0.01-0.02-0.02-0.03-0.03c0.02-0.17-0.33-0.22-0.96,0.01
			c-0.05,0.02-0.09,0.03-0.11,0.04c-1.6,0.63-3.14,1.48-4.67,2.42c-0.69-0.68-1-1.15-0.97-1.59C96.07,11.62,99.35,10.85,99.96,8.19z
			 M92.76,20.75c-0.08-0.11-0.13-0.26-0.13-0.48c0-0.3,0.1-0.7,0.3-1.2c0.46-0.75,1.03-1.58,1.73-2.5c0.03-0.02,0.06-0.04,0.09-0.06
			c-0.69,1.2-1.01,1.97-1.1,2.51C93.31,19.63,93.03,20.21,92.76,20.75z M94.05,20.65c-0.44,0.22-0.82,0.33-1.08,0.25
			c0.22-0.41,0.43-0.84,0.65-1.26C93.68,20,93.87,20.28,94.05,20.65z M92.52,17.5c-0.09,0-0.18,0.01-0.26,0.01
			c0.06-0.02,0.13-0.04,0.19-0.06c0.01,0,0.01,0,0.02,0c0.04,0,0.08,0,0.12,0C92.56,17.47,92.54,17.49,92.52,17.5z M91.97,17.1
			c0.41,0.01,0.82,0,1.19-0.03c-0.04,0.03-0.09,0.06-0.13,0.09C92.67,17.15,92.31,17.13,91.97,17.1z M90.17,16.79
			c0.15,0.06,0.31,0.11,0.48,0.15c-0.84-0.14-1.61-0.35-2.33-0.63c-0.28-0.45-0.29-0.99-0.17-1.52c0.05-0.2,0.11-0.4,0.19-0.59
			c0.17-0.01,0.34-0.04,0.51-0.06C88.47,15.19,88.53,16.14,90.17,16.79z M94.07,16.97c0.07-0.05,0.14-0.09,0.21-0.14
			c-0.26,0.32-0.5,0.64-0.72,0.94c0.1-0.17,0.2-0.35,0.31-0.53C93.94,17.15,94.01,17.06,94.07,16.97z M93.66,16.74
			c-0.37-0.11-0.74-0.24-1.07-0.38c0.43,0.04,0.94,0.07,1.53,0.08C93.96,16.54,93.81,16.64,93.66,16.74z M93.21,16.87
			c-0.89,0.03-2.01,0.02-2.85-0.28c-1.48-0.54-1.69-1.28-1.28-2.49c0.32,0.37,0.5,0.71,0.74,1.06c0.3,0.44,0.76,0.84,1.9,1.07
			C92.17,16.49,92.68,16.7,93.21,16.87z M90.64,17.64c-1.61,0.17-3.04-0.01-4.08-0.81c-0.68-0.52-1.18-1.24-1.5-2.13
			c0.1,0.08,0.21,0.17,0.31,0.25c0.77,0.6,1.62,1.1,2.64,1.49C88.35,17.03,89.14,17.48,90.64,17.64z M88.61,16.66
			c0.98,0.32,2.11,0.57,3.46,0.75c-0.17,0.04-0.33,0.07-0.49,0.1C90.04,17.44,89.12,17.12,88.61,16.66z M93.53,17.39
			c0.03-0.04,0.06-0.07,0.09-0.11c0.01-0.01,0.03-0.02,0.04-0.03c-0.06,0.09-0.12,0.18-0.17,0.27c-0.07,0.09-0.14,0.19-0.21,0.28
			C93.36,17.66,93.45,17.53,93.53,17.39z M95.1,16.28c0.06-0.04,0.12-0.08,0.18-0.12c0.07-0.05,0.14-0.09,0.22-0.14
			c-0.53,0.74-0.97,1.42-1.33,2.06C94.34,17.61,94.64,17.03,95.1,16.28z M95.52,15.52c-0.03,0.02-0.06,0.04-0.1,0.06
			c0.02-0.02,0.04-0.04,0.05-0.07C95.49,15.52,95.5,15.52,95.52,15.52z M95.44,15.51c-0.04,0.05-0.08,0.09-0.13,0.14
			c-0.06,0.04-0.12,0.08-0.18,0.11c0,0-0.01,0-0.01,0c-0.6-0.17-0.98-0.38-1.2-0.63C94.34,15.3,94.83,15.44,95.44,15.51z
			 M94.1,15.69c-1.59-0.2-2.45-0.7-2.97-1.35c-0.13-0.16-0.23-0.33-0.33-0.5c0.3,0,0.59,0.03,0.87,0.12
			c0.59,0.2,1.07,0.58,1.72,0.91C93.46,15.18,93.68,15.45,94.1,15.69z M93.16,10.04c0.92-0.13,1.3,0.15,1.2,0.95
			c-0.19,1.45-0.87,2.52-0.99,3.34c-0.49-0.28-0.97-0.55-1.51-0.7c-0.4-0.11-0.79-0.12-1.18-0.07
			C90.91,12.67,91.67,11.55,93.16,10.04z M90.77,14.4c0.64,0.86,1.79,1.53,3.99,1.61c-0.13,0.08-0.25,0.17-0.38,0.25
			c-1.09-0.02-1.9-0.11-2.5-0.25c-0.73-0.43-1.24-0.98-1.29-1.73c0-0.05,0-0.09,0-0.14C90.65,14.23,90.71,14.32,90.77,14.4z
			 M91.08,15.76c-0.48-0.21-0.75-0.48-0.96-0.76c-0.24-0.33-0.42-0.63-0.71-0.96c0.34-0.07,0.68-0.13,1.01-0.17
			c-0.03,0.18-0.04,0.36-0.03,0.53C90.43,14.94,90.69,15.38,91.08,15.76z M90.3,13.61c-0.35,0.06-0.71,0.14-1.07,0.21
			c-0.01-0.01-0.02-0.02-0.04-0.03c0.16-0.4,0.37-0.85,0.63-1.35C89.97,12.82,90.11,13.22,90.3,13.61z M89.48,11.63
			c0.01,0.02,0.02,0.03,0.03,0.05c0.09,0.18,0.17,0.38,0.25,0.58c-0.23,0.47-0.49,0.95-0.7,1.4c-0.1-0.09-0.21-0.18-0.34-0.28
			C89.07,12.67,89.45,12.05,89.48,11.63z M88.59,13.62c0.11,0.09,0.2,0.18,0.29,0.27c-0.14,0.02-0.29,0.04-0.44,0.06
			C88.49,13.84,88.54,13.73,88.59,13.62z M86.87,12.47c0.24,0.13,0.47,0.27,0.71,0.41c0.35,0.22,0.64,0.42,0.87,0.61
			c-0.08,0.15-0.16,0.31-0.23,0.46c-0.21,0.01-0.41,0.01-0.63-0.01C86.62,13.85,86.52,13.19,86.87,12.47z M84.66,11.34
			c0.84,0.42,1.49,0.74,2.08,1.06c-0.47,0.82-0.41,1.65,0.78,1.79c0.2,0.02,0.39,0.03,0.59,0.02c-0.08,0.2-0.16,0.4-0.21,0.6
			c-0.13,0.45-0.16,0.91-0.03,1.32c-0.62-0.28-1.21-0.6-1.77-0.99c-0.41-0.28-0.8-0.59-1.19-0.91
			C84.67,13.38,84.59,12.41,84.66,11.34z M81.8,10.59c0.83,0.47,1.42,1.22,1.93,2.68c-0.13-0.1-0.25-0.2-0.38-0.3
			c-0.42-1.09-0.79-1.78-1.56-2.2C81.79,10.71,81.79,10.65,81.8,10.59z M81.78,10.86c0.67,0.46,1,1.07,1.3,1.9
			c-0.41-0.31-0.84-0.6-1.31-0.88C81.76,11.55,81.76,11.21,81.78,10.86z M85.79,18.4c-0.54-0.32-1-0.73-1.4-1.18
			c0.17,0.23,0.35,0.45,0.55,0.65c0.15,0.15,0.32,0.29,0.5,0.41c-0.57-0.2-1.09-0.49-1.53-0.91c-1.01-0.94-1.68-2.26-1.98-3.86
			c0.09,0.11,0.17,0.23,0.25,0.35c0.65,1,1.27,2.29,2.21,3.35c-0.81-1.09-1.28-2.39-2.02-3.52c-0.16-0.24-0.33-0.46-0.51-0.66
			c-0.04-0.31-0.07-0.62-0.09-0.95c0.52,0.35,0.99,0.7,1.44,1.07c0.2,0.6,0.42,1.3,0.75,2.12c0.91,2.26,2.21,3.14,3.99,3.3
			C87.19,18.64,86.46,18.58,85.79,18.4z M84.19,15.24c-0.27-0.7-0.49-1.31-0.68-1.83c0.13,0.11,0.26,0.21,0.38,0.32
			c0.52,1.45,1.18,2.88,2.36,3.8c0.54,0.42,1.21,0.69,2.06,0.78C86.49,18.25,85.08,17.53,84.19,15.24z M87.32,17.92
			c-1.2-0.49-2.18-1.64-3.1-3.91c0.16,0.13,0.31,0.26,0.47,0.4c0.3,1.02,0.83,1.89,1.58,2.52c1.28,1.08,3.21,1.23,5.26,0.77
			c0.02,0,0.04,0,0.06,0c0.28-0.05,0.56-0.09,0.84-0.13c-0.02,0.01-0.04,0.02-0.05,0.04C90.01,18.2,88.5,18.4,87.32,17.92z
			 M91,18.09c0.34-0.08,0.7-0.17,1.08-0.29c-0.07,0.05-0.15,0.1-0.22,0.15C91.57,17.99,91.28,18.04,91,18.09z M89.91,19.22
			C89.91,19.22,89.91,19.22,89.91,19.22c-0.11,0.07-0.22,0.14-0.33,0.21c-0.77,0.12-1.44,0.18-2.03,0.18
			C88.23,19.6,89.02,19.47,89.91,19.22z M83.11,24.24c-1.45,1.99-2.5,3.62-3.48,5.06c0.13-1.82,0.66-3.06,2.73-4.73
			c0.37-0.3,0.76-0.59,1.15-0.88c-0.09,0.12-0.17,0.24-0.26,0.35c-0.56,0.37-1.06,0.72-1.49,1.08c-0.14,0.12-0.28,0.25-0.41,0.37
			C81.88,25.05,82.48,24.64,83.11,24.24z M81.07,23.6c0.02,0,0.04-0.01,0.06-0.01c-0.04,0.02-0.08,0.04-0.12,0.06
			C81.03,23.63,81.05,23.62,81.07,23.6z M74.85,20.04c0.22,0.34,0.49,0.64,0.79,0.89c-0.19-0.12-0.37-0.25-0.55-0.39
			C75,20.38,74.92,20.21,74.85,20.04z M76.5,21.34c-0.85-1.08-1.51-2.34-1.78-3.61c-0.18-0.84-0.18-1.67,0.04-2.43
			c0.19,0.45,0.34,0.9,0.49,1.37c0.54,1.73,0.93,3.54,1.98,4.99c-0.02-0.01-0.04-0.01-0.06-0.02C76.93,21.56,76.71,21.46,76.5,21.34
			z M77.21,22.03c0.13,0.04,0.26,0.07,0.39,0.1c0.4,0.45,0.89,0.86,1.49,1.2c-0.13,0.02-0.26,0.03-0.38,0.04
			c-0.59-0.38-1.15-0.86-1.66-1.41C77.1,21.99,77.16,22.01,77.21,22.03z M83.1,21.16c-2.88-0.87-2.97-2.5-2.87-5.65
			c0.14,0.42,0.23,0.88,0.31,1.41c0.7,3.28,2.14,4.26,4.39,4.38c-0.01,0-0.01,0-0.02,0.01C84.29,21.36,83.66,21.33,83.1,21.16z
			 M80.06,22.37c0.28,0.22,0.58,0.43,0.93,0.63c-0.11,0.03-0.22,0.05-0.33,0.07c-0.42-0.21-0.78-0.45-1.12-0.7
			C79.71,22.37,79.88,22.38,80.06,22.37z M81.06,22.31c0.23,0.18,0.47,0.34,0.73,0.49c-0.07,0.02-0.14,0.04-0.22,0.06
			c-0.32-0.16-0.61-0.33-0.87-0.51C80.82,22.33,80.94,22.32,81.06,22.31z M82.05,22.19c0.29,0.13,0.58,0.22,0.86,0.29
			c-0.02,0.01-0.05,0.01-0.07,0.02c0.03,0,0.07-0.01,0.1-0.02c0.04,0.01,0.07,0.02,0.11,0.02c-0.19,0.04-0.37,0.07-0.55,0.1
			c-0.25-0.11-0.5-0.24-0.74-0.38C81.85,22.22,81.95,22.21,82.05,22.19z M82.63,22.1c0.2,0.09,0.42,0.18,0.66,0.26
			c-0.07,0.02-0.13,0.04-0.2,0.06c-0.27-0.07-0.53-0.16-0.78-0.27C82.41,22.13,82.52,22.12,82.63,22.1z M80.79,23.14
			c0.13-0.01,0.27-0.02,0.41-0.03c0,0,0.01,0,0.01,0.01c-0.13,0.01-0.27,0.03-0.39,0.04C80.81,23.14,80.8,23.14,80.79,23.14z
			 M83.46,22.42c-0.07,0.01-0.13,0.03-0.2,0.04c-0.03-0.01-0.06-0.01-0.09-0.02c0.08-0.01,0.16-0.03,0.25-0.04
			C83.44,22.41,83.45,22.42,83.46,22.42z M84.66,22.55c0.12-0.04,0.24-0.1,0.36-0.14c-0.18,0.12-0.36,0.24-0.54,0.36
			C84.54,22.69,84.6,22.62,84.66,22.55z M87.2,20.84c-0.04,0.02-0.09,0.05-0.13,0.07c-0.08,0.02-0.18,0.05-0.26,0.07
			C86.94,20.93,87.07,20.88,87.2,20.84z M85.85,21.42c-0.52,0.21-1.03,0.4-1.52,0.58c0.19-0.03,0.38-0.05,0.57-0.08
			c-0.22,0.04-0.44,0.07-0.66,0.11c-0.16,0.06-0.32,0.11-0.48,0.17c-0.23-0.06-0.45-0.13-0.66-0.2c0.62-0.13,1.24-0.28,1.86-0.45
			C85.26,21.53,85.56,21.48,85.85,21.42z M81.4,22c-1.15-0.81-2.15-2.18-2.99-5.03c-0.27-0.93-0.5-1.79-1-2.55
			c1.12,0.89,1.2,2,1.37,2.99c0.45,2.54,1.62,3.88,2.84,4.56C81.54,21.99,81.47,22,81.4,22z M78.19,17.34
			c0.66,2.31,1.43,3.72,2.56,4.72c-0.14,0.01-0.27,0.02-0.4,0.02c-1.5-1.24-2.09-3.01-2.65-4.71c-0.45-1.38-0.89-2.7-1.85-3.75
			c0.49,0.17,0.89,0.37,1.22,0.58C77.87,15.21,77.89,16.29,78.19,17.34z M77.28,17.24c0.44,1.68,0.9,3.46,2.42,4.84
			c-0.19,0-0.37-0.01-0.55-0.03c-1.55-1.39-2.18-3.26-2.78-5.05c-0.33-0.97-0.64-1.91-1.13-2.75c0.13-0.2,0.28-0.39,0.46-0.57
			C76.6,14.72,76.94,15.95,77.28,17.24z M78.78,22.33c0.34,0.32,0.72,0.62,1.17,0.88c-0.06,0.01-0.11,0.02-0.16,0.03
			c-0.59-0.26-1.08-0.59-1.5-0.97C78.45,22.3,78.61,22.31,78.78,22.33z M78.89,23.49c0.11,0,0.21,0,0.31,0.01
			c-0.08,0.01-0.15,0.02-0.23,0.03c-0.01,0-0.02,0-0.03,0C78.92,23.51,78.9,23.5,78.89,23.49z M82.86,23.15
			c-0.35,0.3-0.66,0.58-0.95,0.85c-0.1,0.03-0.2,0.07-0.31,0.1c0.38-0.34,0.79-0.65,1.21-0.93C82.82,23.16,82.84,23.15,82.86,23.15z
			 M83.41,22.98c0.29-0.09,0.58-0.19,0.87-0.3c-0.02,0.03-0.05,0.05-0.07,0.08c-0.1,0.13-0.2,0.26-0.3,0.39
			c-0.12,0.09-0.24,0.18-0.36,0.26c-0.4,0.16-0.8,0.3-1.2,0.43C82.68,23.57,83.03,23.28,83.41,22.98z M82.51,23.93
			c0.04-0.01-0.57,0.33-1.25,1c0.27-0.29,0.57-0.6,0.91-0.91C82.28,23.99,82.39,23.96,82.51,23.93z M81.95,24.66
			c0,0-0.01,0.01-0.01,0.01C81.94,24.67,81.95,24.67,81.95,24.66z M81.93,24.68c-0.1,0.08-0.19,0.17-0.28,0.25
			C81.74,24.84,81.83,24.76,81.93,24.68z M81.58,24.99c-0.04,0.04-0.08,0.07-0.11,0.11C81.5,25.06,81.54,25.03,81.58,24.99z
			 M84.04,23.32c0.71-0.51,1.42-0.97,2.02-1.37c0.08-0.04,0.16-0.08,0.24-0.12c-0.54,0.43-1.04,0.84-1.5,1.24
			c-0.39,0.24-0.76,0.47-1.1,0.69C83.81,23.61,83.92,23.47,84.04,23.32z M86.91,21.52c0.18-0.09,0.36-0.19,0.54-0.29
			c-0.06,0.04-0.12,0.08-0.18,0.12c-0.34,0.26-0.66,0.51-0.96,0.76c-0.11,0.07-0.23,0.14-0.33,0.21
			C86.29,22.06,86.6,21.79,86.91,21.52z M88.32,20.2c0.13-0.08,0.26-0.15,0.39-0.23c-0.28,0.11-0.57,0.22-0.85,0.33
			c-2.6,0.14-5.37-0.15-6.2-4.13c-0.01-0.06-0.03-0.12-0.04-0.19c1.34,1.88,2.49,4.59,7.21,3.91C88.66,20,88.49,20.1,88.32,20.2z
			 M83.33,17.78c0.66,0.79,1.48,1.4,2.59,1.68c-2.37-0.53-3.04-2.29-4.32-3.83c-0.03-0.03-0.05-0.06-0.08-0.09
			c-0.03-0.12-0.06-0.23-0.09-0.35C82.07,16.03,82.63,16.95,83.33,17.78z M81.37,15.66c0.03,0.17,0.07,0.35,0.1,0.54
			c0.82,3.86,2.66,4.53,5.65,4.37c-0.45,0.17-0.9,0.32-1.35,0.47c-2.22-0.05-4.33-0.76-5.04-4.15c-0.14-0.68-0.26-1.23-0.49-1.75
			c0-0.23-0.01-0.44-0.04-0.64C80.62,14.83,81.02,15.21,81.37,15.66z M79.88,13.55c0.05,0.03,0.09,0.07,0.14,0.1
			c0.44,0.36,0.81,0.77,1.16,1.2c0.04,0.13,0.08,0.27,0.11,0.41c-0.37-0.4-0.75-0.74-1.13-1.03C80.09,13.98,80,13.75,79.88,13.55z
			 M79.95,14.31c0.02,0.12,0.04,0.25,0.05,0.39c-0.15-0.24-0.33-0.48-0.56-0.73C79.62,14.08,79.79,14.19,79.95,14.31z M79.36,13.92
			c0.29,0.36,0.5,0.71,0.66,1.06c0,0.06,0,0.11,0.01,0.17c0.04,2.48-0.71,5.01,2.98,6.23c0.31,0.1,0.64,0.16,0.98,0.18
			c-0.11,0.03-0.23,0.06-0.34,0.09c-0.34,0.07-0.67,0.13-0.99,0.18c-1.58-0.65-2.28-1.62-2.63-2.73c-0.46-1.43-0.37-3.02-0.79-4.8
			c-0.05-0.21-0.14-0.41-0.26-0.61C79.1,13.77,79.23,13.84,79.36,13.92z M77.51,12.47c0.38,0.29,0.7,0.58,0.95,0.87
			c-0.41-0.16-0.84-0.29-1.3-0.4c0.49,0.16,0.97,0.35,1.44,0.58c0.21,0.27,0.35,0.54,0.41,0.84c0.4,1.77,0.23,3.25,0.62,4.65
			c0.31,1.09,0.97,2.09,2.57,2.9c-0.11,0.02-0.23,0.03-0.34,0.05c-1.5-0.82-2.63-2.4-3.02-4.71c-0.2-1.17-0.35-2.21-1.59-3.01
			c-0.27-0.36-0.61-0.7-1.07-1.01C76.57,12.94,77,12.69,77.51,12.47z M76.11,13.3c0.34,0.24,0.62,0.49,0.84,0.75
			c-0.32-0.17-0.69-0.32-1.13-0.47c0,0-0.01-0.01-0.01-0.01C75.9,13.48,76,13.39,76.11,13.3z M75.94,13.18
			c0.03,0.02,0.07,0.04,0.1,0.07c-0.11,0.08-0.21,0.16-0.3,0.25c-0.03-0.03-0.05-0.06-0.08-0.09
			C75.75,13.33,75.84,13.26,75.94,13.18z M75.55,13.51C75.55,13.51,75.55,13.51,75.55,13.51c0.03,0.03,0.06,0.06,0.09,0.1
			c-0.17,0.17-0.33,0.35-0.46,0.53c-0.03-0.05-0.06-0.09-0.08-0.13C75.22,13.83,75.38,13.66,75.55,13.51z M75.08,14.52
			c0.4,0.78,0.68,1.62,0.96,2.5c0.56,1.73,1.12,3.54,2.36,4.93c-0.19-0.03-0.37-0.07-0.55-0.11c-1.24-1.39-1.72-3.28-2.31-5.08
			c-0.2-0.61-0.41-1.2-0.68-1.77C74.93,14.83,74.99,14.67,75.08,14.52z M74.92,14.24c0.03,0.05,0.06,0.1,0.08,0.15
			c-0.08,0.14-0.16,0.28-0.22,0.42c-0.03-0.06-0.06-0.12-0.09-0.18C74.76,14.49,74.84,14.36,74.92,14.24z M74.66,15.09
			c-0.29,0.8-0.34,1.69-0.18,2.59c0.18,1.03,0.59,2.07,1.13,3.01c-0.43-0.4-0.8-0.91-1.08-1.53c-0.1-0.31-0.18-0.63-0.24-0.96
			c-0.22-1.17-0.15-2.34,0.29-3.34C74.6,14.95,74.63,15.02,74.66,15.09z M74.48,14.71c-0.53,0.94-0.72,2.05-0.62,3.2
			c0.05,0.6,0.18,1.2,0.36,1.79c-0.06-0.07-0.12-0.14-0.17-0.21c0-0.02-0.01-0.03-0.02-0.05c-0.54-1.71-0.51-3.6,0.29-5.04
			C74.37,14.5,74.43,14.6,74.48,14.71z M73.77,20.14c-0.41-0.75-0.57-1.64-0.43-2.75c0-0.25,0-0.51,0.02-0.79
			c0,0.2,0.01,0.39,0.01,0.58c0.08-0.54,0.21-1.12,0.42-1.77c-0.53,2.03-0.25,3.6,0.58,4.74c0.18,0.48,0.4,0.94,0.65,1.38
			c-0.15-0.11-0.29-0.23-0.42-0.35c0.14,0.16,0.3,0.3,0.47,0.42c0.06,0.1,0.12,0.2,0.19,0.3C74.58,21.5,74.09,20.94,73.77,20.14z
			 M76.43,22.37c-0.04-0.01-0.07-0.02-0.11-0.03c-0.32-0.34-0.61-0.73-0.88-1.16c0.24,0.17,0.49,0.32,0.76,0.45
			c0.54,0.75,1.14,1.4,1.74,1.87c-0.19-0.01-0.38-0.03-0.57-0.05c0.09-0.02,0.19-0.04,0.28-0.06c-0.4-0.2-0.79-0.5-1.15-0.86
			c0.14,0.03,0.29,0.06,0.44,0.08C76.77,22.53,76.6,22.45,76.43,22.37z M67.08,16.74c0.6,2.18,2.09,4.44,5.56,6.48
			c-0.05-0.01-0.1-0.02-0.15-0.03c-2.62-1.45-4.13-3.08-4.98-5.04c-0.95-2.19-0.96-4.68-0.36-7.93
			C66.99,12.26,66.44,14.45,67.08,16.74z M67.38,18.44c-0.81-1.74-1-3.77-0.53-6.72c-0.41,3.19-0.17,5.23,0.73,6.96
			c0.8,1.54,2.08,2.78,4.05,4.26c-0.18-0.06-0.36-0.11-0.54-0.17C69.31,21.32,68.12,20.02,67.38,18.44z M56.64,8.21
			c-0.28-0.64-0.51-1.26-0.7-1.84c-0.36-1.07-0.62-2.12-0.78-3.11c0,0-0.01-0.01-0.01-0.01c0,0,0.01,0.01,0.01,0.01
			c0-0.01,0-0.02-0.01-0.03c0,0,0,0,0,0c0,0,0,0,0,0c0-0.03-0.01-0.06-0.01-0.08c0.51,0.28,1.01,0.57,1.48,0.87
			c-0.07-0.06-0.14-0.12-0.22-0.18c3.78,2.53,3.29,3.02,4.31,7.63c0.39,1.75,1.14,3.6,2.24,5.3c-1.3-1.85-2.1-3.65-2.49-5.32
			c0.15,0.75,0.33,1.47,0.62,2.11c0.92,2.06,2.19,4.24,4.63,6.48c-0.75-0.5-1.48-1.02-2.19-1.57c0,0-0.01-0.01-0.01-0.01
			c-1.39-1.42-2.73-3.13-3.97-4.96C58.39,11.8,57.4,9.99,56.64,8.21z M80.41,23.81c0.02-0.01,0.04-0.02,0.05-0.03
			c0.05-0.03,0.1-0.06,0.15-0.09c0.02,0,0.05-0.01,0.07-0.01c-0.07,0.03-0.15,0.07-0.22,0.1C80.45,23.8,80.43,23.81,80.41,23.81
			c0,0.01-0.01,0.01-0.01,0.01C80.4,23.82,80.41,23.81,80.41,23.81z M79.61,24.41c-0.04,0-0.08,0.01-0.12,0.02
			c0.18-0.13,0.38-0.27,0.59-0.4c0.02,0,0.03-0.01,0.05-0.01C79.95,24.15,79.77,24.28,79.61,24.41z M72.94,26.13
			c1.87-0.87,4.08-1.35,6.38-1.92c-0.14,0.1-0.27,0.19-0.4,0.29C76.64,24.86,74.46,25.66,72.94,26.13z M79.07,24.74
			c0.09-0.04,0.17-0.07,0.26-0.11c-0.16,0.13-0.3,0.27-0.45,0.4c-0.12,0.05-0.24,0.11-0.36,0.17C78.7,25.05,78.88,24.9,79.07,24.74z
			 M79.91,24.5c-0.08,0.07-0.16,0.15-0.23,0.22c-0.01,0-0.02,0.01-0.03,0.01C79.73,24.66,79.81,24.58,79.91,24.5z M77.67,29.37
			c-0.4,1.25-0.55,2.41-2.47,3.81c0.32-0.39,0.62-0.82,0.87-1.32c0.67-1.29,0.96-2.62,1.67-4.05c0.5-0.99,1.21-2.01,2.4-3.11
			c0,0,0.01,0,0.01,0C79.05,25.9,78.34,27.27,77.67,29.37z M81.01,24.28c0.3-0.28,0.62-0.54,0.95-0.8c0.13-0.04,0.26-0.08,0.38-0.12
			c-0.12,0.03-0.23,0.06-0.35,0.09c0.04-0.03,0.09-0.07,0.13-0.1c0.18-0.05,0.37-0.1,0.55-0.15c-0.41,0.26-0.86,0.58-1.33,0.97
			C81.24,24.21,81.12,24.25,81.01,24.28z M77.96,31.61c0.1-0.36,0.16-0.73,0.22-1.11c0.28-1.8,0.91-3.36,1.82-4.65
			c0.43-0.6,0.92-1.14,1.45-1.63c0.1-0.03,0.21-0.07,0.31-0.09c-1.77,1.7-2.45,3.01-2.75,4.26c-0.18,0.74-0.22,1.45-0.29,2.21
			C78.48,30.95,78.23,31.28,77.96,31.61z M78.56,32.97c0.17-0.13,0.33-0.27,0.49-0.41c-0.16,0.15-0.32,0.3-0.5,0.45
			C78.55,33,78.55,32.99,78.56,32.97z M77.53,34.71c0.24-0.27,0.44-0.53,0.61-0.78c0.33-0.26,0.64-0.55,0.95-0.86
			C78.83,33.64,78.36,34.17,77.53,34.71z M79.21,32.71c-0.28,0.32-0.58,0.61-0.89,0.89c0.09-0.17,0.16-0.35,0.21-0.51
			c0.01-0.03,0.01-0.05,0.02-0.07c0.27-0.21,0.52-0.43,0.75-0.66C79.28,32.48,79.25,32.6,79.21,32.71z M79.38,31.69
			c-0.01,0.21-0.03,0.4-0.07,0.59c-0.24,0.23-0.49,0.46-0.75,0.68c0.23-0.86,0.34-1.65,0.43-2.4c0.13-0.18,0.26-0.37,0.39-0.55
			C79.39,30.57,79.41,31.12,79.38,31.69z M79.39,29.67c-0.12,0.17-0.23,0.33-0.34,0.49c0.08-0.68,0.17-1.35,0.35-2.02
			c0.13-0.49,0.32-0.99,0.6-1.5c-0.25,0.5-0.43,1.07-0.49,1.71C79.42,28.8,79.39,29.23,79.39,29.67z M79.5,32.37
			c0.02-0.08,0.03-0.17,0.05-0.25c0.24-0.25,0.47-0.51,0.68-0.77C80.01,31.71,79.76,32.05,79.5,32.37z M80.57,30.76
			c-0.01,0.02-0.02,0.04-0.03,0.06c-0.22,0.32-0.46,0.63-0.72,0.93c-0.09,0.1-0.17,0.19-0.27,0.29c0.02-0.15,0.03-0.3,0.03-0.46
			c0-0.7,0-1.32,0.03-1.88c1.23-1.79,2.4-3.69,3.91-5.7c0.24-0.14,0.48-0.28,0.72-0.43c-0.5,0.46-0.96,0.92-1.35,1.41
			c-1.02,1.25-1.73,2.77-2.15,5.01C80.69,30.26,80.63,30.52,80.57,30.76z M80.9,30.07c0.01-0.04,0.02-0.08,0.03-0.13
			c0.44-2.28,1.4-3.89,2.56-5.2c0.55-0.63,1.16-1.21,1.78-1.77c0.09-0.05,0.17-0.1,0.26-0.15c-1.43,1.32-2.35,2.56-3.01,3.74
			C81.81,27.81,81.38,29.01,80.9,30.07z M82.76,27.1c-0.47,0.81-0.9,1.62-1.37,2.4c0.47-1.02,0.88-2.06,1.53-3.15
			c0.71-1.19,1.72-2.47,3.43-4.04c0.12-0.08,0.23-0.15,0.34-0.23C84.81,23.85,83.69,25.49,82.76,27.1z M87.61,21.28
			c-0.11,0.08-0.22,0.15-0.34,0.22c0.2-0.17,0.4-0.34,0.61-0.51c0.09-0.05,0.18-0.1,0.27-0.15C87.96,20.99,87.78,21.14,87.61,21.28z
			 M84.31,26.26c1.47-2.25,3.45-4.38,5.67-6.4c-1.3,1.31-2.38,2.46-3.3,3.64c-1.19,1.53-2.14,3.24-2.96,5.58
			c-0.35,1-0.62,1.81-0.9,2.52c-0.38,0.42-0.79,0.83-1.23,1.25C82.05,30.48,83,28.26,84.31,26.26z M81.57,33.04
			c0.38-0.35,0.75-0.71,1.1-1.07c-0.33,0.76-0.7,1.4-1.25,2.02C81.46,33.67,81.51,33.36,81.57,33.04z M83.55,31.06
			c-0.64,1.55-1.33,2.56-2.18,3.39c0.01-0.1,0.02-0.21,0.03-0.31c0.65-0.67,1.1-1.43,1.55-2.45c0.22-0.23,0.42-0.46,0.63-0.69
			C83.57,31.02,83.56,31.04,83.55,31.06z M83.77,30.53c-0.21,0.25-0.43,0.5-0.65,0.75c0.26-0.65,0.52-1.39,0.82-2.27
			c0.81-2.37,1.82-4.06,3.05-5.57c1.16-1.43,2.54-2.8,4.16-4.48c0.21-0.14,0.42-0.28,0.64-0.43c-2.75,2.54-4.43,4.69-5.6,6.68
			C85.12,27.04,84.46,28.82,83.77,30.53z M84.09,30.14c1.15-2.85,2.01-4.69,3.13-6.32c1.15-1.67,2.59-3.2,4.95-5.56
			c0.08-0.05,0.15-0.1,0.23-0.15c-2.28,2.15-4.4,4.77-5.88,7.34c-0.71,1.24-1.29,2.51-1.69,3.75
			C84.58,29.53,84.34,29.84,84.09,30.14z M92.02,18.65c0.03-0.03,0.05-0.05,0.08-0.08c-1.07,1.51-1.98,2.85-2.8,4.06
			C89.84,21.6,90.7,20.31,92.02,18.65z M88.56,23.74c-0.99,1.5-1.85,2.81-2.7,4.04c-0.22,0.32-0.44,0.63-0.67,0.94
			c0.41-1.17,0.95-2.31,1.6-3.43c1.17-1.99,2.73-3.97,4.52-5.89C89.81,21.31,88.97,22.7,88.56,23.74z M86.96,29.07
			c-0.68,0.82-1.47,1.6-2.5,2.58c0.12-0.8,0.3-1.6,0.55-2.38c0.56-0.73,1.09-1.47,1.61-2.23c0.57-0.84,1.13-1.69,1.71-2.58
			c-0.17,0.67-0.13,1.17,0.01,1.57c0.02,0.05,0.04,0.09,0.05,0.13c-0.13,0.13-0.27,0.26-0.41,0.4
			C86.86,27.69,86.66,28.57,86.96,29.07z M87.87,27.85c-0.24,0.36-0.48,0.7-0.74,1.02c-0.19-0.47,0.01-1.21,0.91-2.12
			c0.14-0.15,0.29-0.28,0.43-0.42c0.05,0.1,0.11,0.19,0.17,0.28C88.42,26.98,88.17,27.38,87.87,27.85z M88.59,25.78
			c-0.14-0.49-0.13-1.12,0.21-2.04c1.21-1.85,2.51-3.82,4.11-5.98c0.11-0.08,0.22-0.15,0.33-0.23c-0.94,1.15-2.08,2.68-2.95,4.1
			c-1.32,2.15-1.52,3.25-1.32,3.99c-0.11,0.1-0.22,0.2-0.33,0.31C88.63,25.88,88.61,25.83,88.59,25.78z M92.79,18.33
			c-0.14,0.23-0.27,0.47-0.4,0.7c-1.55,2.21-2.03,3.29-2.33,4.18c-0.22,0.67-0.36,1.25-0.74,2.1c-0.03,0.03-0.07,0.06-0.1,0.09
			c-0.22-0.81,0.05-1.82,1.26-3.78C91.16,20.51,92.02,19.33,92.79,18.33z M88.72,26.1c0.11-0.1,0.22-0.2,0.32-0.3
			c0.01,0.02,0.01,0.03,0.02,0.05c-0.07,0.14-0.15,0.29-0.24,0.45C88.78,26.24,88.75,26.17,88.72,26.1z M89.74,27.43
			c-0.01,0.04-0.03,0.09-0.05,0.13c-0.15-0.37-0.5-0.68-0.78-1.1c0.09-0.15,0.16-0.28,0.24-0.42c0.2,0.35,0.48,0.63,0.72,0.96
			C89.83,27.15,89.79,27.29,89.74,27.43z M89.96,26.71c-0.26-0.35-0.48-0.67-0.63-0.99c0.05-0.1,0.1-0.2,0.15-0.3
			c0.35-0.31,0.68-0.61,1.01-0.94C90.3,25.27,90.15,26.01,89.96,26.71z M90.48,23.94c0,0.09,0,0.17,0,0.25
			c-0.26,0.27-0.53,0.53-0.81,0.79c0.32-0.75,0.46-1.3,0.68-1.93c0.23-0.68,0.56-1.46,1.34-2.71C91,21.72,90.52,23,90.48,23.94z
			 M92.57,19.03c0.12-0.17,0.25-0.36,0.39-0.55c-0.11,0.22-0.2,0.42-0.28,0.62c-0.85,1.38-1.37,2.62-1.73,3.73
			c-0.1,0.32-0.19,0.62-0.27,0.92C90.75,22.59,91.51,20.9,92.57,19.03z M92.58,21.11c-0.18,0.36-0.37,0.71-0.56,1.05
			c-0.35,0.61-0.72,1.11-1.1,1.56c0.1-0.37,0.2-0.76,0.34-1.17c0.25-0.76,0.61-1.59,1.14-2.56c-0.04,0.21-0.06,0.39-0.05,0.55
			C92.37,20.81,92.46,21,92.58,21.11z M94.47,22.2c0.08,1.07-0.52,2.16-1.89,3.52c-1.11-0.09-1.68-0.53-1.85-1.24
			c0.03-0.11,0.05-0.22,0.08-0.33c0.47-0.51,0.93-1.09,1.39-1.86c0.21-0.34,0.4-0.69,0.59-1.05c0.33,0.1,0.82-0.06,1.36-0.36
			C94.3,21.2,94.43,21.61,94.47,22.2z M95.09,19.51c-0.02,0.19-0.06,0.37-0.1,0.56c-0.01,0.01-0.02,0.02-0.03,0.03
			c-0.21,0.14-0.41,0.28-0.61,0.39c-0.22-0.5-0.45-0.85-0.42-1.43c0.59-1.13,1.24-2.28,2.11-3.39c0.04-0.02,0.07-0.05,0.11-0.07
			c-0.94,1.36-1.09,1.85-1.1,2.3C95.02,18.46,95.15,18.94,95.09,19.51z M95.21,19.91c0.03-0.16,0.06-0.32,0.08-0.5
			c0.11-0.77-0.01-1.34,0.01-1.61c0.03-0.66,0.27-1.11,1.09-2.36c0.08-0.05,0.16-0.1,0.24-0.14c-1.03,1.53-1.33,3.14-0.99,4.26
			C95.5,19.68,95.35,19.8,95.21,19.91z M96.5,18.97c0.43,0.21,1.1,0.22,2.05,0.03c1.21-0.24,2.09-0.34,2.71,0.19
			c-2.89,2.18-4.79,1.87-5.38,0.4C96.1,19.39,96.3,19.18,96.5,18.97z M96.35,18.87c-0.17,0.18-0.35,0.35-0.54,0.53
			c-0.31-1.03-0.05-2.52,0.87-4.13c0.06-0.04,0.13-0.08,0.19-0.12C95.88,17.11,95.64,18.37,96.35,18.87z M95.71,13.14
			c-0.03,0.47,0.23,1.08,0.97,1.64c-0.06,0.03-0.11,0.07-0.17,0.1c-2.13-1.02-0.45-5.27,3.43-6.69
			C99.21,10.78,95.8,11.67,95.71,13.14z"/>
		<path class="st0" d="M72.11,23.75c-0.08-0.02-0.16-0.04-0.23-0.06c-1.86,0.88-2.95,1.92-3.64,3.02c-0.75,1.17-1.1,2.48-1.49,3.66
			c0.12,0.05,0.22,0.1,0.31,0.15c0.2-1.22,0.56-2.62,1.36-3.83C69.15,25.59,70.3,24.55,72.11,23.75z"/>
		<path class="st0" d="M62.9,18.9c0.16,0.1,0.32,0.2,0.49,0.31c-0.1-0.07-0.19-0.15-0.29-0.22c-3.82-3.02-7.26-6.71-9.96-11.22
			c0.48,0.99,0.98,1.92,1.53,2.77c0.03,0.05,0.06,0.09,0.1,0.14c1.61,2.27,3.75,4.55,6.95,7.24c0.36,0.29,0.73,0.57,1.11,0.85
			c-0.28-0.2-0.55-0.4-0.82-0.6C62.3,18.4,62.59,18.65,62.9,18.9z"/>
		<path class="st0" d="M64.37,14.24c-0.35-2.2-0.1-4.22-0.89-6.22c0.2,0.47,0.34,0.93,0.45,1.37C63.88,8.86,63.8,8.3,63.7,7.7
			c-0.24-0.08-0.48-0.15-0.7-0.23c0.52,0.67,0.58,2.19,0.86,4.08C63.98,12.38,64.15,13.29,64.37,14.24z"/>
		<path class="st0" d="M52.29,2.41c-0.15-0.17-0.31-0.33-0.48-0.49c0.95,1.23,1.35,2.39,1.81,3.76c0.4,0.92,0.79,1.9,1.26,2.94
			c-0.59-1.59-0.84-2.94-1.41-4.3C53.16,3.65,52.79,3.02,52.29,2.41z"/>
		<path class="st0" d="M52.15,5.51c0.27,0.67,0.55,1.31,0.83,1.92c0.14,0.22,0.27,0.44,0.41,0.65c-0.49-0.84-0.9-1.72-1.3-2.72
			C52.12,5.42,52.14,5.47,52.15,5.51z"/>
		<path class="st0" d="M51.63,1.7c0.01,0.01,0.02,0.03,0.03,0.04c0.02,0.02,0.05,0.04,0.07,0.06C51.7,1.77,51.67,1.74,51.63,1.7z"/>
		<path class="st0" d="M55.59,10.29c-0.51-0.93-0.92-1.83-1.3-2.69c0.36,0.91,0.83,1.93,1.49,3.05
			C55.71,10.53,55.65,10.41,55.59,10.29z"/>
		<path class="st0" d="M71.18,17.88c-0.05,1.06,0.21,1.94,0.69,2.66c-0.24-0.48-0.41-0.99-0.53-1.52
			C71.26,18.65,71.21,18.27,71.18,17.88z"/>
		<path class="st0" d="M69.25,30.19c0.13-0.13,0.25-0.26,0.37-0.38c0.37-0.94,0.95-1.97,1.96-2.9c1.06-0.97,2.62-1.91,4.98-2.69
			c-0.31,0-0.63,0-0.94-0.01c-2.14,0.88-3.49,1.89-4.43,2.93C70.31,28.12,69.76,29.19,69.25,30.19z"/>
		<path class="st0" d="M74.64,24.16c-0.23-0.02-0.45-0.04-0.68-0.07c-2.03,1.04-3.22,2.2-4.01,3.37c-0.79,1.17-1.21,2.45-1.63,3.61
			c0.12-0.1,0.28-0.23,0.48-0.43c0.12-0.12,0.24-0.24,0.36-0.35c0.37-1.06,0.94-2.22,1.9-3.24c0.98-1.05,2.4-2.05,4.49-2.83
			c-0.27-0.01-0.53-0.02-0.8-0.05c-1.81,0.83-3,1.76-3.85,2.74c-0.98,1.13-1.55,2.4-2.11,3.53c0.36-1.17,0.94-2.49,1.97-3.64
			C71.65,25.83,72.88,24.91,74.64,24.16z"/>
		<path class="st0" d="M50.56,4.01c0.15,1.24,0.48,2.51,1.02,3.8c0.08,0.17,0.15,0.34,0.24,0.5c0.39,0.72,0.84,1.39,1.32,2.04
			c-0.79-1.07-1.33-2.03-1.71-3.03c-0.5-1.34-0.72-2.72-0.85-4.68c0-0.01,0-0.02-0.01-0.02c0,0.01,0,0.01,0,0.02
			c-0.01-0.23-0.03-0.48-0.04-0.73c0-0.06-0.01-0.11-0.01-0.17c-0.01-0.04-0.02-0.07-0.02-0.11c0.01,0.03,0.02,0.07,0.02,0.1
			c-0.01-0.18-0.02-0.36-0.03-0.54c0.01,0.07,0.01,0.14,0.02,0.22c0-0.1-0.01-0.2-0.01-0.3c0-0.02-0.01-0.04-0.01-0.06
			c0,0.02,0.01,0.04,0.01,0.06c0-0.07-0.01-0.14-0.01-0.21c-0.01-0.02-0.01-0.04-0.02-0.06C50.48,1.77,50.46,3.17,50.56,4.01z"/>
		<path class="st0" d="M71.11,23.47c-0.09-0.03-0.18-0.05-0.26-0.08c-2.06,0.83-3.22,1.9-3.93,3.05c-0.72,1.16-1.06,2.49-1.45,3.67
			c0.2-1.22,0.55-2.61,1.31-3.79c0.76-1.18,2-2.24,4.05-2.94c-0.14-0.05-0.28-0.1-0.42-0.15c-1.61,0.6-2.66,1.37-3.38,2.21
			c0.68-0.75,1.57-1.32,2.78-1.85c-1.7,0.94-2.64,1.74-3.24,2.71c-0.6,0.96-0.91,2.14-1.33,3.77c0.24,0.07,0.41,0.13,0.55,0.17
			c0.2-1.23,0.55-2.62,1.31-3.81C67.86,25.26,69.09,24.2,71.11,23.47z"/>
		<path class="st0" d="M65.03,29.86c0.2-1.21,0.53-2.59,1.28-3.75c0.76-1.17,2.01-2.21,4.09-2.87c-0.06-0.02-0.13-0.04-0.19-0.07
			c-2.12,0.77-3.28,1.8-4,2.96c-0.71,1.13-1.04,2.44-1.42,3.59c0.2-1.2,0.53-2.57,1.28-3.72c0.77-1.18,2.03-2.2,4.14-2.84
			c-0.07-0.02-0.13-0.05-0.2-0.07c-2.11,0.75-3.26,1.77-3.98,2.92c-0.7,1.12-1.03,2.42-1.41,3.57c0.18-1.12,0.49-2.37,1.13-3.45
			c-0.18,0.28-0.34,0.56-0.47,0.83c-0.45,0.94-0.67,1.86-0.81,2.44c-0.1-0.08-0.2-0.15-0.3-0.23c0.25-0.57,0.57-1.48,1.09-2.39
			c0.28-0.49,0.62-0.99,1.06-1.47c0.78-0.93,1.94-1.73,3.7-2.24c-0.04-0.01-0.08-0.03-0.11-0.04c-2.06,0.62-3.24,1.64-4.05,2.75
			c-0.8,1.09-1.29,2.34-1.92,3.26c0.42,0.39,0.7,0.59,1.16,0.87c0.1-0.43,0.2-0.83,0.3-1.2C65.26,29.11,65.14,29.49,65.03,29.86z"/>
		<path class="st0" d="M71.82,23.68c-0.14-0.04-0.29-0.07-0.43-0.12c-1.99,0.87-3.11,1.95-3.83,3.11c-0.72,1.16-1.06,2.46-1.44,3.65
			c0.07,0,0.13-0.03,0.19-0.08c0.39-0.34,0.1-1.13,1.01-2.88c-0.53,1.31-0.52,1.38-0.67,2.98c0.03,0.01,0.06,0.02,0.08,0.04
			c0.2-1.21,0.56-2.58,1.35-3.78C68.82,25.49,69.98,24.45,71.82,23.68z"/>
		<path class="st0" d="M69.89,23.05c-0.05-0.02-0.09-0.04-0.14-0.06c-1.38,0.36-2.5,0.91-3.49,1.81c-0.96,0.88-1.84,2.11-2.77,3.86
			c0.64-1.86,1.66-3.19,2.77-4.1c1.14-0.93,2.42-1.48,3.47-1.58c-0.06-0.03-0.13-0.05-0.19-0.07c-1.51,0.35-2.84,1.08-3.86,1.99
			c-1.12,0.99-1.91,2.29-2.2,3.65c-1.16-0.69-1.57-1.71-2.31-2.44c1.39,0.49,2.09-0.56,3.14-1.55c0.97-0.91,2.27-1.82,4.8-1.84
			c-0.19-0.08-0.38-0.17-0.57-0.26c-2.15,0.15-3.48,1.25-4.55,2.21c-1.04,0.93-1.88,1.75-2.91,1.3c0.97,0.26,1.85-0.63,2.93-1.55
			c1.11-0.95,2.48-1.97,4.52-1.96c-0.04-0.02-0.08-0.04-0.12-0.06c-2.35-0.06-3.92,0.75-5.22,1.24c-1.3,0.48-2.37,0.7-3.71-0.55
			c1.36,1.07,2.66,0.75,4.06,0.22c1.38-0.52,2.91-1.25,4.74-0.97c-0.32-0.16-0.64-0.33-0.95-0.5c-4.58-0.5-4.86,2.39-8.08,0.57
			c0.19,0.08,0.37,0.15,0.54,0.21c-0.28-0.12-0.59-0.27-0.99-0.49c2.01,3.95,5.58,0.57,7.99,0.55c-1.61,0.34-2.6,1.24-3.44,1.99
			c-0.82,0.73-1.5,1.36-2.4,1.2c1.04,1.51,1.37,1.85,2.63,2.95c0.42-1.39,1.12-1.94,1.86-2.93c-0.45,0.75-1.36,2.01-1.56,3.13
			c0.02,0.01,0.03,0.03,0.05,0.04c0.54-1.15,1.03-2.43,1.85-3.48C66.61,24.5,67.83,23.59,69.89,23.05z M67.6,22.03
			c-4.46-0.19-5.75,2.81-8.61,0.38C61.93,24.59,63.79,21.42,67.6,22.03z M67.8,22.2c-4.3-0.43-5.44,2.87-8.39,0.68
			C62,24.74,64.35,21.4,67.8,22.2z"/>
		<path class="st0" d="M71.36,23.55c-0.08-0.02-0.16-0.05-0.24-0.07c-2.04,0.84-3.16,1.92-3.89,3.08c-0.72,1.17-1.07,2.49-1.46,3.69
			c0.14,0.04,0.25,0.06,0.33,0.06c0.21-1.22,0.56-2.58,1.31-3.76C68.18,25.38,69.39,24.31,71.36,23.55z"/>
		<path class="st0" d="M73.31,23.99c-0.21-0.03-0.43-0.07-0.63-0.12c-0.07-0.01-0.15-0.03-0.22-0.05c-1.8,0.92-2.87,1.97-3.57,3.07
			c-0.76,1.21-1.12,2.54-1.51,3.76c0.2-1.23,0.56-2.64,1.37-3.87c0.73-1.11,1.87-2.15,3.65-2.97c-0.08-0.02-0.15-0.03-0.23-0.05
			c-1.83,0.89-2.91,1.95-3.61,3.05c-0.75,1.19-1.11,2.52-1.5,3.72c0.27,0.16,0.43,0.33,0.56,0.46c0.25-1.2,0.67-2.57,1.51-3.77
			C69.98,26.02,71.26,24.88,73.31,23.99z"/>
		<path class="st0" d="M68.28,31.1c0.26-1.18,0.68-2.52,1.52-3.73c0.83-1.19,2.11-2.35,4.11-3.28c-0.09-0.01-0.17-0.02-0.26-0.04
			c-2.05,1.02-3.26,2.16-4.05,3.34c-0.83,1.24-1.25,2.59-1.69,3.8c0.25-1.23,0.67-2.63,1.55-3.89c0.83-1.2,2.12-2.34,4.14-3.25
			c-0.09-0.01-0.18-0.02-0.27-0.04c-2.07,1.01-3.28,2.13-4.08,3.32c-0.8,1.19-1.22,2.5-1.65,3.68
			C67.84,31.24,67.93,31.36,68.28,31.1z"/>
		<path class="st0" d="M50.7,5.71c-0.03-0.09-0.05-0.18-0.08-0.27c0.02,0.06,0.04,0.12,0.06,0.18c-0.06-0.33-0.11-0.68-0.14-1.03
			c0.06,0.35,0.14,0.69,0.23,1.03c-0.11-0.49-0.21-1.05-0.31-1.72c0.08,1,0.13,1.74,0.28,2.45c0.12,0.35,0.25,0.68,0.39,1
			C50.95,6.82,50.8,6.28,50.7,5.71z"/>
		<path class="st0" d="M50.63,0.81C50.63,0.81,50.63,0.81,50.63,0.81c0-0.01-0.01-0.01-0.01-0.02C50.63,0.8,50.63,0.81,50.63,0.81z"
			/>
		<path class="st0" d="M57.1,15.07c1.49,1.13,3.16,2.17,5.07,3.36c-2.75-1.82-5.84-4.05-8.13-6.48c-1.31-1.39-2.26-2.83-2.85-4.45
			c-0.16-0.38-0.31-0.76-0.45-1.16c0.21,1.04,0.61,2,1.55,3.6C51.78,9.28,51.53,9,50.93,7.8c0.02,0.07,0.04,0.13,0.06,0.2
			C52.8,11.33,54.76,13.3,57.1,15.07z"/>
		<path class="st0" d="M50.49,0.87c0-0.1-0.01-0.2-0.01-0.31c0.25,0.77,0.48,1.48,0.7,2.14c-0.18-0.59-0.36-1.22-0.55-1.89
			c0-0.01-0.01-0.02-0.01-0.02c0-0.01-0.01-0.01-0.01-0.02c0,0,0.01,0.01,0.01,0.01c0,0,0,0,0,0c0,0,0,0,0,0
			c0,0.01,0.01,0.01,0.01,0.02c-0.02-0.08-0.04-0.15-0.06-0.23c0.13,0.12,0.24,0.23,0.36,0.35c-0.12-0.15-0.24-0.31-0.36-0.47
			c0.18,0.21,0.35,0.41,0.5,0.61c0.17,0.18,0.33,0.35,0.48,0.53c0.25,0.16,0.49,0.37,0.72,0.61c-0.02-0.03-0.05-0.07-0.07-0.1
			c-0.01-0.01-0.02-0.03-0.03-0.04c0,0,0.01,0,0.01,0c-0.43-0.56-0.96-1.14-1.63-1.76c0.2,0.17,0.38,0.35,0.56,0.51
			c-0.21-0.23-0.42-0.5-0.63-0.82c0.02,0.17,0.02,0.46,0.02,0.82C50.48,0.84,50.49,0.86,50.49,0.87z"/>
		<path class="st0" d="M67.31,21.83c-0.6-0.33-1.19-0.7-1.78-1.08c-0.89-0.04-1.69-0.12-2.44-0.25c0.82,0.17,1.65,0.27,2.48,0.3
			c-5.18,0.07-9.67-2.79-11.53-5.7c1.48,1.9,3.48,3.36,5.69,4.33c-1.02-0.49-2.04-1.13-3.2-1.98c3.55,2.26,5.1,2.81,8.99,3.29
			c-0.14-0.09-0.28-0.19-0.42-0.29c-1.78-0.61-3.3-0.99-4.64-1.37c1.47,0.58,3.02,1.03,4.6,1.41c-2.7-0.44-5.02-1.21-6.92-2.22
			c-0.4-0.18-0.78-0.37-1.15-0.6c-0.54-0.34-1.06-0.74-1.57-1.25c-0.74-0.65-1.35-1.35-1.82-2.09c0.25,0.31,0.52,0.61,0.79,0.89
			c-0.31-0.42-0.62-0.89-0.93-1.43c-0.02-0.02-0.03-0.05-0.05-0.07c0.01,0.02,0.03,0.04,0.04,0.06c-0.06-0.1-0.12-0.21-0.18-0.31
			c-0.05-0.07-0.11-0.14-0.16-0.21c0.04,0.06,0.09,0.12,0.14,0.18c-0.06-0.11-0.12-0.23-0.18-0.34c-0.17-0.29-0.33-0.58-0.5-0.88
			c0.07,0.11,0.14,0.21,0.21,0.31c-0.18-0.38-0.37-0.78-0.55-1.21c-0.11-0.2-0.21-0.4-0.32-0.62c0.07,0.12,0.14,0.24,0.21,0.35
			c-0.22-0.52-0.44-1.08-0.66-1.67c-0.06-0.15-0.11-0.3-0.17-0.46c-0.1-0.27-0.2-0.55-0.3-0.84c0.62,2.27,1.51,4.48,2.71,6.6
			c1.21,2.15,2.7,4.3,4.37,6.51c0.97,1.29,2.16,1.45,3.14,1.65C62.94,22.73,63.81,21.19,67.31,21.83z M54.92,16.59
			c-0.17-0.24-0.33-0.47-0.48-0.71c3.39,3.59,6.4,4.89,9.75,5.24c-1.11-0.01-2.33-0.26-3.55-0.69c0,0,0,0,0,0
			c-0.01,0-0.01,0-0.02-0.01c-0.05-0.02-0.11-0.04-0.16-0.06c-0.09-0.03-0.19-0.07-0.29-0.11c-1.74-0.69-3.45-1.77-4.78-3.14
			c2.65,2.99,6.09,3.83,8.39,3.99c-2.26-0.11-6.17-1.02-8.73-4.37C55.01,16.69,54.96,16.64,54.92,16.59z M55.46,17.42
			c1.85,2.3,6.38,3.94,8.92,3.69c-0.2,0.04-0.44,0.07-0.71,0.07c0.84,0.02,1.58-0.02,2.21,0c-2.64,0.19-6.34,0.41-9.52-2.54
			c2.48,1.91,4.78,2.4,6.68,2.52c-1.93-0.16-4.75-1.07-6.52-2.56C56.17,18.31,55.79,17.95,55.46,17.42z M59.9,22.4
			c0.19,0.07,0.38,0.11,0.56,0.14c-0.68-0.25-1.47-0.75-2.3-1.5c2.09,1.66,3.39,1.47,3.63,1.33c-2.35,0-3.93-1.4-5.44-3.6
			c0.24,0.23,0.48,0.44,0.71,0.62c-0.15-0.14-0.3-0.28-0.46-0.44c0.69,0.6,1.33,1.06,1.94,1.42c0.34,0.18,0.69,0.33,1.03,0.45
			c2.21,0.8,3.53,0.73,5.5,0.49c-1.03,0.27-1.58,0.5-2.23,0.84c1.18-0.41,2.45-0.91,4.16-0.49c-2.14-0.37-3.51,0.45-4.79,0.84
			c-0.07,0.04-0.14,0.08-0.21,0.12c-0.26,0.15-0.65,0.17-1.11,0.05C60.57,22.65,60.24,22.56,59.9,22.4z"/>
	</g>
	<g>
		<g>
			<path class="st1" d="M49.32,71.51h-2.93l-0.67,1.74h-0.26l2.26-5.87h0.26l2.29,5.87H50L49.32,71.51z M49.23,71.28l-1.27-3.3
				l-0.12-0.29c-0.03,0.1-0.07,0.2-0.1,0.29l-1.27,3.3H49.23z"/>
			<path class="st1" d="M59.29,67.62h-2.08v5.63h-0.25v-5.63h-2.08v-0.23h4.41V67.62z"/>
			<path class="st1" d="M68.22,73.02v0.23h-3.06v-5.87h2.99v0.23h-2.73v2.53h2.58v0.23h-2.58v2.63H68.22z"/>
			<path class="st1" d="M77.53,73.02v0.23h-3.03v-5.87h0.25v5.63H77.53z"/>
			<path class="st1" d="M83.49,67.39h0.25v5.87h-0.25V67.39z"/>
			<path class="st1" d="M93.42,73.02v0.23h-3.06v-5.87h2.99v0.23h-2.73v2.53h2.58v0.23h-2.58v2.63H93.42z"/>
			<path class="st1" d="M101.13,70.65h-1.17v2.61h-0.25v-5.87h1.21c1.06,0,1.86,0.67,1.86,1.66c0,0.9-0.63,1.47-1.37,1.58l1.53,2.62
				h-0.3L101.13,70.65z M100.93,70.41c0.95,0,1.6-0.43,1.6-1.37c0-0.89-0.64-1.43-1.6-1.43h-0.96v2.79H100.93z"/>
		</g>
		<g>
			<path class="st1" d="M0.02,45.49h3.19v12.15H0v-0.22c0.83,0,1.5-0.33,1.5-1.28v-9.21c0-0.78-0.38-1.23-1.48-1.23V45.49z
				 M11.02,51.43c0,5.6-4.52,6.17-6.02,6.2v-0.13c1.13-0.37,3.91-1.73,3.91-5.95c0-4.22-2.68-5.52-3.91-5.9v-0.15
				C6.63,45.59,11.02,46.31,11.02,51.43z"/>
			<path class="st1" d="M16.64,57.69c-2.63-0.45-4.65-3.02-4.65-6.15c0-3.12,2.03-5.67,4.65-6.12v0.2
				c-0.86,0.53-2.56,2.09-2.56,5.85c0,3.57,1.7,5.3,2.56,5.97V57.69z M23.25,51.54c0,3.11-1.96,5.67-4.57,6.15v-0.28
				c0.86-0.66,2.49-2.38,2.49-5.93c0-3.71-1.63-5.25-2.49-5.83v-0.22C21.29,45.91,23.25,48.45,23.25,51.54z"/>
			<path class="st1" d="M26.44,45.49l7,9.64v2.51h-0.57l-7.46-10.3c-0.57-0.76-1.13-1.56-2.03-1.56v-0.28H26.44z M27.66,57.41v0.23
				h-4.27v-0.23c0.66,0,1.2-0.18,1.45-0.63c0.37-0.66,0.53-1.84,0.62-2.83h0.18c0.1,0.98,0.28,2.18,0.65,2.83
				C26.53,57.21,27.04,57.41,27.66,57.41z M35.45,45.49v0.23c-0.63,0-1.13,0.2-1.38,0.63c-0.37,0.65-0.55,1.83-0.65,2.83h-0.18
				c-0.08-0.98-0.27-2.16-0.63-2.83c-0.23-0.45-0.76-0.63-1.43-0.63v-0.23H35.45z"/>
			<path class="st1" d="M39.31,45.49l7,9.64v2.51h-0.57l-7.46-10.3c-0.57-0.76-1.13-1.56-2.03-1.56v-0.28H39.31z M40.52,57.41v0.23
				h-4.27v-0.23c0.66,0,1.2-0.18,1.45-0.63c0.37-0.66,0.53-1.84,0.61-2.83h0.18c0.1,0.98,0.28,2.18,0.65,2.83
				C39.39,57.21,39.91,57.41,40.52,57.41z M48.32,45.49v0.23c-0.63,0-1.13,0.2-1.38,0.63c-0.37,0.65-0.55,1.83-0.65,2.83h-0.18
				c-0.08-0.98-0.27-2.16-0.63-2.83c-0.23-0.45-0.76-0.63-1.43-0.63v-0.23H48.32z"/>
			<path class="st1" d="M56.94,57.41v0.23h-4.44v-0.23c0,0,1.1,0.05,1.35-0.93c0.02-0.08,0.03-0.18,0.03-0.28v-3.06l-3.52-6.6
				c-0.05-0.1-0.37-0.83-1.25-0.83v-0.22h4.19v0.22c-0.53,0-1.43,0.02-1.11,0.68l3.41,6.33v3.66
				C55.76,57.46,56.94,57.41,56.94,57.41z M60.3,45.49v0.22c-1.11,0-1.96,1.5-2.71,2.86h-0.15c0.58-1.3,1-2.86-1.05-2.86v-0.22H60.3
				z"/>
			<path class="st1" d="M70.02,57.43v0.22h-4.14v-0.22c1.06,0,1.89-1.58,2.53-3.02h0.13C68.18,55.78,68.06,57.43,70.02,57.43z
				 M77.72,57.43v0.22h-4.2v-0.22c0.88,0,1.3-0.6,1-1.5l-3.42-8.71c-0.3-0.58-0.78-0.63-0.78-0.63c1.25-0.27,1.94-1.11,1.94-1.11
				s4.06,10.35,4.09,10.42C76.92,57.23,77.07,57.43,77.72,57.43z"/>
			<path class="st1" d="M83.32,57.43v0.22h-4.8v-0.22c0.42,0,1.46,0.05,1.46-1.2v-9.31c0-1.25-1.13-1.21-1.45-1.21v-0.22h3.17v10.72
				C81.71,57.49,82.85,57.43,83.32,57.43z M89.62,57.43v0.22h-2.29c-2.83,0-2.03-5.52-3.94-5.95c0.6-0.08,2.09-0.66,2.09-3.04
				c0-2.78-2.34-3.16-2.34-3.16c1.79,0,4.35,0.45,4.35,3.16c0,2.14-2.06,2.81-3.11,3.01C87.71,52.17,86.89,57.43,89.62,57.43z"/>
			<path class="st1" d="M100.11,53.98c0,0-0.81,3.86-4.79,3.86c-2.26,0-5.57-1.98-5.57-6.05c0-4.92,3.24-6.08,4.94-6.35v0.1
				c-1.01,0.42-3.17,1.81-2.86,6.27C92.26,58.22,98.35,57.46,100.11,53.98z M96.73,45.54v-0.12c1.99,0.32,3.31,1.56,3.31,1.56
				l-0.2,2.99h-0.28C99.53,47.19,97.85,45.99,96.73,45.54z"/>
			<path class="st1" d="M100.91,45.49h4.27v0.22c-0.65,0-1.28,0.15-1.28,1.21v9.31c0,1.05,0.63,1.2,1.28,1.2v0.22h-4.27v-0.22
				c0.52,0,1.3-0.18,1.3-1.21v-9.27c0-1.03-0.78-1.23-1.3-1.23V45.49z M112.42,57.43v0.22h-4.24v-0.22c0.65,0,1.26-0.15,1.26-1.2
				v-2.84c0-0.45-0.17-0.8-0.42-0.98c-0.5-0.35-1.31-0.52-1.93-0.58v-0.12c0.63-0.08,1.45-0.27,1.93-0.61
				c0.25-0.18,0.42-0.5,0.42-0.96V46.9c0-1.05-0.65-1.2-1.3-1.2v-0.22h4.24v0.22c-0.5,0-1.25,0.18-1.25,1.21v9.29
				C111.14,57.24,111.92,57.43,112.42,57.43z"/>
			<path class="st1" d="M116.36,57.43v0.22h-4.14v-0.22c1.06,0,1.89-1.58,2.53-3.02h0.13C114.52,55.78,114.4,57.43,116.36,57.43z
				 M124.06,57.43v0.22h-4.2v-0.22c0.88,0,1.3-0.6,1-1.5l-3.42-8.71c-0.3-0.58-0.78-0.63-0.78-0.63c1.25-0.27,1.94-1.11,1.94-1.11
				s4.06,10.35,4.09,10.42C123.26,57.23,123.41,57.43,124.06,57.43z"/>
			<path class="st1" d="M127.91,45.49l7,9.64v2.51h-0.57l-7.46-10.3c-0.56-0.76-1.13-1.56-2.03-1.56v-0.28H127.91z M129.13,57.41
				v0.23h-4.27v-0.23c0.66,0,1.2-0.18,1.45-0.63c0.37-0.66,0.53-1.84,0.61-2.83h0.18c0.1,0.98,0.28,2.18,0.65,2.83
				C128,57.21,128.51,57.41,129.13,57.41z M136.92,45.49v0.23c-0.63,0-1.13,0.2-1.38,0.63c-0.37,0.65-0.55,1.83-0.65,2.83h-0.18
				c-0.08-0.98-0.27-2.16-0.63-2.83c-0.23-0.45-0.76-0.63-1.43-0.63v-0.23H136.92z"/>
			<path class="st1" d="M142.57,45.72c-0.6,0-1.25,0.1-1.25,1.21v7.91c0,1.06,0.17,6.05-3.94,6.05v-0.2c2.36-0.02,2.23-5.9,2.23-5.9
				v-7.91c0-1.11-0.8-1.16-1.26-1.16v-0.23h4.22V45.72z"/>
			<path class="st1" d="M148.03,57.69c-2.63-0.45-4.65-3.02-4.65-6.15c0-3.12,2.03-5.67,4.65-6.12v0.2
				c-0.86,0.53-2.56,2.09-2.56,5.85c0,3.57,1.7,5.3,2.56,5.97V57.69z M154.64,51.54c0,3.11-1.96,5.67-4.57,6.15v-0.28
				c0.86-0.66,2.49-2.38,2.49-5.93c0-3.71-1.63-5.25-2.49-5.83v-0.22C152.68,45.91,154.64,48.45,154.64,51.54z"/>
		</g>
	</g>
</g>
</svg>
